SplineFontDB: 3.0
FontName: xkcdScript
FullName: xkcd-Script-Regular
FamilyName: xkcd Script
Weight: Regular
Copyright: Copyright (c) ipython/xkcd-font contributors, Creative Commons Attribution-NonCommercial 3.0 License
UComments: "Created with FontForge (http://fontforge.org)"
Version: 1.0
ItalicAngle: 0
UnderlinePosition: -102.4
UnderlineWidth: 51.2
Ascent: 600
Descent: 256
InvalidEm: 0
LayerCount: 2
Layer: 0 0 "Back" 1
Layer: 1 0 "Fore" 0
XUID: [1021 751 -1857185263 15749]
UniqueID: -1
StyleMap: 0x0000
FSType: 0
OS2Version: 0
OS2_WeightWidthSlopeOnly: 0
OS2_UseTypoMetrics: 1
CreationTime: 946684800
ModificationTime: 946684800
PfmFamily: 65
TTFWeight: 400
TTFWidth: 5
LineGap: 77
VLineGap: 77
Panose: 3 0 5 2 0 0 0 0 0 0
OS2TypoAscent: 256
OS2TypoAOffset: 1
OS2TypoDescent: 0
OS2TypoDOffset: 1
OS2TypoLinegap: 77
OS2WinAscent: 0
OS2WinAOffset: 1
OS2WinDescent: 0
OS2WinDOffset: 1
HheadAscent: 0
HheadAOffset: 1
HheadDescent: 0
HheadDOffset: 1
OS2SubXSize: 556
OS2SubYSize: 599
OS2SubXOff: 0
OS2SubYOff: 119
OS2SupXSize: 556
OS2SupYSize: 599
OS2SupXOff: 0
OS2SupYOff: 410
OS2StrikeYSize: 42
OS2StrikeYPos: 221
OS2CodePages: 2000009f.00000000
Lookup: 4 0 1 "ligatures" { "liga"  } ['liga' ('latn' <'dflt' > ) ]
Lookup: 258 0 0 "kerning" { "kern"  "kern0"  } ['kern' ('latn' <'dflt' > ) ]
Lookup: 258 0 0 "sideaccents" { "sacc"  } ['mark' ('latn' <'dflt' > ) ]
Lookup: 260 0 0 "anchors" { "dlowerrightend"  "dupperright"  "dbottom"  "dtop"  } ['mark' ('latn' <'dflt' > ) ]
Lookup: 262 0 0 "mkmk" { "dtop1"  } ['mkmk' ('latn' <'dflt' > ) ]
DEI: 91125
KernClass2: 3+ 4 "kern0"
 191 H I M N d h l m n O_C_H O_N Igrave Iacute Icircumflex Idieresis Ntilde ntilde dcaron Hcircumflex hcircumflex Itilde Imacron Ibreve Iogonek Idotaccent lacute lcaron Nacute nacute Ncaron ncaron

StartChar: a
Encoding: 97 97 0
Width: 421
VWidth: 257
Flags: HW
AnchorPoint: "lowerrightend" 346.041 -5.08811 basechar 0
AnchorPoint: "upperright" 381 407 basechar 0
AnchorPoint: "bottom" 200.5 3 basechar 0
AnchorPoint: "top" 200.5 407 basechar 0
LayerCount: 2
Fore
SplineSet
32 92 m 0
 28 102 20 123 20 138 c 0
 20 141 20 143 21 145 c 0
 21 146 21 147 21 149 c 0
 21 152 21 156 21 159 c 2
 21 176 l 2
 21 185 21 195 24 203 c 0
 29 232 54 286 71 311 c 0
 73 314 81 324 87 332 c 0
 97 346 128 376 139 383 c 0
 157 394 176 407 205 407 c 0
 206 407 207 407 208 407 c 0
 218 406 243 397 244 394 c 0
 244 392 262 379 263 374 c 1
 262 374 l 2
 262 373 264 371 265 371 c 0
 268 370 281 343 283 335 c 0
 285 325 286 319 288 319 c 0
 289 319 290 320 290 321 c 0
 294 326 301 328 309 328 c 0
 312 328 315 328 318 327 c 0
 343 324 345 321 347 304 c 0
 349 293 352 295 352 283 c 0
 352 266 346 234 338 209 c 0
 333 196 331 184 331 172 c 0
 331 162 332 152 334 139 c 0
 337 124 341 107 343 102 c 0
 347 90 362 73 373 66 c 0
 379 62 381 58 381 53 c 0
 381 48 379 42 374 31 c 0
 364 10 360 6 345 3 c 0
 329 3 296 29 286 48 c 0
 286 49 283 56 279 64 c 2
 272 78 l 1
 263 70 l 1
 243 50 217 29 192 21 c 0
 169 14 152 10 137 10 c 0
 117 10 99 17 73 31 c 0
 60 36 38 73 32 92 c 0
223 314 m 0
 218 320 213 334 205 338 c 0
 202 338 167 315 162 309 c 0
 129 269 99 225 96 164 c 0
 96 119 106 93 135 85 c 1
 136 85 l 0
 178 85 219 124 237 153 c 0
 248 172 258 200 258 212 c 0
 259 233 263 256 267 274 c 0
 267 275 266 276 265 276 c 0
 264 276 262 275 261 275 c 0
 248 275 235 295 230 303 c 0
 228 308 225 313 223 314 c 0
EndSplineSet
Comment: "char_L3_P6_x1253_y2085_x1446_y2300_YQ+AD0APQAA.svg"
EndChar

StartChar: k
Encoding: 107 107 1
Width: 443
VWidth: 240
Flags: HW
AnchorPoint: "lowerrightend" 370.212 -55.4771 basechar 0
AnchorPoint: "upperright" 403 540 basechar 0
AnchorPoint: "bottom" 211.5 -46 basechar 0
AnchorPoint: "top" 211.5 540 basechar 0
LayerCount: 2
Fore
SplineSet
62 5 m 0
 59 5 56 4 53 4 c 0
 34 4 20 12 20 32 c 0
 20 33 l 0
 24 140 36 258 40 365 c 0
 42 416 46 460 53 499 c 0
 55 519 54 535 72 540 c 1
 73 540 74 540 75 540 c 0
 81 540 85 539 91 539 c 0
 109 538 114 536 114 529 c 0
 114 527 115 522 117 520 c 0
 120 516 120 514 121 459 c 0
 121 458 121 457 121 456 c 0
 121 413 116 328 113 301 c 2
 112 292 l 1
 125 304 l 1
 143 323 207 367 220 375 c 0
 222 375 293 423 299 428 c 0
 303 433 315 437 325 437 c 0
 330 437 335 436 338 434 c 0
 342 430 360 404 363 389 c 0
 363 372 340 364 331 357 c 0
 314 346 269 317 257 311 c 0
 239 298 178 254 169 244 c 0
 168 243 168 243 168 242 c 0
 168 241 168 241 169 240 c 0
 183 227 197 222 212 208 c 0
 213 207 218 202 223 199 c 0
 238 192 288 126 317 96 c 0
 365 48 392 19 392 17 c 0
 393 11 401 4 401 -5 c 0
 401 -6 l 0
 402 -12 402 -16 403 -17 c 0
 400 -36 376 -38 361 -45 c 0
 360 -46 357 -46 355 -46 c 0
 350 -46 343 -45 343 -43 c 0
 340 -40 337 -41 334 -35 c 0
 332 -32 324 -22 315 -13 c 0
 283 20 234 72 210 103 c 0
 181 135 147 169 108 179 c 0
 106 179 106 176 102 135 c 0
 97 103 100 34 96 20 c 1
 87 7 83 6 62 5 c 0
EndSplineSet
Comment: "char_L1_P29_x5219_y817_x5418_y1121_aw+AD0APQAA.svg"
EndChar

StartChar: l
Encoding: 108 108 2
Width: 171
VWidth: 598
Flags: HW
AnchorPoint: "lowerrightend" 100.923 -26.9109 basechar 0
AnchorPoint: "upperright" 131 619 basechar 0
AnchorPoint: "bottom" 75.5 -17 basechar 0
AnchorPoint: "top" 75.5 619 basechar 0
LayerCount: 2
Fore
SplineSet
55 615 m 0
 59 618 64 619 71 619 c 0
 87 619 107 613 111 610 c 0
 114 608 112 582 115 580 c 0
 116 579 116 577 116 576 c 0
 116 573 115 569 114 565 c 0
 111 552 113 500 110 487 c 0
 108 476 107 384 103 377 c 0
 99 366 99 302 96 290 c 0
 95 280 95 273 95 266 c 0
 95 241 99 228 99 184 c 0
 100 125 106 99 113 55 c 0
 114 53 116 52 118 51 c 0
 127 47 131 29 131 13 c 0
 131 12 131 10 131 9 c 0
 131 3 117 -13 109 -16 c 0
 106 -17 101 -17 96 -17 c 0
 86 -17 75 -16 71 -13 c 0
 63 -8 50 8 49 13 c 0
 41 39 32 65 32 91 c 0
 27 144 20 199 20 255 c 0
 20 277 21 300 24 322 c 0
 29 364 37 497 37 532 c 0
 37 561 38 565 44 587 c 0
 49 605 51 612 55 615 c 0
EndSplineSet
Comment: "char_L3_P32_x6375_y1972_x6435_y2311_bA+AD0APQAA.svg"
EndChar

StartChar: m
Encoding: 109 109 3
Width: 575
VWidth: 197
Flags: HW
AnchorPoint: "lowerrightend" 491.947 -9.05263 basechar 0
AnchorPoint: "upperright" 535 454 basechar 0
AnchorPoint: "bottom" 277.5 0 basechar 0
AnchorPoint: "top" 277.5 454 basechar 0
LayerCount: 2
Fore
SplineSet
122 439 m 0
 134 448 147 454 163 454 c 0
 169 454 176 453 183 451 c 0
 194 449 221 432 228 422 c 0
 246 402 263 360 266 327 c 0
 267 327 270 331 275 338 c 0
 312 392 354 425 402 438 c 0
 409 440 421 441 434 441 c 0
 443 441 451 440 457 439 c 0
 464 438 483 426 490 419 c 0
 499 410 518 377 518 370 c 0
 527 352 531 315 533 286 c 0
 535 281 536 270 536 256 c 0
 534 169 527 137 518 38 c 0
 516 15 515 14 509 8 c 0
 503 2 503 2 483 1 c 2
 463 0 l 1
 456 8 l 1
 446 18 443 23 443 33 c 0
 443 37 443 41 444 47 c 0
 446 88 461 179 461 233 c 0
 461 239 460 245 460 250 c 0
 459 259 458 274 457 283 c 0
 451 340 447 367 427 367 c 0
 419 367 408 363 394 355 c 0
 382 348 349 313 334 293 c 0
 308 255 284 190 273 133 c 0
 272 127 264 112 260 108 c 0
 257 106 253 104 241 104 c 0
 220 104 213 107 206 115 c 0
 198 124 196 142 196 197 c 0
 196 243 193 312 190 330 c 0
 188 346 179 365 170 372 c 2
 163 378 l 1
 154 368 l 2
 144 357 138 348 130 329 c 0
 123 314 110 270 110 263 c 0
 109 255 102 233 102 218 c 0
 102 215 102 213 103 211 c 0
 105 203 105 37 108 33 c 0
 109 30 109 28 109 26 c 0
 109 23 108 21 106 17 c 0
 99 2 99 2 74 1 c 0
 68 1 62 0 57 -0 c 0
 53 0 49 0 47 2 c 0
 32 12 32 20 30 38 c 0
 20 85 20 89 20 119 c 0
 20 179 21 227 33 258 c 0
 34 260 35 279 36 306 c 2
 37 350 l 1
 42 359 l 2
 47 367 49 367 57 368 c 2
 66 369 l 1
 75 386 l 1
 89 410 105 427 122 439 c 0
EndSplineSet
Comment: "char_L3_P27_x5121_y2060_x5396_y2302_bQ+AD0APQAA.svg"
EndChar

StartChar: n
Encoding: 110 110 4
Width: 370
VWidth: 250
Flags: HW
AnchorPoint: "lowerrightend" 297.054 -33.2284 basechar 0
AnchorPoint: "upperright" 330 430 basechar 0
AnchorPoint: "bottom" 175 -24 basechar 0
AnchorPoint: "top" 175 430 basechar 0
LayerCount: 2
Fore
SplineSet
41 367 m 0
 45 369 49 369 52 369 c 0
 61 369 67 364 69 357 c 1
 72 357 75 359 83 366 c 0
 100 381 116 399 135 409 c 0
 146 415 147 420 161 423 c 0
 174 426 173 429 186 430 c 0
 199 430 219 426 223 422 c 0
 225 420 234 417 237 416 c 0
 255 402 273 375 282 351 c 0
 283 347 286 343 287 342 c 0
 289 339 306 288 306 283 c 0
 311 250 324 211 326 172 c 0
 328 143 331 129 331 98 c 0
 331 96 331 93 331 90 c 0
 330 37 328 10 310 -20 c 0
 310 -22 300 -23 291 -24 c 0
 283 -24 268 -11 262 -9 c 0
 253 -5 249 0 249 11 c 0
 251 35 255 57 255 89 c 0
 255 91 255 93 255 95 c 0
 255 100 255 105 255 110 c 0
 255 177 245 213 230 275 c 0
 223 304 203 349 195 353 c 0
 194 353 194 353 193 353 c 0
 188 353 187 352 178 348 c 0
 167 343 160 337 145 322 c 0
 122 299 117 292 108 271 c 0
 98 248 96 238 96 209 c 2
 96 186 l 1
 97 162 98 140 99 137 c 0
 103 121 108 86 108 57 c 0
 108 37 106 21 100 14 c 0
 93 1 85 -2 58 -3 c 0
 47 -3 40 3 32 19 c 0
 22 37 26 42 22 65 c 0
 20 76 20 83 20 145 c 2
 20 281 l 2
 20 288 20 295 20 301 c 0
 20 368 21 362 41 367 c 0
EndSplineSet
Comment: "char_L3_P19_x3579_y2073_x3746_y2315_bg+AD0APQAA.svg"
EndChar

StartChar: o
Encoding: 111 111 5
Width: 403
VWidth: 249
Flags: HW
AnchorPoint: "lowerrightend" 233.646 7.64646 basechar 0
AnchorPoint: "upperright" 363 416 basechar 0
AnchorPoint: "bottom" 191.5 -4 basechar 0
AnchorPoint: "top" 191.5 416 basechar 0
LayerCount: 2
Fore
SplineSet
243 28 m 0
 219 15 186 -4 149 -4 c 0
 148 -4 146 -4 145 -4 c 0
 119 -4 92 3 79 13 c 0
 75 16 70 19 67 21 c 0
 52 30 33 61 24 93 c 0
 21 105 20 110 20 139 c 2
 20 153 l 2
 20 203 21 207 36 255 c 0
 46 288 59 315 72 334 c 0
 72 337 93 363 103 372 c 0
 132 400 143 404 177 409 c 1
 187 414 200 416 214 416 c 0
 234 416 254 411 267 404 c 0
 294 391 322 364 334 339 c 0
 350 310 362 280 363 231 c 0
 363 213 362 192 358 178 c 0
 351 153 347 142 345 140 c 0
 327 110 310 84 285 59 c 0
 275 49 247 28 243 28 c 0
182 329 m 0
 181 329 l 0
 175 329 174 332 171 333 c 0
 167 333 162 328 153 319 c 0
 118 284 103 238 93 175 c 0
 92 166 91 157 91 149 c 0
 91 133 94 118 100 102 c 0
 110 75 119 73 150 71 c 0
 175 71 224 100 239 118 c 0
 265 150 280 164 287 213 c 0
 288 219 289 224 289 230 c 0
 289 247 284 265 281 278 c 0
 278 286 265 312 263 312 c 0
 261 312 239 297 234 297 c 0
 231 297 217 312 215 312 c 0
 211 315 209 322 203 324 c 0
 198 326 196 330 192 332 c 1
 191 330 187 329 182 329 c 0
EndSplineSet
Comment: "char_L3_P9_x1722_y2080_x1906_y2304_bw+AD0APQAA.svg"
EndChar

StartChar: p
Encoding: 112 112 6
Width: 441
VWidth: -17
Flags: HW
AnchorPoint: "lowerrightend" 69.0204 -217.138 basechar 0
AnchorPoint: "upperright" 401 445 basechar 0
AnchorPoint: "bottom" 210.5 -208 basechar 0
AnchorPoint: "top" 210.5 445 basechar 0
LayerCount: 2
Fore
SplineSet
202 442 m 0
 205 442 208 442 211 442 c 0
 220 442 219 445 224 445 c 0
 227 445 232 444 241 441 c 0
 274 433 290 428 305 417 c 0
 310 413 316 410 317 410 c 0
 347 388 375 342 386 298 c 0
 389 285 391 290 394 277 c 0
 399 255 402 234 402 213 c 0
 402 194 400 174 395 155 c 0
 390 137 393 134 383 119 c 0
 372 100 379 107 359 86 c 0
 341 67 331 63 315 54 c 0
 292 45 260 38 230 38 c 0
 216 38 202 40 189 43 c 0
 165 48 144 54 121 65 c 2
 106 72 l 1
 106 53 l 2
 106 42 106 33 105 32 c 0
 103 30 102 -128 99 -129 c 0
 98 -134 97 -152 97 -167 c 0
 97 -169 97 -170 97 -171 c 0
 97 -186 86 -205 78 -205 c 0
 72 -207 68 -208 64 -208 c 0
 61 -208 58 -207 54 -205 c 0
 41 -200 43 -204 33 -198 c 0
 24 -194 20 -181 20 -166 c 0
 20 -159 21 -152 22 -146 c 0
 29 -63 30 129 39 221 c 0
 40 226 40 233 40 239 c 0
 40 241 40 242 40 243 c 0
 40 260 34 263 34 280 c 0
 34 284 35 290 35 297 c 0
 35 298 l 0
 35 299 l 0
 35 329 42 331 46 349 c 0
 46 355 80 395 83 399 c 0
 94 410 135 428 148 432 c 0
 153 433 156 435 157 436 c 0
 159 439 188 442 202 442 c 0
280 341 m 0
 256 365 239 369 202 369 c 0
 201 369 l 0
 166 368 126 352 113 333 c 2
 106 324 l 1
 107 311 l 2
 108 304 108 264 109 223 c 2
 111 148 l 1
 112 148 112 148 113 148 c 0
 124 148 126 146 141 138 c 0
 164 124 169 122 195 117 c 0
 208 114 220 113 232 113 c 0
 271 113 305 127 319 157 c 0
 324 166 326 181 326 199 c 0
 326 237 316 285 304 306 c 0
 295 325 293 329 280 341 c 0
EndSplineSet
Comment: "char_L3_P28_x5401_y2065_x5605_y2413_cA+AD0APQAA.svg"
EndChar

StartChar: q
Encoding: 113 113 7
Width: 442
VWidth: -63
Flags: HW
AnchorPoint: "lowerrightend" 403.526 -273.944 basechar 0
AnchorPoint: "upperright" 402 406 basechar 0
AnchorPoint: "bottom" 211 -264 basechar 0
AnchorPoint: "top" 211 406 basechar 0
LayerCount: 2
Fore
SplineSet
371 359 m 0
 395 358 399 351 399 332 c 0
 399 331 399 330 399 328 c 0
 399 308 391 261 388 256 c 0
 381 227 365 140 365 127 c 1
 367 121 368 116 368 112 c 0
 368 97 357 87 354 65 c 0
 350 32 347 -1 347 -32 c 0
 347 -92 357 -147 386 -189 c 1
 390 -186 395 -184 399 -184 c 0
 405 -184 411 -187 417 -192 c 0
 426 -200 434 -197 440 -214 c 0
 442 -216 443 -219 443 -222 c 0
 443 -238 421 -259 409 -262 c 0
 403 -263 397 -264 391 -264 c 0
 321 -264 294 -170 280 -109 c 0
 277 -99 274 -89 274 -79 c 0
 274 -76 274 -73 275 -70 c 1
 273 -56 272 -44 272 -32 c 0
 272 -16 274 0 276 18 c 1
 251 4 212 -6 175 -6 c 0
 158 -6 141 -4 126 1 c 0
 103 6 57 38 50 53 c 0
 31 78 20 115 20 153 c 0
 20 174 23 194 31 213 c 0
 34 226 40 244 44 249 c 0
 76 312 119 372 183 396 c 0
 195 402 212 406 229 406 c 0
 242 406 254 404 263 398 c 0
 283 390 300 379 316 366 c 0
 328 358 331 354 337 345 c 1
 340 356 349 360 360 360 c 0
 363 360 367 360 371 359 c 0
94 152 m 0
 94 151 94 150 94 149 c 0
 94 96 124 66 176 66 c 0
 182 66 188 66 195 67 c 0
 222 71 239 77 264 94 c 0
 284 107 287 113 289 121 c 0
 310 229 303 200 320 287 c 1
 312 292 300 294 292 301 c 0
 276 317 251 332 226 332 c 0
 214 332 202 329 190 320 c 0
 156 295 132 261 112 226 c 0
 101 207 94 179 94 152 c 0
EndSplineSet
Comment: "char_L0_P16_x6184_y171_x6448_y596_cQ+AD0APQAA.svg"
EndChar

StartChar: r
Encoding: 114 114 8
Width: 397
VWidth: 269
Flags: HW
AnchorPoint: "lowerrightend" 93.2809 -15.7191 basechar 0
AnchorPoint: "upperright" 357 426 basechar 0
AnchorPoint: "bottom" 188.5 -6 basechar 0
AnchorPoint: "top" 188.5 426 basechar 0
LayerCount: 2
Fore
SplineSet
165 421 m 0
 170 423 224 425 230 426 c 0
 242 426 307 408 323 401 c 0
 327 400 353 388 363 382 c 0
 369 377 397 353 397 342 c 0
 397 341 l 0
 397 340 l 0
 397 326 390 312 377 309 c 0
 369 308 364 302 356 302 c 0
 355 302 l 0
 335 302 313 329 295 334 c 0
 271 343 236 351 204 351 c 0
 193 351 183 350 173 348 c 0
 138 339 112 322 102 293 c 0
 102 292 102 291 104 291 c 0
 105 291 l 0
 107 291 107 283 107 276 c 0
 107 275 107 273 107 272 c 0
 107 188 111 162 114 92 c 0
 115 67 116 42 118 35 c 0
 119 29 120 23 120 19 c 0
 120 13 119 10 114 5 c 0
 106 -3 96 -6 72 -6 c 0
 56 -6 55 -5 51 -0 c 0
 45 7 43 15 40 32 c 0
 34 63 28 110 23 145 c 0
 21 158 20 173 20 220 c 2
 20 241 l 2
 20 277 20 282 24 296 c 0
 30 317 46 349 54 357 c 0
 60 361 62 372 65 376 c 0
 66 376 71 379 77 384 c 0
 94 398 126 412 165 421 c 0
EndSplineSet
Comment: "char_L3_P3_x679_y2075_x881_y2305_cg+AD0APQAA.svg"
EndChar

StartChar: s
Encoding: 115 115 9
Width: 382
VWidth: 279
Flags: HW
AnchorPoint: "lowerrightend" 229.627 26.453 basechar 0
AnchorPoint: "upperright" 342 450 basechar 0
AnchorPoint: "bottom" 181 19 basechar 0
AnchorPoint: "top" 181 450 basechar 0
LayerCount: 2
Fore
SplineSet
223 371 m 0
 220 369 216 368 213 368 c 0
 203 368 193 374 182 374 c 0
 181 374 180 374 179 374 c 0
 170 374 161 372 150 367 c 0
 131 362 110 335 100 321 c 0
 98 316 95 311 95 307 c 0
 95 305 96 302 98 300 c 1
 99 300 l 0
 106 300 115 301 128 302 c 2
 156 304 l 1
 182 318 l 2
 209 332 221 337 247 339 c 0
 276 338 275 336 290 328 c 0
 303 321 325 303 328 288 c 0
 328 286 332 279 332 276 c 0
 332 275 332 274 331 274 c 0
 333 252 343 221 343 199 c 0
 343 198 343 196 343 195 c 0
 340 150 325 120 290 87 c 0
 274 71 248 46 229 40 c 0
 203 30 172 19 136 19 c 0
 118 19 118 19 98 29 c 0
 71 41 74 48 58 66 c 0
 46 82 32 96 30 121 c 0
 29 131 28 139 28 145 c 0
 28 151 29 156 32 161 c 0
 41 172 41 173 60 175 c 0
 65 176 69 176 73 176 c 0
 84 176 89 172 91 156 c 0
 92 148 101 141 101 133 c 0
 101 127 111 113 124 101 c 0
 132 94 132 93 139 93 c 0
 140 93 141 93 142 93 c 0
 170 98 198 101 214 117 c 0
 227 130 253 148 260 166 c 0
 264 176 268 183 268 191 c 0
 268 206 260 256 256 261 c 0
 255 263 253 264 249 264 c 0
 243 264 233 261 220 254 c 0
 177 231 158 229 102 225 c 0
 85 225 74 230 61 232 c 0
 52 233 25 263 25 273 c 0
 23 282 20 293 20 305 c 0
 20 310 21 316 22 321 c 0
 32 370 64 409 107 428 c 0
 143 446 153 448 188 450 c 1
 206 447 240 440 245 423 c 1
 248 417 250 414 250 411 c 0
 250 406 245 402 240 390 c 0
 231 374 230 373 223 371 c 0
EndSplineSet
Comment: "char_L3_P29_x5615_y2062_x5788_y2292_cw+AD0APQAA.svg"
EndChar

StartChar: t
Encoding: 116 116 10
Width: 371
VWidth: 567
Flags: HW
AnchorPoint: "lowerrightend" 284.694 -0.513029 basechar 0
AnchorPoint: "upperright" 251 606 basechar 0
AnchorPoint: "bottom" 175.5 -0 basechar 0
AnchorPoint: "top" 175.5 606 basechar 0
LayerCount: 2
Fore
SplineSet
80 212 m 0
 81 246 87 303 90 334 c 0
 90 339 88 340 83 340 c 0
 79 340 73 339 66 339 c 0
 65 339 65 339 64 339 c 2
 52 339 l 2
 51 339 l 0
 39 339 24 349 23 358 c 0
 21 366 20 374 20 382 c 0
 20 386 20 389 21 392 c 0
 23 397 32 405 36 406 c 0
 41 408 90 414 96 414 c 1
 102 414 102 415 106 441 c 0
 109 458 115 494 124 522 c 0
 128 537 131 559 138 572 c 0
 140 577 141 580 141 582 c 0
 141 585 147 589 147 593 c 1
 147 596 156 605 157 606 c 2
 157 606 167 604 178 602 c 0
 197 599 204 599 204 581 c 0
 203 548 186 446 178 423 c 1
 215 423 l 2
 251 423 290 420 299 416 c 0
 306 414 310 405 310 395 c 0
 310 394 l 0
 310 386 313 386 313 380 c 0
 313 379 l 0
 313 369 309 371 308 363 c 0
 306 356 297 348 290 348 c 0
 261 348 233 348 204 348 c 0
 171 348 168 348 167 345 c 0
 163 308 154 263 154 221 c 0
 154 220 154 219 154 218 c 0
 154 146 164 110 189 86 c 0
 197 76 209 72 222 72 c 0
 241 72 261 81 274 92 c 1
 283 101 l 1
 297 100 l 2
 313 98 321 95 327 88 c 0
 330 85 331 83 331 76 c 2
 331 66 l 1
 330 46 327 41 316 31 c 0
 309 26 285 11 280 11 c 0
 266 7 242 0 224 -0 c 0
 222 0 221 0 220 0 c 0
 197 0 176 6 158 17 c 0
 126 34 97 78 91 121 c 0
 85 145 80 183 80 212 c 0
EndSplineSet
Comment: "char_L3_P7_x1444_y1979_x1610_y2302_dA+AD0APQAA.svg"
EndChar

StartChar: b
Encoding: 98 98 11
Width: 368
VWidth: 420
Flags: HW
AnchorPoint: "lowerrightend" 231.591 35.5431 basechar 0
AnchorPoint: "upperright" 328 611 basechar 0
AnchorPoint: "bottom" 174 36 basechar 0
AnchorPoint: "top" 174 611 basechar 0
LayerCount: 2
Fore
SplineSet
326 197 m 0
 326 196 326 196 326 195 c 0
 326 170 317 152 309 132 c 0
 309 127 281 84 272 76 c 0
 258 63 221 43 201 38 c 0
 195 37 184 36 174 36 c 0
 162 36 149 37 141 38 c 0
 130 40 106 49 102 53 c 0
 99 54 90 62 83 62 c 0
 82 62 80 62 79 61 c 0
 73 59 66 55 54 52 c 0
 52 52 51 53 49 54 c 0
 30 65 20 78 20 106 c 0
 20 115 21 126 23 139 c 0
 27 160 30 259 34 298 c 0
 38 336 39 431 43 480 c 1
 43 490 l 2
 43 497 43 505 45 515 c 0
 49 529 47 594 54 601 c 0
 60 610 65 611 82 611 c 0
 99 611 105 608 110 597 c 0
 113 581 114 542 114 501 c 0
 114 454 113 405 110 386 c 1
 109 371 l 1
 116 376 l 2
 130 387 149 397 163 405 c 0
 169 410 197 417 212 417 c 0
 213 417 l 0
 231 417 252 414 254 411 c 0
 257 409 262 410 265 406 c 0
 267 404 269 402 270 402 c 0
 273 402 288 388 294 380 c 0
 319 346 325 272 328 222 c 0
 328 221 328 220 328 219 c 0
 328 211 326 204 326 198 c 0
 326 197 l 0
98 149 m 0
 98 146 98 143 98 140 c 1
 116 127 l 2
 136 113 151 105 168 105 c 0
 179 105 192 109 206 116 c 0
 218 123 224 129 233 143 c 0
 250 166 255 194 255 227 c 0
 255 239 254 252 253 266 c 0
 250 307 241 336 229 343 c 0
 223 346 219 347 215 347 c 0
 208 347 201 343 187 337 c 0
 172 330 168 327 156 315 c 0
 137 299 118 252 114 228 c 0
 113 220 98 160 98 149 c 0
EndSplineSet
Comment: "char_L2_P17_x3532_y1375_x3704_y1695_Yg+AD0APQAA.svg"
EndChar

StartChar: u
Encoding: 117 117 12
Width: 419
VWidth: 236
Flags: HW
AnchorPoint: "lowerrightend" 283.49 23.6787 basechar 0
AnchorPoint: "upperright" 379 422 basechar 0
AnchorPoint: "bottom" 199.5 8 basechar 0
AnchorPoint: "top" 199.5 422 basechar 0
LayerCount: 2
Fore
SplineSet
79 414 m 1
 81 416 83 417 85 417 c 0
 89 417 94 414 105 410 c 0
 123 402 130 400 130 391 c 0
 130 388 129 385 128 381 c 0
 124 364 129 369 122 349 c 0
 116 330 107 294 106 283 c 0
 103 248 96 230 96 209 c 0
 97 161 96 116 118 94 c 0
 127 84 130 84 162 83 c 0
 191 83 227 91 248 102 c 0
 282 121 293 137 299 179 c 0
 303 211 305 202 305 229 c 0
 305 232 305 236 305 241 c 0
 305 247 305 253 305 258 c 0
 305 290 304 288 301 319 c 0
 300 343 297 352 286 377 c 0
 284 382 283 385 283 388 c 0
 283 390 283 392 284 395 c 0
 286 401 288 403 302 411 c 0
 315 419 318 422 327 422 c 0
 330 422 334 422 339 421 c 0
 344 420 353 407 360 392 c 0
 383 347 378 305 380 237 c 0
 380 232 380 228 380 224 c 0
 380 196 379 200 374 171 c 0
 369 135 358 105 344 87 c 0
 332 72 316 55 312 54 c 0
 310 54 308 53 306 51 c 0
 292 37 227 16 188 9 c 0
 179 8 170 8 162 8 c 0
 96 8 52 35 35 92 c 0
 25 124 20 158 20 192 c 0
 20 209 21 226 24 243 c 0
 28 264 28 300 36 313 c 0
 41 325 45 345 48 358 c 0
 48 365 63 400 67 405 c 0
 72 410 77 415 78 415 c 2
 79 414 l 1
EndSplineSet
Comment: "char_L3_P14_x2656_y2077_x2847_y2298_dQ+AD0APQAA.svg"
EndChar

StartChar: v
Encoding: 118 118 13
Width: 404
VWidth: 212
Flags: HW
AnchorPoint: "lowerrightend" 176.067 -26.1271 basechar 0
AnchorPoint: "upperright" 364 426 basechar 0
AnchorPoint: "bottom" 192 -17 basechar 0
AnchorPoint: "top" 192 426 basechar 0
LayerCount: 2
Fore
SplineSet
84 376 m 0
 85 372 92 362 92 355 c 0
 92 354 l 0
 92 351 94 343 97 335 c 0
 110 308 148 142 156 128 c 0
 157 126 160 116 163 107 c 2
 168 91 l 1
 187 127 l 1
 226 211 221 197 261 318 c 0
 273 356 286 391 288 397 c 0
 291 405 305 421 311 425 c 1
 311 424 l 1
 313 424 317 426 320 426 c 0
 321 426 322 426 323 425 c 0
 329 423 359 405 361 402 c 0
 363 399 364 395 364 392 c 0
 364 387 362 382 360 376 c 0
 357 370 343 330 329 288 c 0
 294 179 293 177 248 87 c 0
 233 57 221 32 221 31 c 0
 220 26 201 -2 195 -7 c 0
 195 -9 177 -13 169 -16 c 1
 165 -16 159 -17 155 -17 c 0
 151 -17 148 -16 145 -14 c 0
 135 -9 117 10 115 18 c 0
 98 64 72 141 62 188 c 0
 50 236 40 279 27 327 c 0
 25 333 20 362 20 379 c 0
 20 385 21 390 23 391 c 0
 30 401 38 404 55 404 c 0
 56 404 57 404 58 404 c 0
 69 404 75 402 75 397 c 0
 75 392 78 393 78 388 c 0
 78 387 l 0
 78 383 84 379 84 376 c 0
EndSplineSet
Comment: "char_L3_P17_x3218_y2075_x3401_y2311_dg+AD0APQAA.svg"
EndChar

StartChar: w
Encoding: 119 119 14
Width: 465
VWidth: 189
Flags: HW
AnchorPoint: "lowerrightend" 303.044 -10 basechar 0
AnchorPoint: "upperright" 425 467 basechar 0
AnchorPoint: "bottom" 222.5 0 basechar 0
AnchorPoint: "top" 222.5 467 basechar 0
LayerCount: 2
Fore
SplineSet
353 388 m 0
 353 390 353 391 353 392 c 0
 353 411 347 403 347 422 c 0
 347 434 350 450 354 454 c 0
 361 460 368 467 377 467 c 0
 380 467 382 466 385 465 c 0
 391 460 395 464 400 460 c 0
 416 453 426 431 426 403 c 0
 425 397 424 390 424 382 c 0
 424 378 424 375 425 371 c 0
 425 342 419 245 419 235 c 0
 418 203 405 147 394 120 c 0
 393 119 389 109 385 98 c 0
 375 72 362 51 349 38 c 0
 334 22 343 27 321 12 c 2
 302 0 l 1
 286 0 l 2
 270 0 260 2 260 6 c 0
 260 7 258 7 257 7 c 0
 240 9 214 51 209 61 c 0
 205 71 195 98 192 110 c 0
 191 110 186 103 182 94 c 0
 171 67 143 30 110 29 c 0
 109 29 108 29 107 29 c 0
 80 29 54 52 45 80 c 0
 45 81 45 81 45 82 c 0
 37 91 25 146 25 172 c 0
 21 212 20 216 20 271 c 0
 20 304 20 338 20 371 c 1
 25 381 l 2
 32 394 35 396 52 396 c 0
 73 396 80 391 80 376 c 0
 80 372 80 369 81 368 c 0
 84 368 91 216 95 194 c 0
 98 168 100 127 108 111 c 1
 109 111 l 1
 131 132 147 210 164 230 c 0
 174 245 181 251 195 251 c 0
 198 251 203 251 207 250 c 0
 222 249 225 239 233 231 c 0
 243 222 241 179 249 166 c 0
 256 145 265 100 275 88 c 0
 280 79 281 75 284 75 c 0
 286 75 289 78 294 83 c 0
 312 102 321 120 335 168 c 0
 343 196 346 212 347 249 c 0
 350 300 352 327 353 388 c 0
EndSplineSet
Comment: "char_L2_P4_x946_y1455_x1173_y1715_dw+AD0APQAA.svg"
EndChar

StartChar: x
Encoding: 120 120 15
Width: 411
VWidth: 117
Flags: HW
AnchorPoint: "lowerrightend" 333.548 -19.2221 basechar 0
AnchorPoint: "upperright" 371 409 basechar 0
AnchorPoint: "bottom" 195.5 -10 basechar 0
AnchorPoint: "top" 195.5 409 basechar 0
LayerCount: 2
Fore
SplineSet
53 10 m 0
 45 14 20 19 20 41 c 0
 20 42 20 43 20 44 c 0
 20 64 40 91 45 95 c 0
 66 126 86 142 110 174 c 2
 116 182 l 1
 96 203 l 2
 75 225 75 225 68 238 c 0
 49 262 44 272 33 300 c 0
 25 314 22 333 22 353 c 0
 22 360 22 366 23 373 c 0
 26 382 31 384 45 388 c 2
 55 391 l 1
 70 387 77 368 83 353 c 0
 92 325 128 271 159 240 c 1
 169 255 l 1
 195 290 227 337 257 378 c 0
 275 403 273 404 292 409 c 0
 293 409 l 0
 294 409 295 409 296 408 c 0
 310 401 335 394 335 376 c 0
 335 373 334 369 332 365 c 0
 319 339 311 335 296 311 c 0
 269 271 238 231 215 195 c 0
 217 192 223 188 236 177 c 0
 299 123 310 122 360 51 c 0
 369 37 372 35 372 27 c 0
 372 26 372 26 372 25 c 0
 372 20 371 19 369 17 c 0
 362 8 343 -10 328 -10 c 0
 325 -10 322 -9 320 -7 c 0
 313 -3 301 11 289 29 c 0
 277 48 219 101 171 137 c 1
 147 105 129 86 90 40 c 0
 82 28 67 18 56 11 c 0
 55 10 54 10 53 10 c 0
EndSplineSet
Comment: "char_L0_P23_x9273_y169_x9492_y431_eA+AD0APQAA.svg"
EndChar

StartChar: y
Encoding: 121 121 16
Width: 408
VWidth: -8
Flags: HW
AnchorPoint: "lowerrightend" 252.374 -170.498 basechar 0
AnchorPoint: "upperright" 366 366 basechar 0
AnchorPoint: "bottom" 193 -170 basechar 0
AnchorPoint: "top" 193 366 basechar 0
LayerCount: 2
Fore
SplineSet
350 329 m 0
 350 328 350 328 350 327 c 0
 350 319 348 307 348 298 c 0
 348 297 348 296 348 295 c 0
 348 263 356 241 361 207 c 0
 364 184 366 158 366 132 c 0
 366 69 357 4 344 -35 c 0
 331 -73 307 -128 269 -149 c 0
 244 -163 212 -170 178 -170 c 0
 149 -170 119 -165 93 -155 c 0
 45 -136 20 -126 -4 -104 c 0
 -12 -96 -20 -80 -20 -63 c 0
 -20 -60 -20 -56 -19 -53 c 1
 -12 -40 -3 -36 9 -35 c 0
 27 -39 74 -76 95 -81 c 0
 121 -90 133 -95 176 -98 c 1
 188 -98 l 2
 220 -98 224 -88 242 -79 c 1
 270 -45 279 -11 292 52 c 0
 293 55 294 73 295 90 c 1
 295 105 l 1
 269 72 232 42 194 23 c 0
 176 12 167 15 152 9 c 0
 145 6 137 5 129 5 c 0
 98 5 67 23 57 41 c 0
 39 74 25 116 25 165 c 0
 25 213 29 290 34 315 c 0
 41 350 39 351 46 358 c 0
 50 364 59 366 68 366 c 0
 69 366 69 366 70 366 c 0
 104 366 102 349 103 311 c 0
 101 271 96 226 96 183 c 0
 96 151 99 120 108 94 c 0
 111 87 120 78 123 77 c 0
 185 83 258 151 270 209 c 1
 278 221 272 311 277 325 c 1
 277 326 277 326 277 327 c 0
 277 356 299 355 320 360 c 0
 333 359 350 347 350 331 c 0
 350 330 350 330 350 329 c 0
EndSplineSet
Comment: "char_L0_P24_x9737_y197_x9980_y534_eQ+AD0APQAA.svg"
EndChar

StartChar: z
Encoding: 122 122 17
Width: 425
VWidth: 121
Flags: HW
AnchorPoint: "lowerrightend" 354.641 1.11063 basechar 0
AnchorPoint: "upperright" 385 392 basechar 0
AnchorPoint: "bottom" 202.5 3 basechar 0
AnchorPoint: "top" 202.5 392 basechar 0
LayerCount: 2
Fore
SplineSet
319 16 m 0
 299 20 277 22 255 22 c 0
 193 22 128 9 76 3 c 0
 62 3 40 12 38 21 c 1
 33 28 29 40 29 52 c 0
 29 58 30 63 32 68 c 0
 42 89 47 102 64 118 c 0
 126 178 186 244 243 310 c 0
 246 312 248 314 254 319 c 1
 245 319 84 316 64 314 c 0
 46 314 27 318 24 336 c 0
 24 338 20 350 20 361 c 0
 20 369 22 376 29 378 c 0
 32 380 39 386 50 386 c 0
 51 386 53 386 54 386 c 0
 55 386 l 0
 65 386 88 389 106 389 c 0
 111 389 116 389 120 388 c 1
 173 391 193 392 237 392 c 2
 300 392 l 2
 333 392 359 389 365 381 c 1
 373 377 374 368 376 366 c 0
 379 361 385 354 385 346 c 0
 385 343 384 340 382 337 c 0
 380 329 369 317 363 314 c 0
 282 246 223 159 142 85 c 1
 177 90 217 95 256 95 c 0
 285 95 314 92 339 83 c 0
 351 80 381 82 381 54 c 0
 379 45 384 22 368 17 c 1
 361 13 355 11 348 11 c 0
 340 11 331 13 319 16 c 0
EndSplineSet
Comment: "char_L0_P25_x10220_y180_x10448_y423_eg+AD0APQAA.svg"
EndChar

StartChar: c
Encoding: 99 99 18
Width: 385
VWidth: 296
Flags: HW
AnchorPoint: "lowerrightend" 309.099 35.8628 basechar 0
AnchorPoint: "upperright" 345 473 basechar 0
AnchorPoint: "bottom" 182.5 21 basechar 0
AnchorPoint: "top" 182.5 473 basechar 0
LayerCount: 2
Fore
SplineSet
184 466 m 0
 193 469 203 473 219 473 c 0
 220 473 220 473 221 473 c 0
 235 473 249 470 253 467 c 0
 263 461 283 453 290 437 c 0
 298 424 319 394 321 385 c 0
 324 377 327 371 327 364 c 0
 327 360 326 355 323 350 c 1
 322 339 308 333 298 331 c 0
 296 331 294 332 294 334 c 0
 292 337 279 342 276 344 c 0
 268 350 246 383 238 391 c 0
 231 399 229 400 223 400 c 0
 202 400 154 347 129 295 c 0
 120 276 116 262 109 248 c 0
 102 237 97 205 97 175 c 0
 98 128 107 93 153 93 c 0
 190 95 235 105 269 114 c 0
 294 120 302 124 312 124 c 0
 315 124 319 123 324 122 c 0
 331 120 346 92 346 81 c 0
 346 72 341 66 332 61 c 0
 322 56 328 54 314 51 c 0
 308 49 302 48 301 47 c 0
 297 43 239 28 225 28 c 0
 223 28 219 28 216 27 c 0
 205 23 182 21 160 21 c 0
 146 21 132 22 122 23 c 0
 108 25 87 33 87 37 c 0
 87 38 86 38 84 38 c 0
 79 38 52 64 45 76 c 0
 29 100 20 135 20 172 c 0
 20 182 21 192 22 202 c 0
 26 226 35 270 38 273 c 0
 62 329 88 381 130 426 c 0
 142 439 178 466 184 466 c 0
EndSplineSet
Comment: "char_L3_P25_x4749_y2050_x4923_y2291_Yw+AD0APQAA.svg"
EndChar

StartChar: d
Encoding: 100 100 19
Width: 427
VWidth: 452
Flags: HW
AnchorPoint: "lowerrightend" 341.35 41.3456 basechar 0
AnchorPoint: "upperright" 387 649 basechar 0
AnchorPoint: "bottom" 203.5 31 basechar 0
AnchorPoint: "top" 203.5 649 basechar 0
LayerCount: 2
Fore
SplineSet
321 51 m 0
 320 51 319 51 318 51 c 0
 308 51 304 55 299 55 c 0
 297 55 294 54 291 52 c 0
 278 46 250 41 234 38 c 0
 230 35 181 31 161 31 c 0
 115 31 79 43 49 70 c 0
 39 78 25 106 21 126 c 0
 20 132 20 139 20 147 c 0
 20 182 26 228 34 244 c 0
 35 245 38 251 40 257 c 0
 59 307 97 360 147 381 c 0
 152 382 174 393 183 393 c 0
 184 393 l 0
 199 395 229 401 253 401 c 0
 262 401 270 400 277 398 c 0
 287 393 292 395 303 389 c 1
 305 465 322 621 331 624 c 0
 332 625 333 628 333 631 c 0
 333 639 336 636 340 643 c 0
 342 648 346 649 350 649 c 0
 356 649 362 646 366 646 c 0
 377 646 382 639 388 633 c 1
 386 612 l 2
 379 531 379 430 373 347 c 0
 370 317 369 288 369 259 c 0
 369 230 370 200 370 170 c 0
 370 148 369 127 368 104 c 0
 367 77 361 57 353 54 c 0
 350 53 334 51 321 51 c 0
290 136 m 2
 290 162 294 207 294 242 c 0
 294 258 293 271 291 281 c 0
 286 304 276 323 266 328 c 0
 261 330 254 331 247 331 c 0
 235 331 222 329 211 327 c 0
 190 323 165 313 151 302 c 0
 123 278 91 218 91 162 c 0
 91 157 91 151 92 146 c 0
 95 121 100 114 121 106 c 0
 129 103 136 102 159 101 c 1
 170 101 l 2
 209 101 263 115 278 122 c 2
 290 127 l 1
 290 136 l 2
EndSplineSet
Comment: "char_L2_P7_x1559_y1354_x1764_y1698_ZA+AD0APQAA.svg"
EndChar

StartChar: e
Encoding: 101 101 20
Width: 432
VWidth: 280
Flags: HW
AnchorPoint: "lowerrightend" 284.637 12.6128 basechar 0
AnchorPoint: "upperright" 392 445 basechar 0
AnchorPoint: "bottom" 206 11 basechar 0
AnchorPoint: "top" 206 445 basechar 0
LayerCount: 2
Fore
SplineSet
27 116 m 0
 25 128 20 146 20 163 c 0
 20 165 20 166 20 168 c 0
 20 169 20 169 20 170 c 0
 20 230 47 313 79 346 c 0
 83 350 88 356 89 359 c 0
 94 371 138 409 162 421 c 0
 198 438 210 442 254 445 c 0
 255 445 255 445 256 445 c 0
 272 445 284 440 297 436 c 0
 312 432 345 412 359 398 c 0
 383 374 392 352 392 318 c 2
 392 305 l 1
 391 282 386 269 375 251 c 0
 367 239 345 214 342 214 c 0
 324 208 309 201 285 200 c 0
 258 197 201 192 157 192 c 0
 147 192 137 192 129 193 c 0
 121 195 119 200 110 200 c 0
 109 200 109 200 108 200 c 0
 101 200 98 207 94 212 c 1
 91 202 89 176 89 161 c 0
 89 160 89 159 89 158 c 0
 89 155 92 146 95 138 c 0
 100 117 134 86 155 84 c 0
 160 83 166 83 173 83 c 0
 202 83 240 88 261 92 c 0
 273 95 279 96 285 96 c 0
 289 96 293 95 301 94 c 0
 310 93 313 90 320 76 c 0
 323 69 324 64 324 60 c 0
 324 59 l 0
 324 51 318 53 316 46 c 0
 310 35 303 33 292 29 c 0
 268 18 226 11 186 11 c 0
 160 11 135 14 118 21 c 0
 89 34 63 53 49 73 c 0
 38 88 28 109 27 116 c 0
311 343 m 1
 301 356 278 375 253 375 c 0
 252 375 252 375 251 375 c 0
 236 375 220 370 199 360 c 0
 174 348 159 336 138 309 c 0
 126 293 111 267 111 263 c 2
 111 263 113 262 116 262 c 0
 139 262 237 274 261 275 c 0
 297 277 298 277 306 287 c 0
 312 292 315 305 315 318 c 0
 315 327 314 337 311 343 c 1
EndSplineSet
Comment: "char_L3_P4_x863_y2065_x1062_y2296_ZQ+AD0APQAA.svg"
EndChar

StartChar: f
Encoding: 102 102 21
Width: 403
VWidth: 385
Flags: HW
AnchorPoint: "lowerrightend" 171.623 -14.4011 basechar 0
AnchorPoint: "upperright" 363 592 basechar 0
AnchorPoint: "bottom" 191.5 -6 basechar 0
AnchorPoint: "top" 191.5 592 basechar 0
LayerCount: 2
Fore
SplineSet
68 304 m 0
 34 305 15 309 4 320 c 1
 3 320 0 336 -0 342 c 0
 0 343 -0 344 -0 344 c 0
 0 348 1 350 3 354 c 0
 10 366 14 369 30 372 c 0
 52 377 66 379 83 380 c 2
 99 381 l 1
 99 406 l 1
 100 433 103 461 106 464 c 0
 111 473 113 496 116 501 c 0
 120 511 119 507 128 522 c 0
 146 552 156 562 182 575 c 0
 193 581 206 585 211 586 c 0
 224 588 216 591 231 592 c 1
 244 592 l 2
 259 592 278 591 284 590 c 0
 329 579 380 562 399 528 c 0
 400 521 404 515 404 509 c 0
 404 507 403 505 402 503 c 0
 398 494 387 484 379 482 c 0
 371 481 366 475 359 475 c 0
 357 475 356 475 354 476 c 0
 347 477 343 478 335 486 c 0
 327 494 321 498 305 504 c 0
 286 514 268 512 242 514 c 0
 223 513 211 507 202 495 c 0
 191 480 192 482 185 456 c 0
 179 432 178 431 176 400 c 2
 175 380 l 1
 194 381 l 2
 224 383 240 384 248 384 c 0
 257 384 257 383 260 380 c 0
 268 373 272 365 273 345 c 2
 274 327 l 1
 266 320 l 2
 257 311 253 311 187 306 c 2
 175 305 l 1
 176 296 l 2
 179 271 186 160 191 117 c 0
 194 101 195 81 196 47 c 1
 196 29 l 2
 196 12 193 11 186 0 c 0
 185 -2 150 -6 144 -6 c 0
 139 -6 138 -4 134 -2 c 0
 119 5 118 36 116 57 c 0
 115 117 108 161 105 216 c 0
 104 256 101 242 99 278 c 0
 99 291 98 302 97 303 c 0
 96 304 83 304 68 304 c 0
EndSplineSet
Comment: "char_L1_P53_x9550_y790_x9760_y1100_Zg+AD0APQAA.svg"
EndChar

StartChar: g
Encoding: 103 103 22
Width: 426
VWidth: -95
Flags: HW
AnchorPoint: "lowerrightend" 248.217 -234.782 basechar 0
AnchorPoint: "upperright" 386 418 basechar 0
AnchorPoint: "bottom" 203 -240 basechar 0
AnchorPoint: "top" 203 418 basechar 0
LayerCount: 2
Fore
SplineSet
-22 -45 m 0
 -21 -45 l 0
 -19 -45 -17 -48 -17 -52 c 0
 -17 -54 -17 -56 -18 -58 c 0
 -18 -60 -18 -61 -15 -61 c 0
 -7 -63 0 -69 5 -81 c 0
 10 -92 30 -115 43 -126 c 0
 72 -149 123 -167 166 -167 c 0
 167 -167 l 0
 194 -167 226 -153 246 -131 c 0
 278 -96 305 -27 312 50 c 0
 312 52 312 53 311 53 c 0
 310 53 308 50 305 49 c 0
 295 39 269 28 252 21 c 0
 240 16 213 12 189 12 c 0
 173 12 159 14 150 18 c 0
 145 22 135 23 132 26 c 0
 132 27 131 27 131 27 c 0
 130 27 l 0
 121 27 85 59 74 76 c 0
 69 83 56 112 50 128 c 0
 43 142 41 165 41 189 c 0
 41 222 46 257 52 275 c 0
 68 309 78 344 108 365 c 0
 139 392 169 418 226 418 c 0
 228 418 229 418 231 418 c 0
 249 418 266 416 273 412 c 0
 277 409 282 411 286 408 c 0
 288 406 300 402 305 401 c 0
 314 397 342 381 346 368 c 0
 350 358 362 349 362 334 c 0
 362 333 362 332 362 331 c 0
 362 330 362 329 362 328 c 0
 362 317 357 303 349 288 c 0
 349 285 354 286 360 284 c 0
 362 284 379 267 382 262 c 0
 385 253 386 238 386 223 c 0
 386 201 384 177 382 163 c 1
 384 136 386 97 386 63 c 0
 386 50 386 38 385 28 c 0
 372 -44 363 -88 327 -146 c 0
 319 -159 303 -177 292 -189 c 0
 289 -192 287 -195 287 -196 c 0
 278 -205 234 -231 213 -232 c 0
 211 -232 209 -232 209 -233 c 0
 207 -235 166 -240 153 -240 c 0
 152 -240 l 0
 126 -240 106 -234 82 -228 c 0
 78 -228 37 -209 18 -198 c 0
 -12 -177 -57 -145 -59 -100 c 1
 -60 -97 -60 -94 -60 -91 c 0
 -60 -74 -48 -60 -36 -59 c 0
 -33 -59 -22 -48 -22 -45 c 0
300 270 m 0
 301 275 302 281 302 287 c 0
 302 298 300 310 298 318 c 0
 292 329 271 340 250 343 c 0
 239 345 234 347 229 347 c 0
 155 336 117 278 116 193 c 0
 116 156 127 126 148 105 c 0
 161 92 176 86 194 86 c 0
 202 86 209 87 218 89 c 0
 247 92 277 122 287 136 c 0
 291 142 300 170 303 177 c 0
 304 179 304 186 304 196 c 2
 304 216 l 2
 304 232 304 248 306 249 c 0
 307 252 308 254 308 256 c 0
 308 263 300 262 300 270 c 0
EndSplineSet
Comment: "char_L3_P5_x1006_y2079_x1245_y2430_Zw+AD0APQAA.svg"
EndChar

StartChar: h
Encoding: 104 104 23
Width: 358
VWidth: 513
Flags: HW
AnchorPoint: "lowerrightend" 291.808 17.625 basechar 0
AnchorPoint: "upperright" 318 586 basechar 0
AnchorPoint: "bottom" 169 25 basechar 0
AnchorPoint: "top" 169 586 basechar 0
LayerCount: 2
Fore
SplineSet
20 140 m 0
 23 208 27 294 27 371 c 0
 27 391 27 411 26 430 c 0
 25 431 25 432 25 434 c 0
 25 436 26 438 27 439 c 0
 28 440 28 446 28 458 c 2
 28 489 l 2
 28 500 27 510 27 519 c 0
 27 563 31 579 41 584 c 0
 44 585 52 586 60 586 c 0
 73 586 74 586 80 580 c 2
 87 574 l 1
 88 552 l 1
 94 491 99 410 100 339 c 1
 103 343 108 344 111 351 c 0
 113 358 138 381 140 381 c 1
 156 392 175 400 198 405 c 0
 206 407 213 409 214 410 c 0
 215 410 l 0
 223 410 240 407 252 405 c 0
 258 404 271 393 277 392 c 0
 281 392 292 374 295 372 c 0
 312 346 318 300 318 256 c 2
 318 233 l 1
 317 214 317 176 317 139 c 2
 317 123 l 2
 317 84 317 51 316 51 c 1
 316 50 l 0
 316 39 304 29 298 27 c 1
 297 28 l 1
 297 27 l 0
 297 26 l 0
 297 25 296 25 295 25 c 0
 295 25 295 25 294 25 c 0
 290 25 280 28 268 32 c 0
 248 40 245 41 245 53 c 0
 245 54 245 56 245 57 c 2
 245 80 l 2
 245 81 l 0
 245 120 246 164 246 208 c 0
 246 247 245 284 242 317 c 0
 242 328 233 333 226 338 c 1
 210 335 l 2
 189 331 174 321 164 306 c 0
 144 275 130 241 117 192 c 0
 107 152 104 134 103 113 c 0
 100 87 98 64 81 59 c 0
 74 57 71 52 61 52 c 0
 56 52 52 54 42 62 c 0
 27 73 26 75 23 95 c 0
 21 109 20 122 20 140 c 0
EndSplineSet
Comment: "char_L2_P36_x7146_y1389_x7313_y1701_aA+AD0APQAA.svg"
EndChar

StartChar: i
Encoding: 105 105 24
Width: 227
VWidth: 369
Flags: HW
AnchorPoint: "lowerrightend" 110.319 28 basechar 0
AnchorPoint: "upperright" 187 490 basechar 0
AnchorPoint: "bottom" 103.5 38 basechar 0
AnchorPoint: "top" 103.5 490 basechar 0
LayerCount: 2
Fore
SplineSet
149 404 m 0
 140 404 128 415 118 415 c 0
 117 415 117 415 116 415 c 0
 112 415 108 413 104 411 c 0
 96 406 90 410 82 406 c 0
 73 402 70 404 59 399 c 0
 54 397 50 396 47 396 c 0
 45 396 44 396 42 397 c 0
 36 399 33 400 27 412 c 0
 23 421 20 429 20 436 c 0
 20 444 23 451 32 456 c 0
 36 458 42 463 45 465 c 0
 60 476 91 490 120 490 c 0
 127 490 134 489 141 487 c 0
 167 477 163 479 177 468 c 0
 185 461 186 463 187 453 c 0
 187 446 181 432 180 427 c 0
 180 422 169 413 167 409 c 0
 166 406 152 404 149 404 c 0
124 302 m 0
 128 292 130 276 130 259 c 0
 130 234 127 207 126 188 c 0
 126 163 129 139 131 115 c 0
 133 94 134 89 139 80 c 2
 144 69 l 1
 142 63 138 53 133 52 c 0
 131 51 126 48 122 44 c 0
 115 38 114 38 102 38 c 0
 100 38 99 38 97 38 c 0
 53 38 60 109 52 148 c 0
 51 152 51 162 51 176 c 2
 51 201 l 1
 54 263 57 305 72 321 c 1
 91 321 l 2
 107 321 111 320 116 317 c 0
 123 313 122 309 124 302 c 0
EndSplineSet
Comment: "char_L3_P8_x1622_y2041_x1712_y2282_aQ+AD0APQAA.svg"
EndChar

StartChar: j
Encoding: 106 106 25
Width: 288
VWidth: 31
Flags: HW
AnchorPoint: "lowerrightend" 130.243 -187.492 basechar 0
AnchorPoint: "upperright" 248 546 basechar 0
AnchorPoint: "bottom" 134 -191 basechar 0
AnchorPoint: "top" 134 546 basechar 0
LayerCount: 2
Fore
SplineSet
130 489 m 0
 137 508 136 524 154 533 c 0
 163 539 177 546 190 546 c 0
 199 546 207 543 212 534 c 0
 213 533 216 528 219 525 c 0
 235 510 240 505 240 490 c 0
 240 489 240 488 240 487 c 0
 240 461 232 458 226 446 c 0
 214 433 203 414 178 414 c 0
 177 414 176 414 175 414 c 0
 145 415 126 439 126 467 c 0
 126 474 127 482 130 489 c 0
154 331 m 0
 154 333 154 336 154 338 c 0
 154 367 173 370 199 373 c 0
 213 373 215 366 221 358 c 1
 236 274 248 187 248 97 c 0
 248 62 246 26 242 -10 c 0
 239 -39 229 -57 222 -77 c 0
 212 -106 190 -127 168 -149 c 0
 160 -162 128 -172 116 -180 c 0
 106 -183 90 -186 82 -189 c 0
 79 -190 74 -191 69 -191 c 0
 55 -191 37 -186 30 -184 c 0
 30 -185 29 -185 28 -185 c 0
 26 -185 24 -184 24 -184 c 0
 -5 -171 -27 -158 -51 -138 c 0
 -60 -132 -60 -117 -61 -103 c 0
 -61 -85 -41 -74 -23 -74 c 0
 -13 -74 -3 -77 3 -85 c 0
 13 -102 36 -112 60 -115 c 0
 74 -115 122 -93 126 -84 c 0
 153 -48 174 -23 174 39 c 0
 174 42 174 45 174 48 c 0
 175 72 175 94 175 116 c 0
 175 159 173 199 167 235 c 0
 167 248 161 244 161 266 c 0
 161 266 161 266 161 267 c 0
 159 295 154 289 154 331 c 0
EndSplineSet
Comment: "char_L0_P9_x3083_y81_x3275_y547_ag+AD0APQAA.svg"
EndChar

StartChar: Eacute
Encoding: 201 201 26
Width: 395
VWidth: 195
Flags: HW
LayerCount: 2
Fore
SplineSet
221 662 m 0
 271 704 260 698 284 704 c 0
 290 704 293 701 303 692 c 0
 317 677 320 676 320 666 c 0
 320 665 320 665 320 664 c 0
 319 637 288 622 270 601 c 0
 249 581 228 566 205 542 c 0
 200 536 175 513 172 511 c 0
 166 509 153 493 141 493 c 0
 140 493 139 493 138 493 c 0
 137 493 136 493 135 493 c 0
 122 493 122 497 110 510 c 0
 97 525 96 526 96 535 c 0
 96 544 97 544 113 561 c 0
 145 594 150 600 221 662 c 0
26 46 m 0
 20 63 21 82 21 122 c 0
 21 199 26 314 26 365 c 0
 26 376 26 388 26 399 c 0
 26 403 25 407 25 410 c 0
 25 424 31 429 53 437 c 0
 71 444 86 449 93 449 c 0
 93 449 l 0
 171 458 182 467 243 467 c 2
 263 467 l 2
 315 467 312 467 323 453 c 0
 327 447 328 444 329 429 c 1
 329 419 l 2
 329 412 328 410 323 404 c 0
 312 391 310 390 272 390 c 0
 185 389 173 384 107 373 c 0
 101 372 100 372 100 363 c 0
 101 346 104 354 104 333 c 0
 104 332 104 331 104 330 c 2
 104 309 l 1
 103 269 l 1
 121 272 151 275 168 275 c 0
 176 275 181 274 182 273 c 0
 188 270 199 270 204 264 c 0
 212 256 218 246 218 236 c 0
 218 231 216 225 212 220 c 0
 207 214 206 212 204 207 c 0
 201 200 193 197 184 197 c 0
 180 197 176 197 172 197 c 0
 158 197 133 195 113 192 c 2
 98 190 l 1
 98 136 l 2
 99 83 97 84 104 78 c 1
 103 77 l 1
 107 75 108 69 108 62 c 0
 108 61 108 61 108 60 c 0
 108 59 109 59 110 59 c 0
 111 59 111 59 112 59 c 0
 113 59 l 0
 175 65 241 81 309 81 c 0
 310 81 l 0
 324 81 335 80 338 79 c 0
 344 75 353 69 353 58 c 0
 352 56 352 54 352 52 c 0
 352 46 354 39 355 35 c 0
 355 21 342 5 321 5 c 0
 320 5 318 5 317 5 c 0
 245 4 149 -21 73 -21 c 0
 71 -21 70 -21 69 -21 c 0
 39 -21 29 -16 21 1 c 0
 20 4 20 7 20 11 c 0
 20 22 22 36 24 41 c 0
 25 43 26 44 26 46 c 0
EndSplineSet
Comment: "char_L10_P0_x3701_y5713_x3877_y6093_w4k+AD0A.svg"
EndChar

StartChar: Ohungarumlaut
Encoding: 336 336 27
Width: 461
VWidth: 207
Flags: HW
LayerCount: 2
Fore
SplineSet
303 663 m 0
 306 664 349 706 353 706 c 0
 357 707 359 708 362 708 c 0
 371 708 377 701 391 688 c 0
 396 683 397 682 397 676 c 0
 397 675 397 674 397 673 c 0
 396 660 396 659 388 650 c 0
 384 645 381 641 381 639 c 0
 381 635 360 613 352 609 c 0
 342 605 326 579 318 579 c 0
 317 579 313 575 309 571 c 0
 296 558 293 554 280 553 c 0
 276 553 273 554 266 559 c 0
 248 571 244 576 244 586 c 0
 244 587 l 0
 244 588 243 589 243 590 c 0
 243 598 254 607 255 611 c 0
 255 614 280 645 285 648 c 0
 290 650 298 661 303 663 c 0
125 558 m 0
 115 558 90 575 90 586 c 0
 90 587 90 587 90 588 c 0
 90 592 91 597 93 602 c 0
 106 635 147 668 173 695 c 0
 177 699 185 702 191 703 c 0
 193 703 216 686 220 682 c 0
 222 679 223 676 223 672 c 0
 223 666 220 659 217 652 c 0
 209 637 176 607 166 593 c 0
 154 577 155 580 143 569 c 0
 136 562 130 558 125 558 c 0
179 495 m 0
 180 495 182 495 183 495 c 0
 198 495 203 508 216 508 c 0
 217 508 218 508 219 508 c 0
 232 508 231 512 237 512 c 0
 292 501 340 484 369 445 c 0
 381 429 399 388 401 370 c 0
 409 336 413 308 421 247 c 0
 422 242 422 235 422 227 c 0
 422 202 419 169 416 163 c 0
 414 160 413 157 413 155 c 0
 413 149 401 117 398 113 c 0
 393 108 389 97 384 92 c 0
 382 90 381 87 381 86 c 0
 381 83 353 56 342 48 c 0
 313 27 265 3 245 0 c 0
 230 -3 220 -6 195 -6 c 0
 193 -6 192 -6 190 -6 c 0
 172 -6 155 -5 152 -3 c 0
 122 8 96 22 71 49 c 0
 61 59 54 68 54 69 c 0
 37 111 21 132 21 187 c 0
 21 202 20 207 20 213 c 0
 20 214 20 214 20 215 c 0
 20 261 39 336 53 363 c 0
 60 375 74 406 84 419 c 0
 96 437 135 476 146 482 c 0
 156 486 165 495 179 495 c 0
101 231 m 0
 101 230 101 229 101 228 c 0
 101 220 99 221 99 213 c 0
 99 212 99 212 99 211 c 0
 99 194 101 160 104 150 c 0
 106 144 111 131 116 121 c 0
 129 94 142 84 174 72 c 0
 181 70 184 69 189 69 c 0
 192 69 195 69 200 70 c 0
 232 74 272 90 292 107 c 0
 309 123 315 122 326 146 c 0
 338 172 341 183 341 213 c 0
 341 214 341 215 341 216 c 0
 341 270 327 356 313 388 c 0
 308 399 294 413 286 416 c 0
 280 417 261 428 256 430 c 1
 256 430 252 425 247 419 c 0
 241 412 237 409 232 409 c 0
 229 409 225 410 220 412 c 0
 209 417 211 413 200 418 c 0
 196 420 194 420 192 420 c 0
 191 420 189 420 188 420 c 0
 170 410 140 369 125 333 c 0
 114 309 101 253 101 231 c 0
EndSplineSet
Comment: "char_L10_P10_x6999_y5711_x7210_y6085_xZA+AD0A.svg"
EndChar

StartChar: second
Encoding: 8243 8243 28
Width: 304
VWidth: 437
Flags: HW
LayerCount: 2
Fore
SplineSet
49 415 m 1
 29 419 20 432 20 456 c 0
 20 457 l 0
 20 465 24 472 38 502 c 0
 57 541 78 572 102 597 c 0
 114 609 117 610 123 610 c 0
 129 610 132 609 147 594 c 0
 159 582 164 576 164 572 c 0
 164 572 l 0
 164 569 159 566 159 563 c 0
 159 562 l 0
 159 561 151 548 141 533 c 0
 117 497 90 445 90 435 c 0
 89 415 70 418 49 415 c 1
199 387 m 0
 199 381 188 372 180 372 c 0
 180 372 l 0
 177 372 174 373 169 373 c 0
 143 375 138 377 131 390 c 2
 125 401 l 1
 130 422 l 1
 135 456 165 510 180 539 c 0
 190 555 207 581 226 584 c 0
 227 584 236 578 246 572 c 0
 266 559 262 561 265 546 c 0
 265 537 261 527 249 505 c 0
 223 457 199 401 199 387 c 0
EndSplineSet
Comment: "char_L10_P11_x8554_y5762_x8683_y5887_4oCz.svg"
EndChar

StartChar: uni2036
Encoding: 8246 8246 29
Width: 305
VWidth: 464
Flags: HW
LayerCount: 2
Fore
SplineSet
134 614 m 0
 139 630 146 633 158 637 c 0
 163 637 202 621 207 618 c 0
 215 611 225 602 227 598 c 0
 229 589 227 583 232 574 c 0
 242 555 263 484 265 463 c 0
 265 441 256 437 232 432 c 0
 223 430 218 428 214 428 c 0
 212 428 210 429 207 430 c 0
 195 436 189 447 183 473 c 0
 177 502 169 529 161 545 c 0
 154 560 142 572 137 572 c 0
 133 572 129 584 129 592 c 0
 129 593 l 0
 129 597 131 606 134 614 c 0
44 597 m 0
 52 601 58 604 62 604 c 0
 68 604 73 599 80 587 c 0
 99 559 143 473 147 416 c 0
 147 411 146 408 142 405 c 0
 138 400 117 397 99 393 c 0
 85 393 77 409 73 420 c 0
 59 462 38 515 21 555 c 0
 20 557 20 559 20 562 c 0
 20 564 20 566 20 568 c 0
 20 569 20 569 20 570 c 0
 21 583 24 586 44 597 c 0
EndSplineSet
Comment: "char_L10_P12_x8935_y5748_x9064_y5876_4oC2.svg"
EndChar

StartChar: Ograve
Encoding: 210 210 30
Width: 416
VWidth: 186
Flags: HW
LayerCount: 2
Fore
SplineSet
85 668 m 0
 92 683 95 682 108 685 c 0
 117 685 124 679 132 678 c 0
 140 677 151 664 159 661 c 0
 169 655 212 612 221 605 c 0
 232 597 264 580 279 576 c 0
 285 574 290 572 290 571 c 0
 290 570 291 569 293 569 c 0
 296 569 299 561 302 543 c 0
 303 539 303 536 303 533 c 0
 303 519 291 521 282 512 c 0
 276 506 271 504 262 504 c 0
 262 504 261 504 260 504 c 0
 252 504 219 516 214 520 c 0
 213 521 212 521 211 521 c 0
 210 521 l 0
 210 521 l 0
 207 521 182 538 169 549 c 0
 167 549 85 626 84 636 c 0
 81 643 79 648 79 652 c 0
 79 656 81 661 85 668 c 0
154 456 m 0
 167 460 172 464 190 464 c 0
 191 464 191 464 192 464 c 0
 193 464 195 464 196 464 c 0
 214 464 214 459 231 457 c 0
 260 455 270 453 291 442 c 0
 330 422 348 400 361 357 c 0
 373 316 371 317 374 285 c 0
 376 272 377 256 377 239 c 0
 377 200 373 157 370 131 c 0
 369 116 363 89 357 73 c 0
 332 4 290 -23 208 -25 c 0
 182 -25 156 -21 140 -14 c 0
 133 -11 122 -9 117 -4 c 0
 109 2 107 0 96 8 c 0
 64 29 38 75 26 120 c 0
 23 133 20 167 20 189 c 2
 20 200 l 1
 22 234 28 253 29 275 c 0
 29 281 37 316 39 319 c 0
 47 341 53 344 65 369 c 0
 87 411 110 442 154 456 c 0
241 373 m 0
 234 379 198 383 187 385 c 0
 168 385 149 364 129 323 c 0
 108 284 103 250 99 190 c 0
 99 147 109 104 130 81 c 0
 135 70 175 54 201 54 c 0
 202 54 l 0
 213 54 224 55 237 56 c 0
 272 61 279 84 286 114 c 0
 291 118 296 198 297 233 c 0
 297 272 293 308 285 336 c 0
 278 360 273 365 258 367 c 0
 252 368 245 370 241 373 c 0
EndSplineSet
Comment: "char_L10_P1_x3946_y5723_x4134_y6095_w5I+AD0A.svg"
EndChar

StartChar: Aring
Encoding: 197 197 31
Width: 443
VWidth: 200
Flags: HW
AnchorPoint: "lowerrightend" 369.442 -16.8501 basechar 0
AnchorPoint: "upperright" 403 661 basechar 0
AnchorPoint: "bottom" 211.5 -11 basechar 0
AnchorPoint: "top" 211.5 661 basechar 0
LayerCount: 2
Fore
SplineSet
309 636 m 0
 311 627 312 616 312 606 c 0
 312 593 310 580 306 570 c 1
 306 560 279 519 269 513 c 0
 265 511 242 492 237 491 c 0
 230 488 200 478 183 478 c 0
 182 478 182 478 181 478 c 0
 168 480 158 482 150 486 c 0
 141 490 121 512 117 523 c 0
 114 531 109 555 109 559 c 0
 110 590 119 629 135 649 c 0
 140 656 163 674 169 676 c 0
 177 679 173 680 183 683 c 0
 202 688 213 696 232 696 c 0
 234 696 235 696 237 696 c 0
 247 696 256 696 259 694 c 0
 272 687 282 681 285 678 c 0
 290 674 307 645 309 636 c 0
243 604 m 0
 243 605 l 0
 243 612 238 623 234 624 c 0
 222 624 217 620 209 620 c 0
 207 620 204 620 201 621 c 0
 198 621 195 620 190 614 c 0
 180 603 176 588 176 567 c 0
 176 566 176 564 176 563 c 0
 176 549 178 549 184 543 c 1
 197 549 l 1
 219 558 226 563 235 580 c 0
 240 590 243 597 243 604 c 0
320 27 m 0
 322 44 323 58 323 72 c 0
 323 108 317 139 311 185 c 0
 310 194 309 199 307 204 c 1
 275 198 l 2
 246 192 192 191 164 187 c 0
 158 186 146 185 137 185 c 2
 121 185 l 1
 120 157 107 101 103 68 c 0
 99 38 95 27 91 10 c 0
 91 5 85 -5 81 -9 c 0
 79 -11 68 -11 57 -11 c 0
 48 -11 38 -11 34 -10 c 0
 31 -9 26 -7 24 -3 c 0
 20 3 20 6 20 27 c 0
 22 86 35 131 43 184 c 0
 45 200 63 266 67 274 c 0
 69 277 70 283 70 287 c 0
 71 296 90 343 104 371 c 0
 117 399 131 420 142 431 c 0
 146 435 149 438 149 439 c 0
 149 443 172 458 177 464 c 0
 180 469 193 471 206 471 c 0
 218 471 230 469 235 468 c 0
 248 465 263 457 273 448 c 0
 276 445 280 443 281 443 c 0
 285 443 312 412 322 395 c 0
 349 354 369 298 379 243 c 0
 393 178 402 130 403 54 c 0
 403 52 403 49 403 48 c 0
 403 38 401 42 400 33 c 0
 400 23 398 15 396 15 c 0
 393 14 392 4 389 3 c 0
 386 0 372 -8 369 -8 c 0
 362 -6 347 -8 343 -2 c 0
 335 5 329 1 324 15 c 0
 321 21 320 23 320 27 c 0
146 260 m 1
 149 264 237 271 289 278 c 1
 289 284 280 308 271 327 c 0
 253 359 240 384 215 393 c 0
 211 393 197 379 188 366 c 0
 176 349 164 317 149 273 c 0
 147 266 146 264 146 261 c 0
 146 260 l 1
EndSplineSet
Comment: "char_L10_P2_x4216_y5717_x4417_y6088_w4U+AD0A.svg"
EndChar

StartChar: Udieresis
Encoding: 220 220 32
Width: 393
VWidth: 178
Flags: HW
AnchorPoint: "lowerrightend" 257.421 -15.979 basechar 0
AnchorPoint: "upperright" 353 637 basechar 0
AnchorPoint: "bottom" 186.5 -15 basechar 0
AnchorPoint: "top" 186.5 637 basechar 0
LayerCount: 2
Fore
SplineSet
245 630 m 2
 259 637 l 1
 272 634 l 1
 303 625 305 623 312 612 c 0
 316 606 318 601 318 596 c 0
 318 588 314 580 312 570 c 0
 303 545 282 527 252 526 c 0
 233 526 215 535 209 551 c 0
 205 561 203 567 203 574 c 0
 203 578 204 581 205 586 c 0
 214 608 225 620 245 630 c 2
79 622 m 0
 95 634 98 635 106 635 c 0
 118 635 120 633 135 615 c 0
 144 604 148 599 148 593 c 0
 148 589 147 585 144 578 c 0
 140 573 101 536 88 536 c 0
 87 536 l 0
 79 536 72 543 61 557 c 0
 50 570 48 573 48 580 c 0
 48 593 57 605 79 622 c 0
274 383 m 0
 274 386 274 388 274 391 c 0
 274 420 271 424 269 444 c 0
 269 447 269 449 271 452 c 0
 274 458 277 461 288 465 c 0
 291 466 293 468 293 469 c 0
 293 472 310 473 314 476 c 0
 316 477 318 478 320 478 c 0
 324 478 328 476 332 474 c 0
 337 472 344 459 349 445 c 0
 352 423 353 378 353 329 c 0
 353 249 350 158 346 143 c 0
 340 94 333 70 313 42 c 0
 302 27 278 4 272 4 c 0
 267 4 252 -6 247 -6 c 0
 228 -11 208 -15 187 -15 c 0
 176 -15 164 -14 153 -11 c 0
 120 -5 126 0 101 11 c 0
 95 14 71 39 71 42 c 0
 71 43 68 48 65 53 c 0
 55 65 46 97 38 116 c 0
 29 142 20 232 20 301 c 0
 20 318 21 334 22 348 c 0
 24 372 27 395 29 418 c 0
 30 433 33 436 35 445 c 0
 37 453 43 470 54 470 c 0
 57 470 62 469 70 468 c 0
 89 465 94 463 96 453 c 0
 98 445 98 423 99 324 c 0
 100 218 104 173 113 135 c 0
 121 104 137 79 156 69 c 0
 166 64 170 63 186 63 c 0
 218 63 238 73 253 94 c 0
 268 119 262 138 269 172 c 0
 271 178 271 209 273 317 c 0
 273 348 274 368 274 383 c 0
EndSplineSet
Comment: "char_L10_P3_x4482_y5748_x4657_y6090_w5w+AD0A.svg"
EndChar

StartChar: uni226A
Encoding: 8810 8810 33
Width: 511
VWidth: 187
Flags: HW
LayerCount: 2
Fore
SplineSet
277 108 m 0
 277 107 l 0
 277 101 271 92 271 86 c 0
 271 85 l 0
 271 78 263 67 257 67 c 0
 250 67 253 63 247 61 c 0
 244 59 241 59 237 59 c 0
 219 59 195 79 152 127 c 0
 129 152 109 173 85 191 c 0
 61 212 46 222 40 237 c 0
 34 246 20 279 20 288 c 0
 20 288 l 0
 20 291 23 299 27 306 c 0
 33 317 39 323 69 350 c 0
 88 368 105 383 106 383 c 0
 107 383 113 388 119 394 c 0
 156 429 172 441 196 462 c 0
 205 470 205 466 217 479 c 0
 228 490 236 494 246 500 c 0
 250 502 253 504 256 504 c 0
 257 504 l 0
 264 504 292 474 292 467 c 0
 292 467 l 0
 292 466 l 0
 292 460 274 446 274 442 c 0
 248 409 162 332 122 298 c 0
 111 287 103 281 103 277 c 0
 103 277 l 0
 104 274 110 270 137 249 c 0
 166 226 212 181 238 149 c 0
 244 141 250 136 252 136 c 0
 252 136 252 136 253 136 c 0
 261 136 277 116 277 108 c 0
 277 108 l 0
467 106 m 0
 468 104 469 102 469 100 c 0
 469 94 465 87 460 84 c 0
 452 80 441 71 430 71 c 0
 427 71 423 72 420 74 c 0
 407 79 368 109 345 131 c 0
 326 150 270 187 264 201 c 0
 261 208 234 233 231 233 c 0
 231 234 212 259 212 269 c 0
 212 270 213 270 213 271 c 0
 215 279 214 309 219 313 c 0
 239 339 234 330 262 354 c 0
 303 389 290 375 342 421 c 0
 397 467 381 462 406 463 c 0
 417 463 423 459 436 445 c 0
 444 437 447 432 447 426 c 0
 447 422 446 419 443 413 c 0
 443 411 441 408 438 406 c 0
 393 371 352 334 309 296 c 1
 294 282 l 1
 307 270 l 2
 314 263 319 256 319 255 c 0
 319 246 389 197 402 185 c 0
 407 180 420 170 431 162 c 0
 460 139 471 127 471 118 c 0
 471 114 467 110 467 106 c 0
EndSplineSet
Comment: "char_L10_P4_x5299_y5818_x5536_y6051_4omq.svg"
EndChar

StartChar: uni226B
Encoding: 8811 8811 34
Width: 511
VWidth: 187
Flags: HW
LayerCount: 2
Fore
SplineSet
217 442 m 0
 217 445 200 460 200 466 c 0
 200 467 l 0
 200 468 l 0
 200 477 224 498 228 501 c 0
 231 503 234 504 236 504 c 0
 243 504 248 498 255 495 c 0
 261 493 283 469 288 467 c 0
 296 463 301 455 311 448 c 0
 322 440 345 419 372 394 c 0
 378 388 385 383 386 383 c 0
 387 383 404 368 423 350 c 0
 453 323 459 317 465 306 c 0
 469 299 471 291 471 287 c 0
 471 287 l 0
 471 280 458 246 452 237 c 0
 446 221 431 212 407 191 c 0
 372 166 333 120 303 89 c 0
 286 73 266 59 256 59 c 0
 249 59 239 62 239 65 c 0
 239 66 237 67 235 67 c 0
 229 67 220 78 220 85 c 0
 220 86 l 0
 220 92 214 101 214 107 c 0
 214 108 l 0
 214 108 l 0
 214 116 230 136 238 136 c 0
 239 136 239 136 239 136 c 0
 241 136 247 141 253 149 c 0
 279 181 325 226 354 249 c 0
 381 270 387 275 388 278 c 0
 388 280 380 288 369 298 c 0
 327 334 245 408 217 442 c 0
24 106 m 0
 24 110 20 114 20 118 c 0
 20 127 31 139 60 162 c 0
 88 184 92 190 123 212 c 0
 147 229 172 251 172 255 c 0
 172 256 178 263 185 270 c 2
 197 283 l 1
 182 296 l 1
 140 335 99 371 53 406 c 0
 47 411 45 419 44 426 c 0
 44 431 47 437 55 445 c 0
 68 457 70 463 86 463 c 0
 87 463 89 463 91 463 c 0
 104 462 99 465 149 421 c 0
 203 373 201 380 254 335 c 0
 256 335 269 319 273 313 c 0
 279 308 275 277 279 269 c 0
 279 262 262 233 261 233 c 0
 258 233 231 208 228 201 c 0
 222 187 166 150 147 131 c 0
 124 109 84 79 71 74 c 0
 68 72 64 71 61 71 c 0
 50 71 40 80 32 84 c 0
 27 87 22 94 22 100 c 0
 22 102 23 104 24 106 c 0
EndSplineSet
Comment: "char_L10_P6_x5699_y5818_x5936_y6051_4omr.svg"
EndChar

StartChar: uni203D
Encoding: 8253 8253 35
Width: 400
VWidth: 177
Flags: HW
LayerCount: 2
Fore
SplineSet
206 666 m 0
 207 666 207 666 208 666 c 0
 218 666 222 657 225 653 c 0
 226 653 228 641 230 626 c 2
 233 599 l 1
 244 600 l 1
 246 600 247 600 249 600 c 0
 272 600 292 595 304 584 c 0
 305 583 307 583 309 583 c 0
 313 583 315 575 319 575 c 0
 320 575 326 567 331 557 c 0
 351 519 361 491 361 452 c 0
 361 445 361 438 360 430 c 0
 359 419 341 378 337 375 c 0
 336 374 335 373 335 371 c 0
 335 366 293 323 282 317 c 0
 260 305 256 304 253 304 c 0
 249 304 245 298 233 275 c 2
 223 257 l 1
 225 238 l 2
 226 233 226 222 226 211 c 0
 226 187 224 158 219 157 c 1
 211 150 212 153 200 147 c 0
 194 144 188 143 181 143 c 0
 174 143 166 144 158 146 c 0
 152 147 138 158 138 161 c 0
 138 167 137 177 137 186 c 0
 137 206 144 221 144 239 c 0
 144 240 144 242 144 243 c 0
 144 244 144 244 144 245 c 0
 144 259 140 275 140 289 c 0
 140 292 140 296 141 299 c 0
 147 331 151 397 151 439 c 2
 151 458 l 1
 149 482 l 1
 139 471 l 2
 133 464 129 459 129 456 c 0
 129 456 l 0
 129 443 97 415 88 405 c 0
 79 397 76 393 65 392 c 0
 64 392 l 0
 57 392 20 412 20 426 c 0
 20 427 20 427 20 427 c 0
 20 434 24 444 33 458 c 0
 42 474 48 476 55 491 c 0
 62 506 68 506 79 520 c 0
 91 534 110 549 133 562 c 2
 150 571 l 1
 150 572 150 572 150 573 c 0
 150 589 152 589 152 607 c 0
 152 614 152 621 152 628 c 0
 152 649 155 650 162 660 c 0
 165 662 194 666 204 666 c 0
 205 666 205 666 206 666 c 0
263 518 m 0
 260 522 255 523 250 523 c 0
 243 523 235 521 229 520 c 1
 229 378 l 1
 256 387 280 417 281 452 c 0
 281 474 272 509 263 518 c 0
141 43 m 0
 142 50 175 74 188 75 c 0
 202 75 223 66 223 58 c 0
 224 54 230 54 231 49 c 0
 233 43 236 47 236 38 c 0
 233 6 225 -7 200 -22 c 0
 191 -27 186 -30 180 -30 c 0
 175 -30 169 -28 160 -23 c 0
 142 -13 138 -2 134 17 c 0
 134 24 137 36 140 40 c 0
 141 41 141 42 141 43 c 0
EndSplineSet
Comment: "char_L10_P8_x6211_y5717_x6390_y6082_4oC9.svg"
EndChar

StartChar: Emacron
Encoding: 274 274 36
Width: 440
VWidth: 171
Flags: HW
LayerCount: 2
Fore
SplineSet
168 569 m 0
 165 569 162 569 160 569 c 0
 128 569 118 563 88 563 c 0
 71 563 57 565 54 568 c 0
 52 570 49 571 48 571 c 0
 42 575 35 585 35 596 c 0
 35 598 35 600 36 602 c 0
 36 616 36 617 41 622 c 0
 45 626 49 628 62 630 c 0
 80 632 80 637 95 638 c 0
 126 642 155 644 185 644 c 0
 203 644 222 643 242 642 c 0
 270 642 284 648 307 652 c 0
 309 652 311 652 312 652 c 0
 321 652 320 646 332 635 c 0
 340 624 345 619 345 613 c 0
 345 609 343 605 339 599 c 0
 336 595 334 590 333 588 c 0
 324 574 296 576 280 569 c 0
 277 568 266 568 251 568 c 2
 235 568 l 1
 205 569 183 569 168 569 c 0
107 494 m 0
 123 497 260 501 326 506 c 0
 334 506 338 501 345 499 c 0
 354 497 356 493 356 475 c 2
 356 465 l 2
 356 451 355 439 354 437 c 0
 346 427 324 425 308 423 c 0
 308 423 l 0
 300 423 299 426 290 426 c 0
 290 426 289 426 288 426 c 0
 262 424 126 418 98 415 c 0
 97 415 l 0
 95 415 94 414 94 408 c 0
 95 399 99 308 101 298 c 1
 113 305 113 304 148 306 c 0
 154 306 160 306 166 306 c 0
 192 306 210 304 214 300 c 0
 219 296 229 295 231 287 c 0
 234 279 238 272 238 264 c 0
 238 260 237 256 234 251 c 0
 227 237 233 237 217 229 c 0
 210 226 204 223 199 223 c 0
 195 223 192 224 188 227 c 0
 188 232 116 231 111 234 c 1
 101 236 l 1
 101 236 101 193 100 142 c 2
 99 49 l 1
 111 50 l 1
 178 61 282 78 322 78 c 0
 325 78 327 78 329 78 c 0
 347 78 367 76 367 74 c 2
 366 74 l 1
 366 72 383 69 383 66 c 0
 383 66 l 0
 383 64 388 60 396 54 c 0
 399 52 400 44 400 36 c 0
 400 17 395 5 384 2 c 0
 376 0 372 -8 362 -8 c 0
 361 -8 l 0
 356 -8 350 -7 344 -4 c 2
 334 2 l 1
 306 -1 l 2
 244 -7 181 -17 123 -26 c 0
 87 -32 77 -32 59 -32 c 0
 41 -32 38 -32 31 -28 c 0
 24 -24 23 -22 23 -17 c 0
 23 -16 23 -16 23 -15 c 0
 23 -12 23 -7 22 -1 c 0
 21 8 20 23 20 38 c 0
 20 51 20 64 21 74 c 0
 22 121 22 160 22 195 c 0
 22 281 20 346 20 465 c 1
 25 473 28 479 45 479 c 0
 65 480 90 494 107 494 c 0
EndSplineSet
Comment: "char_L10_P9_x6697_y5740_x6897_y6099_xJI+AD0A.svg"
EndChar

StartChar: c_o
Encoding: 1114112 -1 37
Width: 767
VWidth: -51
Flags: HW
LayerCount: 2
Fore
SplineSet
706 329 m 0
 714 308 727 283 727 246 c 0
 727 245 727 243 727 242 c 0
 727 216 723 186 717 173 c 0
 701 138 708 152 697 135 c 0
 686 114 628 56 614 49 c 0
 591 33 558 12 556 12 c 0
 530 3 533 1 498 -6 c 0
 488 -8 479 -9 470 -9 c 0
 416 -9 380 25 363 61 c 0
 359 70 357 73 356 73 c 0
 340 55 337 46 304 32 c 0
 270 15 241 7 190 5 c 0
 189 5 188 5 187 5 c 0
 157 5 155 7 137 14 c 0
 112 21 83 38 68 54 c 0
 47 77 27 117 25 139 c 0
 23 155 20 171 20 188 c 0
 20 193 20 199 21 204 c 0
 24 275 62 340 101 377 c 0
 143 417 182 439 235 443 c 0
 278 443 299 427 327 412 c 0
 331 412 352 387 360 373 c 0
 365 366 367 361 367 356 c 0
 367 351 365 345 363 336 c 0
 362 332 345 313 333 313 c 0
 330 313 328 314 326 316 c 0
 322 320 313 323 311 328 c 0
 310 330 308 332 307 332 c 0
 304 332 296 339 286 349 c 0
 271 364 265 366 241 366 c 0
 217 366 212 364 189 351 c 0
 171 341 167 337 152 319 c 0
 145 311 137 302 135 300 c 0
 116 280 96 226 96 188 c 0
 96 185 96 182 96 179 c 0
 97 161 104 136 108 128 c 0
 113 118 134 96 144 91 c 0
 155 85 171 82 189 82 c 0
 211 82 234 86 248 91 c 0
 262 95 290 109 300 117 c 0
 306 120 311 123 316 123 c 0
 317 123 317 123 318 123 c 0
 326 123 342 107 346 105 c 1
 343 117 342 138 342 160 c 0
 342 184 344 208 347 221 c 0
 360 271 372 311 398 352 c 0
 426 390 445 410 475 423 c 0
 478 426 508 427 553 427 c 0
 555 427 558 427 560 427 c 0
 582 427 587 426 609 418 c 0
 633 409 657 394 674 375 c 0
 684 364 706 332 706 329 c 0
510 350 m 0
 509 350 506 351 505 353 c 0
 505 354 505 354 504 354 c 0
 502 354 497 350 485 337 c 0
 444 295 422 243 418 163 c 0
 418 122 430 86 449 73 c 0
 455 69 458 68 474 68 c 0
 492 68 494 69 513 77 c 0
 550 92 580 113 604 141 c 0
 624 165 630 166 642 193 c 0
 648 205 650 219 650 233 c 0
 650 246 648 259 645 270 c 0
 638 294 630 309 614 326 c 0
 597 342 586 351 566 351 c 0
 564 351 563 351 563 349 c 0
 563 345 541 330 535 330 c 0
 532 330 530 332 528 335 c 0
 525 340 514 350 510 350 c 0
EndSplineSet
Ligature2: "liga" c o
Comment: "char_L1_P35_x6344_y867_x6710_y1101_Y28+AD0A.svg"
EndChar

StartChar: r_i
Encoding: 1114113 -1 38
Width: 572
VWidth: 111
Flags: HW
LayerCount: 2
Fore
SplineSet
413 460 m 0
 435 464 464 471 491 471 c 0
 499 471 507 470 514 469 c 0
 520 467 533 459 533 450 c 0
 533 449 533 447 532 446 c 0
 531 442 531 432 530 425 c 0
 528 403 522 396 506 396 c 0
 481 396 428 384 398 383 c 0
 391 383 389 385 383 389 c 0
 372 396 371 397 367 419 c 0
 366 427 365 431 365 435 c 0
 365 438 365 440 367 444 c 0
 371 452 379 454 413 460 c 0
161 429 m 0
 162 429 162 429 163 429 c 0
 178 429 179 433 195 433 c 0
 196 433 l 0
 249 431 304 408 329 395 c 0
 331 395 351 377 354 377 c 0
 363 371 363 359 370 347 c 2
 376 336 l 1
 371 324 l 1
 364 304 360 304 331 301 c 1
 316 301 l 1
 301 316 l 2
 286 332 274 340 253 347 c 0
 244 350 204 357 196 357 c 0
 193 355 186 356 170 354 c 2
 147 352 l 1
 139 343 l 2
 121 323 124 327 120 296 c 0
 113 241 113 230 112 77 c 0
 112 55 107 29 103 21 c 0
 98 11 102 10 94 2 c 0
 88 -4 88 -4 68 -4 c 0
 48 -4 47 -3 42 2 c 0
 36 9 28 21 27 26 c 0
 19 97 22 136 20 230 c 1
 20 268 l 2
 20 304 20 315 22 318 c 0
 25 323 33 327 41 327 c 1
 42 326 l 2
 47 326 47 341 49 342 c 0
 53 351 60 370 68 379 c 0
 79 395 78 398 99 410 c 0
 113 420 135 427 161 429 c 0
460 296 m 0
 460 293 460 291 460 288 c 0
 460 226 448 165 448 103 c 0
 448 101 448 99 448 97 c 0
 448 72 449 52 452 47 c 0
 454 43 456 34 456 27 c 0
 456 23 455 19 454 16 c 0
 453 10 440 6 438 2 c 0
 438 -1 426 -8 420 -8 c 0
 411 -8 391 0 386 5 c 0
 376 24 372 68 372 109 c 0
 372 131 373 152 375 169 c 0
 382 227 378 225 397 298 c 0
 398 305 402 304 403 309 c 0
 405 316 410 320 420 320 c 0
 421 320 423 320 424 320 c 0
 452 316 458 318 460 296 c 0
EndSplineSet
Ligature2: "liga" r i
Comment: "char_L1_P7_x1397_y853_x1663_y1101_cmk+AD0A.svg"
EndChar

StartChar: t_t
Encoding: 1114114 -1 39
Width: 693
VWidth: 156
Flags: HW
LayerCount: 2
Fore
SplineSet
506 553 m 1
 500 534 482 459 481 443 c 1
 494 443 539 448 555 448 c 2
 576 448 l 1
 583 442 l 2
 590 435 590 434 591 417 c 0
 591 413 592 409 592 405 c 0
 592 401 591 397 589 394 c 0
 583 384 567 379 529 376 c 0
 510 375 469 371 468 370 c 0
 464 340 455 277 455 232 c 0
 455 231 455 229 455 228 c 0
 454 219 454 211 454 205 c 0
 454 194 455 186 458 171 c 0
 463 147 464 140 471 131 c 0
 478 122 484 120 498 120 c 0
 514 120 526 123 544 133 c 0
 563 143 575 152 592 168 c 0
 603 178 607 182 616 182 c 0
 619 182 623 182 627 181 c 0
 636 180 639 179 646 172 c 2
 654 163 l 1
 653 150 l 2
 653 141 652 135 650 132 c 0
 642 121 617 96 605 88 c 0
 567 64 544 49 496 47 c 0
 495 47 494 47 493 47 c 0
 445 47 405 86 394 131 c 0
 392 141 390 145 389 146 c 0
 384 154 382 188 382 223 c 0
 382 260 384 298 387 306 c 0
 389 315 392 346 393 356 c 0
 392 359 390 360 387 360 c 0
 383 360 377 359 372 359 c 0
 371 359 369 359 368 359 c 0
 351 359 332 362 328 366 c 0
 326 368 324 370 323 370 c 0
 320 370 315 385 315 397 c 0
 315 409 315 410 320 415 c 0
 325 421 331 422 356 426 c 0
 401 432 408 434 409 438 c 0
 418 465 428 520 438 546 c 0
 439 548 442 557 445 566 c 0
 451 584 457 593 467 598 c 0
 471 599 474 600 477 600 c 0
 482 600 486 598 495 595 c 0
 512 589 507 590 511 576 c 0
 511 570 505 558 505 554 c 2
 506 553 l 1
149 575 m 0
 152 582 160 590 166 593 c 1
 166 593 174 592 184 589 c 0
 202 585 206 582 206 574 c 0
 206 568 204 561 203 550 c 0
 202 509 191 471 186 431 c 0
 186 430 193 429 203 429 c 0
 237 427 269 420 287 410 c 0
 293 408 290 405 295 403 c 0
 300 400 302 396 302 392 c 0
 302 383 294 373 289 359 c 0
 284 348 278 344 269 344 c 0
 264 344 257 346 250 348 c 0
 236 353 210 358 192 358 c 0
 191 358 190 358 189 358 c 2
 177 357 l 1
 177 356 177 355 177 354 c 0
 177 344 176 338 174 323 c 0
 171 303 166 244 165 201 c 0
 165 149 173 103 184 91 c 0
 188 87 191 86 194 86 c 0
 199 86 204 90 214 94 c 0
 225 99 229 102 245 120 c 0
 255 131 266 142 269 143 c 0
 272 144 280 145 287 145 c 0
 299 145 301 145 306 140 c 0
 318 130 318 129 319 120 c 0
 319 111 314 96 303 78 c 0
 299 71 278 49 275 49 c 0
 264 42 242 24 219 19 c 0
 205 16 198 14 190 14 c 0
 183 14 176 16 162 20 c 0
 152 22 119 52 119 58 c 0
 116 67 107 83 107 92 c 0
 107 95 105 100 103 104 c 0
 93 116 93 174 93 204 c 0
 93 257 98 305 105 348 c 1
 79 349 l 1
 42 353 32 347 24 363 c 0
 21 368 20 370 20 378 c 0
 20 382 20 387 20 391 c 0
 20 425 40 413 69 419 c 0
 80 420 95 421 102 422 c 0
 114 423 115 423 115 426 c 0
 125 473 133 538 149 575 c 0
EndSplineSet
PairPos2: "sacc" uni0315 dx=0 dy=0 dh=0 dv=0 dx=-80 dy=0 dh=0 dv=0
Ligature2: "liga" t t
Comment: "char_L2_P10_x2209_y1381_x2561_y1707_dHQ+AD0A.svg"
EndChar

StartChar: r_r
Encoding: 1114115 -1 40
Width: 679
VWidth: -6
Flags: HW
LayerCount: 2
Fore
SplineSet
25 68 m 0
 21 89 20 129 20 169 c 0
 20 201 21 233 22 258 c 1
 22 276 l 2
 22 277 l 0
 22 303 32 333 51 339 c 0
 58 341 61 343 68 354 c 0
 86 380 101 400 117 410 c 0
 126 419 153 428 175 428 c 1
 191 424 212 416 215 413 c 0
 231 401 263 388 294 388 c 0
 295 388 l 0
 314 387 315 387 319 382 c 0
 325 377 326 363 328 355 c 0
 328 353 328 352 328 350 c 0
 328 336 321 322 310 319 c 0
 305 319 300 319 295 319 c 0
 256 319 225 326 194 343 c 0
 181 350 169 355 168 355 c 0
 161 355 155 350 142 334 c 0
 126 315 115 296 107 275 c 0
 102 261 100 242 100 221 c 0
 100 188 104 150 105 126 c 0
 105 117 106 74 107 58 c 0
 107 37 103 43 96 28 c 0
 93 22 84 18 65 16 c 0
 59 16 46 22 41 28 c 0
 36 34 28 52 25 68 c 0
640 362 m 0
 640 361 l 0
 640 347 623 335 614 333 c 0
 609 333 602 326 595 326 c 0
 593 326 592 327 590 328 c 1
 578 331 578 342 566 348 c 0
 558 353 549 355 539 355 c 0
 532 355 523 354 514 353 c 0
 485 351 452 335 440 317 c 0
 425 299 422 297 422 256 c 0
 423 228 424 131 425 123 c 1
 425 109 l 2
 425 76 417 47 384 47 c 0
 383 47 382 47 381 47 c 0
 372 47 356 57 351 66 c 0
 347 73 345 92 345 110 c 0
 345 117 345 124 346 130 c 0
 347 141 347 182 348 221 c 0
 350 320 349 301 369 345 c 0
 371 349 379 356 381 361 c 0
 386 371 387 367 397 377 c 0
 411 389 434 403 450 408 c 0
 452 409 456 411 459 413 c 0
 463 418 509 425 527 427 c 0
 545 426 573 424 587 416 c 0
 604 409 612 405 626 390 c 0
 635 380 640 371 640 362 c 0
EndSplineSet
Ligature2: "liga" r r
Comment: "char_L2_P31_x6202_y1477_x6546_y1706_cnI+AD0A.svg"
EndChar

StartChar: o_o
Encoding: 1114116 -1 41
Width: 829
VWidth: -118
Flags: HW
LayerCount: 2
Fore
SplineSet
182 13 m 0
 178 12 174 11 171 11 c 0
 163 11 157 14 147 14 c 0
 136 14 106 21 105 25 c 0
 102 27 99 29 98 29 c 0
 95 29 78 43 66 55 c 0
 55 66 51 71 42 90 c 0
 25 121 21 145 20 189 c 0
 20 218 31 262 36 274 c 0
 38 277 39 282 39 283 c 0
 39 289 53 321 64 340 c 0
 75 360 93 383 99 387 c 0
 101 388 109 394 118 400 c 0
 137 413 147 416 174 418 c 0
 184 418 194 417 196 415 c 0
 203 412 223 408 225 403 c 0
 226 402 231 401 237 401 c 0
 249 401 267 397 290 387 c 0
 314 379 327 364 344 352 c 0
 347 352 373 319 374 318 c 0
 380 311 396 277 397 269 c 0
 399 254 402 240 402 224 c 0
 402 219 402 214 401 209 c 0
 400 203 400 197 400 195 c 1
 401 197 402 202 404 207 c 0
 412 243 445 311 464 333 c 0
 474 346 515 392 521 394 c 0
 538 402 560 420 586 420 c 0
 587 420 589 420 590 420 c 0
 606 420 624 414 634 403 c 0
 642 395 650 383 652 378 c 0
 654 373 655 373 684 354 c 0
 723 327 767 282 783 232 c 0
 787 221 789 210 789 198 c 0
 789 163 773 128 762 105 c 0
 751 87 722 59 698 44 c 0
 678 32 640 12 635 12 c 0
 634 12 632 12 632 11 c 0
 618 4 575 -6 541 -6 c 0
 530 -6 519 -5 512 -2 c 0
 510 0 508 1 506 1 c 0
 502 1 487 7 470 15 c 0
 456 22 434 39 431 46 c 0
 411 75 397 106 397 151 c 0
 397 158 397 165 398 172 c 1
 400 189 l 1
 394 178 l 1
 386 159 367 127 357 114 c 0
 338 83 258 29 229 24 c 0
 213 20 212 18 182 13 c 0
259 320 m 0
 256 320 250 313 245 313 c 0
 244 313 l 0
 240 313 236 315 232 319 c 0
 227 324 225 324 211 327 c 0
 202 328 190 336 190 340 c 0
 190 343 179 347 178 348 c 1
 152 341 135 322 115 277 c 0
 103 250 103 250 98 212 c 0
 97 200 96 188 96 177 c 0
 96 157 99 140 108 124 c 0
 115 110 119 105 126 100 c 0
 142 88 144 88 166 88 c 0
 184 88 189 88 207 94 c 0
 237 104 254 116 283 145 c 0
 305 167 310 172 317 187 c 2
 325 204 l 1
 325 229 l 2
 325 252 324 253 319 263 c 0
 308 285 282 310 259 320 c 0
579 316 m 0
 577 315 575 315 573 315 c 0
 565 315 556 319 550 322 c 0
 547 322 544 319 537 311 c 0
 513 285 478 223 473 182 c 0
 471 171 470 165 470 159 c 0
 470 154 471 149 472 139 c 0
 475 115 479 106 492 91 c 0
 505 76 520 69 547 69 c 0
 562 69 578 72 590 75 c 0
 617 82 625 85 648 100 c 0
 684 123 700 142 709 170 c 0
 712 183 713 192 713 199 c 0
 713 216 705 224 687 253 c 0
 680 261 670 268 661 277 c 0
 649 289 635 299 615 309 c 0
 604 315 598 317 590 317 c 0
 587 317 584 317 579 316 c 0
EndSplineSet
Ligature2: "liga" o o
Comment: "char_L3_P31_x5948_y2078_x6356_y2305_b28+AD0A.svg"
EndChar

StartChar: A
Encoding: 65 65 42
Width: 452
VWidth: 544
Flags: HW
AnchorPoint: "lowerrightend" 375.389 35.9061 basechar 0
AnchorPoint: "upperright" 412 599 basechar 0
AnchorPoint: "bottom" 216 27 basechar 0
AnchorPoint: "top" 216 599 basechar 0
LayerCount: 2
Fore
SplineSet
326 80 m 0
 329 105 332 143 332 181 c 0
 332 194 332 207 331 220 c 2
 330 244 l 1
 300 248 248 251 200 251 c 0
 171 251 144 250 124 247 c 1
 113 217 110 179 106 142 c 0
 97 93 103 85 94 47 c 0
 90 31 82 27 54 27 c 0
 33 27 33 27 28 32 c 0
 21 39 21 74 20 91 c 0
 20 163 42 278 56 333 c 0
 76 410 110 511 164 566 c 0
 189 589 208 599 241 599 c 0
 248 599 255 599 263 598 c 0
 271 597 284 592 289 588 c 0
 292 586 295 584 297 584 c 0
 301 584 330 557 338 545 c 0
 348 530 353 526 361 507 c 0
 364 499 369 489 371 484 c 0
 380 463 399 372 404 327 c 0
 410 285 413 233 413 181 c 0
 413 156 412 131 411 107 c 0
 410 95 404 68 402 66 c 0
 399 56 383 44 372 44 c 0
 369 44 357 49 347 55 c 0
 331 64 326 66 326 80 c 0
295 457 m 0
 279 482 272 518 238 518 c 0
 233 518 230 517 223 511 c 0
 204 494 181 456 170 421 c 0
 165 403 156 388 152 372 c 0
 152 366 142 339 141 334 c 0
 141 330 302 329 304 327 c 0
 310 326 315 326 319 326 c 0
 320 326 l 0
 321 326 l 1
 321 335 309 406 307 409 c 0
 302 416 300 448 295 457 c 0
EndSplineSet
Comment: "char_L9_P33_x10020_y5328_x10220_y5618_QQ+AD0APQAA.svg"
EndChar

StartChar: K
Encoding: 75 75 43
Width: 469
VWidth: 294
Flags: HW
AnchorPoint: "lowerrightend" 401.395 -15.9987 basechar 0
AnchorPoint: "upperright" 429 591 basechar 0
AnchorPoint: "bottom" 224.5 -6 basechar 0
AnchorPoint: "top" 224.5 591 basechar 0
LayerCount: 2
Fore
SplineSet
97 491 m 0
 97 462 108 421 108 390 c 0
 108 389 108 389 108 388 c 1
 111 388 123 400 128 409 c 0
 141 430 213 505 262 549 c 0
 274 560 283 569 283 570 c 0
 285 573 308 591 321 591 c 0
 322 591 322 591 323 591 c 0
 330 591 337 590 339 588 c 0
 353 569 361 563 361 553 c 0
 361 548 359 541 354 531 c 0
 348 517 317 496 306 488 c 0
 291 479 195 375 176 349 c 0
 171 341 167 339 167 337 c 0
 167 335 169 334 174 331 c 1
 184 315 182 313 207 293 c 0
 275 237 246 270 301 218 c 0
 329 191 363 156 363 155 c 0
 363 153 380 131 386 125 c 0
 393 119 413 85 424 61 c 0
 428 54 430 42 430 30 c 0
 430 24 429 18 428 13 c 0
 428 10 419 1 417 1 c 0
 416 1 414 0 412 -2 c 0
 410 -4 400 -6 391 -6 c 0
 390 -6 388 -6 387 -6 c 0
 378 -6 378 -3 371 -1 c 0
 362 -1 354 11 352 27 c 0
 351 33 351 41 349 44 c 0
 336 69 293 121 259 152 c 0
 249 161 241 169 240 171 c 0
 220 194 189 209 163 233 c 0
 155 239 131 261 122 264 c 1
 122 217 l 1
 123 205 123 191 123 177 c 0
 123 155 122 132 122 114 c 0
 122 67 121 57 119 52 c 0
 113 40 109 39 85 37 c 0
 81 36 77 36 73 36 c 0
 61 36 51 40 48 52 c 0
 46 56 46 61 46 80 c 0
 46 116 46 153 46 189 c 0
 46 194 46 199 46 204 c 0
 46 284 30 389 29 419 c 0
 29 420 l 0
 29 452 20 468 20 497 c 0
 20 498 l 0
 20 522 23 553 32 562 c 0
 34 565 38 566 42 566 c 0
 46 566 50 565 54 565 c 0
 81 561 88 565 88 543 c 0
 88 542 88 541 88 540 c 0
 88 529 97 507 97 491 c 0
EndSplineSet
Comment: "char_L5_P28_x6369_y3067_x6591_y3390_Sw+AD0APQAA.svg"
EndChar

StartChar: L
Encoding: 76 76 44
Width: 449
VWidth: 487
Flags: HW
AnchorPoint: "lowerrightend" 377.159 33.3404 basechar 0
AnchorPoint: "upperright" 309 555 basechar 0
AnchorPoint: "bottom" 214.5 -5 basechar 0
AnchorPoint: "top" 214.5 555 basechar 0
LayerCount: 2
Fore
SplineSet
245 22 m 0
 201 10 170 -5 117 -5 c 0
 115 -5 113 -5 111 -5 c 0
 102 -5 75 6 70 12 c 0
 64 19 65 19 58 25 c 0
 46 36 32 64 26 91 c 0
 22 120 20 152 20 186 c 0
 20 285 34 398 36 475 c 0
 38 535 39 545 45 549 c 0
 53 557 63 554 84 555 c 0
 97 555 99 554 103 551 c 0
 109 546 110 540 112 495 c 0
 113 484 113 473 113 462 c 0
 113 401 104 337 101 285 c 0
 100 257 97 219 97 183 c 0
 97 142 100 102 110 82 c 0
 113 75 116 73 124 73 c 0
 125 73 125 73 126 73 c 0
 148 73 206 87 232 99 c 0
 251 109 292 115 318 120 c 0
 327 123 336 124 345 124 c 0
 351 124 357 123 363 122 c 0
 389 117 396 116 397 112 c 0
 398 110 399 109 400 109 c 0
 403 109 409 94 410 85 c 0
 410 81 408 76 402 65 c 0
 394 47 389 43 377 43 c 0
 373 43 368 43 362 44 c 0
 357 44 353 45 348 45 c 0
 318 45 287 36 245 22 c 0
EndSplineSet
Comment: "char_L7_P42_x9598_y3985_x9805_y4282_TA+AD0APQAA.svg"
EndChar

StartChar: M
Encoding: 77 77 45
Width: 517
VWidth: 480
Flags: HW
AnchorPoint: "lowerrightend" 427.763 -3 basechar 0
AnchorPoint: "upperright" 477 603 basechar 0
AnchorPoint: "bottom" 248.5 -20 basechar 0
AnchorPoint: "top" 248.5 603 basechar 0
LayerCount: 2
Fore
SplineSet
97 346 m 2
 99 241 111 157 112 52 c 0
 111 16 113 -2 97 -16 c 1
 92 -16 76 -20 65 -20 c 0
 60 -20 55 -19 53 -17 c 0
 44 -10 49 -9 43 6 c 0
 39 15 35 59 33 70 c 0
 31 86 30 171 27 186 c 0
 22 257 21 277 20 380 c 1
 20 416 l 2
 20 502 23 514 36 528 c 0
 41 533 57 539 69 540 c 0
 76 540 88 535 90 531 c 0
 91 530 91 530 92 530 c 0
 93 530 l 0
 96 530 127 499 127 496 c 0
 134 484 152 463 161 449 c 0
 172 434 189 418 194 418 c 0
 199 418 228 452 248 481 c 0
 269 513 271 512 287 536 c 0
 296 549 325 580 328 580 c 0
 330 580 352 596 353 598 c 0
 355 600 369 599 371 601 c 0
 375 602 380 603 385 603 c 0
 397 603 411 600 417 598 c 0
 426 594 455 566 455 561 c 0
 455 558 465 531 468 523 c 0
 473 512 477 474 478 423 c 1
 478 397 l 2
 478 331 467 243 461 174 c 0
 459 156 457 128 457 103 c 0
 457 82 458 62 461 49 c 0
 463 45 464 42 464 40 c 0
 464 38 463 36 461 33 c 0
 455 20 454 28 443 13 c 0
 440 10 428 7 418 7 c 0
 417 7 416 7 415 7 c 0
 412 8 404 12 398 18 c 0
 388 27 387 29 383 44 c 0
 380 55 379 74 379 96 c 0
 379 137 383 187 386 200 c 0
 389 208 395 311 399 356 c 0
 400 368 401 383 401 400 c 0
 401 450 395 512 383 526 c 1
 377 526 339 480 309 435 c 0
 278 390 267 377 240 355 c 0
 232 350 208 340 198 340 c 0
 197 340 l 0
 182 340 164 343 160 346 c 0
 151 353 143 357 134 367 c 0
 119 383 125 371 106 395 c 2
 96 407 l 1
 97 346 l 2
EndSplineSet
Comment: "char_L7_P6_x1338_y3960_x1581_y4290_TQ+AD0APQAA.svg"
EndChar

StartChar: N
Encoding: 78 78 46
Width: 454
VWidth: 618
Flags: HW
AnchorPoint: "lowerrightend" 360.191 70.0087 basechar 0
AnchorPoint: "upperright" 414 631 basechar 0
AnchorPoint: "bottom" 217 33 basechar 0
AnchorPoint: "top" 217 631 basechar 0
LayerCount: 2
Fore
SplineSet
61 33 m 0
 60 33 l 0
 49 33 43 44 42 53 c 0
 42 56 42 61 40 64 c 0
 30 86 29 192 26 242 c 0
 21 313 20 324 20 377 c 2
 20 495 l 2
 20 513 21 535 22 544 c 0
 23 559 24 560 29 565 c 0
 45 579 52 585 66 585 c 0
 69 585 73 585 77 584 c 0
 83 584 96 570 100 569 c 0
 105 568 107 553 111 550 c 0
 112 548 113 547 113 545 c 0
 113 544 l 0
 113 540 119 530 138 495 c 0
 188 401 250 311 313 238 c 2
 319 231 l 1
 318 277 l 2
 317 319 314 386 314 448 c 0
 314 490 315 529 320 557 c 0
 324 582 337 613 346 621 c 0
 354 627 361 631 369 631 c 0
 370 631 l 0
 384 631 414 611 414 603 c 0
 414 598 415 594 415 591 c 0
 415 588 415 586 413 583 c 0
 399 551 395 484 395 429 c 0
 396 368 400 297 400 229 c 0
 400 203 400 178 398 153 c 0
 396 124 393 110 385 98 c 0
 373 82 381 88 365 83 c 0
 360 81 355 80 351 80 c 0
 341 80 332 84 324 89 c 0
 320 94 312 96 310 102 c 0
 307 110 266 170 253 184 c 0
 206 242 153 311 115 375 c 1
 99 401 l 1
 101 370 l 1
 107 293 107 205 113 128 c 0
 114 117 115 99 115 83 c 0
 115 67 114 52 111 45 c 0
 108 40 99 37 76 34 c 0
 69 33 64 33 61 33 c 0
EndSplineSet
Comment: "char_L9_P34_x10235_y5312_x10436_y5615_Tg+AD0APQAA.svg"
EndChar

StartChar: O
Encoding: 79 79 47
Width: 489
VWidth: 508
Flags: HW
AnchorPoint: "lowerrightend" 266.083 -5.79515 basechar 0
AnchorPoint: "upperright" 449 582 basechar 0
AnchorPoint: "bottom" 234.5 -11 basechar 0
AnchorPoint: "top" 234.5 582 basechar 0
LayerCount: 2
Fore
SplineSet
188 577 m 0
 196 581 203 582 210 582 c 0
 231 582 248 569 272 566 c 0
 297 562 294 560 316 550 c 0
 347 533 366 522 390 495 c 0
 413 472 445 413 449 365 c 0
 449 362 449 359 449 356 c 0
 449 278 440 228 409 173 c 0
 392 140 373 106 369 102 c 0
 368 101 362 94 356 87 c 0
 323 46 281 13 246 0 c 0
 232 -4 215 -11 195 -11 c 0
 194 -11 192 -11 191 -11 c 0
 155 -11 157 -9 132 4 c 0
 103 19 79 44 63 76 c 0
 53 96 37 136 32 157 c 0
 25 174 22 217 20 245 c 0
 20 275 25 338 30 360 c 0
 40 400 43 411 62 445 c 0
 86 492 114 530 141 552 c 0
 166 573 163 567 188 577 c 0
250 491 m 0
 249 491 249 491 248 491 c 0
 241 491 237 485 231 485 c 0
 230 485 228 485 227 486 c 0
 221 487 206 498 203 503 c 0
 202 504 200 505 199 505 c 0
 195 505 166 473 155 456 c 0
 116 395 97 354 96 280 c 0
 96 278 96 276 96 274 c 0
 96 203 106 161 132 107 c 0
 144 86 164 66 191 66 c 0
 198 66 205 67 213 70 c 0
 221 73 229 75 231 76 c 0
 244 80 296 131 313 157 c 0
 324 173 342 205 353 231 c 0
 366 261 372 296 372 340 c 0
 372 342 372 344 372 346 c 0
 372 348 372 350 372 352 c 0
 372 370 362 387 360 400 c 0
 360 406 340 435 327 449 c 0
 302 472 282 488 250 491 c 0
EndSplineSet
Comment: "char_L7_P5_x1087_y3971_x1315_y4285_Tw+AD0APQAA.svg"
EndChar

StartChar: P
Encoding: 80 80 48
Width: 459
VWidth: 185
Flags: HW
AnchorPoint: "lowerrightend" 95.4556 -2.55995 basechar 0
AnchorPoint: "upperright" 419 605 basechar 0
AnchorPoint: "bottom" 219.5 7 basechar 0
AnchorPoint: "top" 219.5 605 basechar 0
LayerCount: 2
Fore
SplineSet
176 241 m 0
 175 241 174 241 173 241 c 0
 152 241 134 244 118 245 c 0
 117 245 116 244 116 244 c 1
 115 245 l 2
 114 245 113 236 113 223 c 0
 113 178 119 78 122 78 c 2
 123 79 l 1
 125 75 127 59 127 47 c 0
 127 43 127 39 126 36 c 0
 124 23 120 19 100 12 c 0
 90 9 86 7 82 7 c 0
 80 7 78 8 74 9 c 0
 60 18 52 20 49 44 c 0
 40 82 38 119 38 206 c 0
 38 208 38 211 38 213 c 0
 38 308 43 360 45 450 c 1
 46 468 l 1
 37 471 l 1
 25 474 20 483 20 494 c 0
 20 499 21 504 22 509 c 0
 26 525 28 531 41 541 c 0
 46 544 50 548 52 550 c 0
 59 557 96 577 109 581 c 0
 130 591 147 597 189 605 c 0
 194 605 199 605 204 605 c 0
 240 605 284 594 308 581 c 0
 323 574 362 546 367 539 c 0
 371 534 372 537 376 531 c 0
 380 523 395 513 399 501 c 0
 401 497 403 493 404 492 c 0
 408 491 414 458 418 447 c 0
 419 444 419 438 419 430 c 0
 419 414 418 394 417 392 c 0
 416 390 415 387 415 384 c 0
 415 383 l 0
 415 378 406 365 406 361 c 0
 407 361 l 1
 407 357 393 338 391 332 c 0
 391 329 359 295 349 289 c 0
 341 283 329 277 322 271 c 0
 319 268 278 252 262 248 c 0
 247 244 209 241 176 241 c 0
343 416 m 0
 342 421 340 423 340 430 c 0
 340 431 l 0
 340 442 333 460 326 471 c 0
 310 494 270 520 238 526 c 0
 227 528 206 529 190 529 c 2
 175 529 l 1
 167 528 136 520 124 515 c 0
 120 515 119 510 119 506 c 0
 119 502 120 499 121 497 c 0
 122 497 122 491 122 481 c 0
 122 442 119 359 119 332 c 0
 119 331 119 331 119 330 c 1
 120 323 l 1
 132 321 l 1
 141 319 162 318 183 318 c 0
 201 318 219 319 229 320 c 0
 261 324 308 347 322 367 c 0
 334 383 343 406 343 416 c 0
EndSplineSet
Comment: "char_L4_P15_x5204_y2612_x5418_y2933_UA+AD0APQAA.svg"
EndChar

StartChar: Q
Encoding: 81 81 49
Width: 538
VWidth: 188
Flags: HW
AnchorPoint: "lowerrightend" 494.899 11.4618 basechar 0
AnchorPoint: "upperright" 498 613 basechar 0
AnchorPoint: "bottom" 259 9 basechar 0
AnchorPoint: "top" 259 613 basechar 0
LayerCount: 2
Fore
SplineSet
51 151 m 0
 32 192 20 236 20 294 c 0
 20 323 23 354 29 374 c 0
 45 431 64 469 100 515 c 0
 122 544 175 588 193 594 c 0
 205 602 231 612 252 613 c 0
 253 613 l 0
 264 613 287 604 301 599 c 0
 308 599 340 586 353 577 c 0
 370 566 389 547 404 527 c 0
 421 503 446 450 458 418 c 0
 475 379 472 338 478 290 c 0
 478 279 473 275 473 265 c 0
 473 264 473 264 473 263 c 0
 471 225 448 174 433 148 c 1
 448 137 458 136 477 123 c 0
 505 106 494 116 519 92 c 2
 539 73 l 1
 538 63 l 2
 537 53 535 51 528 45 c 0
 521 40 504 21 496 19 c 0
 482 21 482 22 465 37 c 0
 449 52 429 65 395 82 c 2
 385 87 l 1
 376 78 l 2
 345 46 315 33 272 16 c 0
 255 12 235 9 222 9 c 0
 221 9 221 9 220 9 c 0
 217 10 211 11 206 11 c 0
 188 11 136 38 111 60 c 0
 85 83 75 100 51 151 c 0
247 519 m 0
 237 513 228 509 219 509 c 0
 215 509 210 510 206 512 c 0
 203 512 201 509 193 502 c 0
 179 489 152 458 141 443 c 0
 128 424 108 374 102 346 c 0
 99 330 98 324 98 307 c 2
 98 283 l 1
 99 226 103 211 130 161 c 0
 146 132 178 92 214 89 c 0
 225 87 229 86 233 85 c 0
 253 85 310 116 311 123 c 0
 310 126 299 133 297 135 c 0
 286 143 256 163 247 175 c 0
 240 182 233 190 230 192 c 0
 221 199 218 204 218 216 c 0
 218 221 220 224 228 234 c 0
 242 253 241 248 259 251 c 1
 278 242 313 214 339 198 c 2
 364 182 l 1
 373 198 l 2
 384 217 388 231 394 252 c 0
 398 265 398 270 398 302 c 0
 398 350 394 368 380 406 c 0
 366 441 350 476 336 491 c 1
 331 487 325 484 319 484 c 0
 314 484 309 486 306 490 c 0
 297 500 290 506 278 517 c 0
 271 523 267 526 262 526 c 0
 258 526 254 524 247 519 c 0
EndSplineSet
Comment: "char_L4_P16_x5513_y2608_x5791_y2932_UQ+AD0APQAA.svg"
EndChar

StartChar: R
Encoding: 82 82 50
Width: 446
VWidth: 605
Flags: HW
AnchorPoint: "lowerrightend" 358.284 -21.8264 basechar 0
AnchorPoint: "upperright" 406 605 basechar 0
AnchorPoint: "bottom" 213 -13 basechar 0
AnchorPoint: "top" 213 605 basechar 0
LayerCount: 2
Fore
SplineSet
253 604 m 0
 254 605 255 605 258 605 c 0
 286 604 334 594 347 587 c 0
 356 581 359 585 365 580 c 0
 369 575 373 577 376 571 c 0
 382 563 387 567 391 555 c 0
 395 544 398 546 400 537 c 0
 400 532 407 523 407 516 c 0
 407 515 l 0
 405 504 404 481 399 473 c 0
 391 451 380 428 366 411 c 0
 353 392 359 396 338 377 c 0
 302 338 243 308 191 284 c 1
 218 260 l 2
 233 247 248 232 251 228 c 0
 254 224 257 222 258 222 c 0
 264 220 309 175 315 162 c 1
 324 154 355 107 355 102 c 0
 355 101 355 101 356 101 c 0
 359 100 393 31 393 23 c 0
 392 17 391 10 386 6 c 0
 380 0 355 -13 350 -13 c 2
 349 -12 l 1
 324 -6 324 0 310 27 c 0
 292 62 274 92 262 106 c 0
 256 113 249 121 247 125 c 0
 233 148 128 230 108 261 c 1
 106 231 l 1
 106 230 106 230 106 229 c 0
 106 209 101 162 101 129 c 0
 101 122 101 115 102 110 c 0
 105 102 105 98 106 70 c 1
 106 57 l 2
 106 41 104 36 96 19 c 0
 91 10 88 5 83 5 c 0
 82 5 l 1
 81 3 79 3 74 3 c 0
 73 3 71 3 69 3 c 0
 67 3 66 3 64 3 c 0
 48 3 47 4 39 9 c 0
 32 14 30 16 25 29 c 2
 20 44 l 1
 21 92 l 1
 24 173 32 259 32 344 c 0
 32 372 31 400 29 427 c 0
 26 459 27 461 23 485 c 0
 23 504 32 527 37 535 c 0
 43 544 46 549 59 556 c 0
 66 560 74 564 77 566 c 0
 108 584 160 597 220 601 c 0
 237 602 252 603 253 604 c 0
94 490 m 0
 94 481 100 481 100 472 c 0
 100 471 l 0
 100 466 101 459 102 454 c 0
 105 440 109 382 109 361 c 2
 109 343 l 1
 123 346 l 2
 131 348 143 350 151 352 c 0
 183 359 245 396 278 427 c 0
 309 456 328 487 328 506 c 2
 328 515 l 1
 317 520 l 1
 294 532 277 530 252 534 c 0
 235 534 189 531 179 529 c 0
 120 519 94 506 94 490 c 0
EndSplineSet
Comment: "char_L7_P1_x262_y3959_x467_y4286_Ug+AD0APQAA.svg"
EndChar

StartChar: S
Encoding: 83 83 51
Width: 467
VWidth: 555
Flags: HW
AnchorPoint: "lowerrightend" 298.286 -7.76422 basechar 0
AnchorPoint: "upperright" 427 589 basechar 0
AnchorPoint: "bottom" 223.5 -7 basechar 0
AnchorPoint: "top" 223.5 589 basechar 0
LayerCount: 2
Fore
SplineSet
99 389 m 1
 101 374 99 365 107 362 c 1
 134 375 151 375 190 386 c 0
 233 397 247 399 275 399 c 0
 288 399 302 399 315 399 c 1
 340 386 l 2
 376 367 403 335 415 300 c 0
 423 277 427 251 427 224 c 0
 427 202 424 181 419 161 c 0
 409 116 388 81 342 36 c 0
 321 16 283 -7 241 -7 c 0
 233 -7 225 -7 217 -7 c 0
 190 -7 139 19 106 49 c 0
 86 67 70 85 67 92 c 0
 65 97 46 122 44 127 c 0
 44 130 38 133 38 136 c 0
 35 144 25 160 25 170 c 0
 25 171 25 171 25 172 c 0
 25 173 25 173 25 174 c 0
 25 187 48 204 56 204 c 0
 62 204 67 199 77 191 c 0
 91 179 92 177 125 140 c 0
 161 99 178 85 205 75 c 0
 213 72 226 70 238 70 c 0
 250 70 261 72 268 77 c 1
 281 79 324 130 331 142 c 0
 343 164 348 190 349 234 c 0
 349 269 343 286 323 304 c 0
 305 321 300 323 279 323 c 0
 243 323 164 301 151 297 c 0
 129 291 114 285 98 285 c 0
 93 285 88 286 83 287 c 0
 72 291 66 289 57 298 c 0
 41 313 34 322 32 332 c 0
 30 337 29 341 28 341 c 0
 24 343 20 370 20 391 c 0
 20 398 21 406 22 410 c 0
 26 440 43 465 55 488 c 0
 64 503 99 540 122 552 c 0
 162 575 163 574 206 587 c 0
 210 588 223 589 236 589 c 0
 246 589 255 589 259 588 c 0
 260 587 262 586 265 586 c 0
 284 586 349 554 356 542 c 0
 357 539 363 534 363 530 c 0
 364 519 374 520 375 511 c 0
 375 510 l 0
 375 503 364 478 352 478 c 0
 351 478 l 0
 348 478 346 479 342 481 c 0
 319 487 315 487 285 500 c 0
 269 508 253 511 237 511 c 0
 178 511 127 463 105 421 c 0
 100 411 99 408 99 400 c 2
 99 389 l 1
EndSplineSet
Comment: "char_L7_P24_x5225_y3967_x5441_y4283_Uw+AD0APQAA.svg"
EndChar

StartChar: T
Encoding: 84 84 52
Width: 445
VWidth: 614
Flags: HW
AnchorPoint: "lowerrightend" 214.066 33.6582 basechar 0
AnchorPoint: "upperright" 405 623 basechar 0
AnchorPoint: "bottom" 212.5 42 basechar 0
AnchorPoint: "top" 212.5 623 basechar 0
LayerCount: 2
Fore
SplineSet
237 500 m 0
 234 479 234 451 234 408 c 0
 234 322 237 202 238 140 c 1
 238 96 l 2
 238 67 237 63 235 61 c 0
 233 59 232 56 232 54 c 0
 230 47 222 42 213 42 c 0
 210 42 206 43 203 44 c 0
 184 46 177 44 164 54 c 0
 157 61 156 67 156 77 c 0
 156 78 156 79 156 80 c 2
 156 132 l 2
 156 214 153 301 153 394 c 0
 153 433 153 471 153 510 c 1
 131 506 110 498 85 496 c 1
 75 496 l 2
 57 496 35 502 27 510 c 2
 20 516 l 1
 21 533 l 2
 23 563 29 570 54 572 c 0
 63 573 79 575 88 577 c 0
 180 599 290 620 397 622 c 1
 429 623 l 1
 434 618 439 612 444 607 c 1
 445 586 l 2
 445 581 446 576 446 572 c 0
 446 564 444 557 438 552 c 0
 434 548 431 548 418 548 c 0
 389 547 390 544 353 541 c 0
 281 536 295 534 242 527 c 0
 236 526 234 521 234 516 c 0
 234 510 237 503 237 500 c 0
EndSplineSet
Comment: "char_L9_P36_x10529_y5316_x10745_y5610_VA+AD0APQAA.svg"
EndChar

StartChar: B
Encoding: 66 66 53
Width: 431
VWidth: 272
Flags: HW
AnchorPoint: "lowerrightend" 320.744 -18.6556 basechar 0
AnchorPoint: "upperright" 391 580 basechar 0
AnchorPoint: "bottom" 205.5 -19 basechar 0
AnchorPoint: "top" 205.5 580 basechar 0
LayerCount: 2
Fore
SplineSet
344 540 m 0
 346 540 352 532 355 532 c 0
 356 532 359 530 360 527 c 0
 363 521 372 512 374 512 c 0
 379 504 385 485 385 470 c 0
 385 467 385 464 384 461 c 0
 383 460 382 454 381 447 c 0
 379 428 368 404 351 382 c 0
 320 347 303 334 263 314 c 0
 259 312 256 311 256 310 c 0
 281 294 316 280 337 262 c 0
 341 258 345 254 346 254 c 0
 358 243 376 216 384 196 c 0
 388 187 392 157 392 132 c 0
 392 123 391 114 390 107 c 0
 390 90 380 64 377 49 c 0
 377 45 367 33 367 30 c 0
 367 26 345 5 333 -1 c 0
 327 -4 297 -13 285 -16 c 0
 275 -18 254 -19 234 -19 c 0
 214 -19 194 -18 183 -15 c 0
 164 -12 118 9 105 20 c 0
 103 22 98 23 87 23 c 0
 69 23 65 24 59 31 c 0
 52 39 50 57 48 150 c 0
 47 195 45 245 44 259 c 0
 33 355 43 333 31 414 c 0
 24 454 26 478 20 512 c 0
 21 527 24 525 43 533 c 0
 47 535 51 537 52 539 c 0
 57 550 80 548 87 555 c 0
 110 565 162 578 191 578 c 0
 192 578 192 578 193 578 c 0
 195 577 196 577 198 577 c 0
 203 577 207 580 213 580 c 0
 214 580 l 0
 242 579 281 573 303 562 c 0
 319 556 330 548 344 540 c 0
261 497 m 0
 250 497 228 504 211 504 c 0
 210 504 209 504 208 504 c 0
 170 504 121 493 99 487 c 0
 97 487 97 485 97 483 c 0
 97 478 102 471 102 465 c 0
 102 464 102 462 101 461 c 1
 101 460 l 0
 101 455 102 448 104 442 c 0
 113 416 111 334 117 289 c 0
 124 218 123 173 125 119 c 1
 127 95 l 1
 131 94 139 91 139 88 c 0
 139 83 179 61 193 59 c 0
 196 58 213 57 231 56 c 1
 253 56 l 1
 254 56 255 56 256 56 c 0
 272 56 291 65 299 69 c 0
 308 78 316 108 316 133 c 0
 316 138 316 142 315 146 c 0
 309 181 307 185 291 202 c 0
 277 213 244 232 199 254 c 0
 160 273 153 278 143 287 c 0
 133 295 131 300 131 309 c 0
 131 313 131 317 132 323 c 0
 132 330 134 337 135 339 c 0
 139 345 164 360 170 360 c 0
 175 360 194 366 221 377 c 0
 253 391 305 428 307 466 c 0
 307 468 307 470 305 473 c 0
 305 481 268 495 261 497 c 0
EndSplineSet
Comment: "char_L5_P25_x5722_y3073_x5924_y3397_Qg+AD0APQAA.svg"
EndChar

StartChar: U
Encoding: 85 85 54
Width: 454
VWidth: 434
Flags: HW
AnchorPoint: "lowerrightend" 236.6 -27.5568 basechar 0
AnchorPoint: "upperright" 413 589 basechar 0
AnchorPoint: "bottom" 216.5 -31 basechar 0
AnchorPoint: "top" 216.5 589 basechar 0
LayerCount: 2
Fore
SplineSet
305 511 m 0
 298 512 288 536 288 550 c 0
 288 551 288 551 288 552 c 0
 288 571 295 586 307 586 c 0
 315 588 320 589 326 589 c 0
 330 589 336 589 343 588 c 0
 350 585 373 566 375 552 c 0
 390 501 404 429 411 374 c 0
 413 362 413 343 413 323 c 0
 413 277 410 221 404 207 c 0
 396 178 377 141 355 105 c 0
 338 80 312 48 293 29 c 0
 283 18 258 -3 255 -3 c 0
 236 -11 210 -31 180 -31 c 0
 176 -31 172 -31 168 -30 c 0
 131 -25 117 -19 93 1 c 0
 88 6 67 32 67 34 c 0
 53 62 30 116 28 143 c 0
 22 182 20 218 20 259 c 0
 20 284 21 311 22 341 c 0
 23 373 31 439 35 448 c 0
 37 455 36 475 39 482 c 0
 44 502 40 499 51 527 c 0
 60 548 65 555 79 560 c 1
 99 550 l 2
 116 542 123 537 123 532 c 0
 123 531 l 0
 123 527 120 524 120 517 c 0
 120 516 l 0
 118 487 118 479 113 470 c 0
 108 452 110 442 105 410 c 0
 100 365 97 318 97 271 c 0
 97 221 101 172 111 127 c 0
 114 112 130 76 141 63 c 0
 149 53 161 47 174 47 c 0
 182 47 191 49 199 54 c 0
 221 64 271 117 285 140 c 0
 321 193 337 237 337 305 c 0
 337 315 337 327 336 338 c 0
 331 389 321 452 309 500 c 0
 308 506 306 511 305 511 c 0
EndSplineSet
Comment: "char_L7_P26_x5789_y3967_x5998_y4296_VQ+AD0APQAA.svg"
EndChar

StartChar: V
Encoding: 86 86 55
Width: 426
VWidth: 374
Flags: HW
AnchorPoint: "lowerrightend" 221.865 -5.65925 basechar 0
AnchorPoint: "upperright" 386 576 basechar 0
AnchorPoint: "bottom" 203 4 basechar 0
AnchorPoint: "top" 203 576 basechar 0
LayerCount: 2
Fore
SplineSet
94 192 m 0
 89 224 72 264 66 298 c 0
 60 329 47 349 41 379 c 0
 39 388 32 396 30 409 c 0
 28 423 21 432 20 445 c 0
 20 458 22 462 39 472 c 0
 52 479 54 481 60 481 c 0
 63 481 66 481 71 480 c 1
 89 453 l 1
 117 413 112 410 128 357 c 0
 142 310 149 285 161 241 c 0
 173 178 186 153 204 104 c 1
 210 127 218 149 221 176 c 0
 225 204 228 220 230 222 c 0
 231 223 232 227 232 230 c 0
 233 253 242 269 245 290 c 0
 263 378 276 414 302 517 c 0
 310 547 315 565 317 567 c 0
 328 578 330 575 352 576 c 0
 365 576 372 574 372 570 c 0
 372 569 373 567 375 566 c 0
 379 563 387 550 387 545 c 0
 363 432 327 322 307 208 c 0
 304 181 288 105 283 94 c 1
 284 93 l 1
 284 86 273 57 267 46 c 0
 260 33 241 11 236 11 c 0
 234 11 234 11 234 10 c 0
 234 7 227 4 218 4 c 0
 210 4 200 6 192 9 c 0
 167 15 169 24 158 36 c 0
 143 48 122 101 113 126 c 0
 112 127 96 172 94 192 c 0
EndSplineSet
Comment: "char_L7_P29_x6388_y3974_x6582_y4277_Vg+AD0APQAA.svg"
EndChar

StartChar: W
Encoding: 87 87 56
Width: 621
VWidth: 329
Flags: HW
AnchorPoint: "lowerrightend" 408.114 33.0234 basechar 0
AnchorPoint: "upperright" 581 624 basechar 0
AnchorPoint: "bottom" 300.5 -10 basechar 0
AnchorPoint: "top" 300.5 624 basechar 0
LayerCount: 2
Fore
SplineSet
496 322 m 0
 500 336 503 338 503 362 c 0
 503 364 503 366 503 368 c 0
 501 426 499 483 491 524 c 0
 489 541 486 554 484 555 c 0
 479 560 472 574 472 587 c 0
 472 588 l 0
 472 598 476 609 479 609 c 0
 484 611 494 624 503 624 c 0
 504 624 504 624 505 624 c 0
 517 624 534 614 542 610 c 1
 567 582 570 528 576 476 c 0
 579 460 578 374 582 360 c 0
 582 346 579 313 576 307 c 0
 571 290 569 259 562 249 c 0
 552 224 529 173 516 158 c 0
 511 151 494 123 486 113 c 0
 481 106 452 76 450 76 c 0
 439 69 413 46 398 43 c 1
 390 39 380 37 370 37 c 0
 357 37 345 40 334 42 c 0
 323 46 300 59 300 61 c 0
 293 69 280 92 274 101 c 0
 273 101 269 95 265 88 c 0
 242 47 238 39 219 21 c 0
 197 0 180 -7 157 -10 c 0
 138 -10 116 -1 107 10 c 0
 104 14 99 20 96 23 c 0
 90 29 76 57 76 61 c 0
 72 73 62 95 61 109 c 0
 50 174 46 234 43 322 c 0
 40 389 32 456 25 473 c 0
 22 481 20 494 20 505 c 0
 20 506 20 508 20 509 c 0
 20 526 28 520 42 532 c 0
 54 538 59 543 66 543 c 0
 69 543 71 542 75 541 c 0
 79 539 107 495 107 487 c 0
 113 477 114 458 116 442 c 0
 120 370 119 328 127 229 c 0
 131 170 129 170 138 127 c 0
 142 103 149 80 155 73 c 0
 156 71 157 71 158 71 c 0
 159 71 160 72 163 74 c 0
 173 82 194 116 229 180 c 0
 251 220 255 225 264 231 c 0
 272 236 283 240 293 240 c 0
 300 240 306 238 311 234 c 0
 314 229 328 227 328 218 c 0
 328 217 l 0
 329 209 333 207 333 202 c 0
 333 201 l 0
 333 194 337 171 341 152 c 0
 347 127 352 115 363 115 c 0
 368 115 373 117 381 122 c 0
 418 146 465 209 480 257 c 0
 488 277 493 297 496 322 c 0
EndSplineSet
Comment: "char_L6_P11_x2857_y3504_x3153_y3837_Vw+AD0APQAA.svg"
EndChar

StartChar: X
Encoding: 88 88 57
Width: 470
VWidth: 176
Flags: HW
AnchorPoint: "lowerrightend" 397.638 -11.7546 basechar 0
AnchorPoint: "upperright" 430 598 basechar 0
AnchorPoint: "bottom" 225 -2 basechar 0
AnchorPoint: "top" 225 598 basechar 0
LayerCount: 2
Fore
SplineSet
77 22 m 2
 75 22 65 15 62 15 c 2
 62 16 l 1
 57 16 22 39 21 43 c 0
 20 45 20 48 20 50 c 0
 20 73 41 95 49 114 c 0
 82 171 91 188 131 257 c 2
 166 316 l 1
 155 337 l 2
 139 366 148 355 130 384 c 0
 117 403 95 449 76 483 c 0
 73 487 58 516 41 550 c 0
 40 553 40 555 40 558 c 0
 40 561 40 565 41 570 c 0
 41 571 l 0
 41 581 70 598 78 598 c 0
 79 598 l 0
 90 598 101 579 109 572 c 0
 118 563 130 542 156 492 c 0
 181 444 171 466 195 422 c 2
 212 391 l 1
 235 430 l 2
 258 470 303 534 315 559 c 1
 315 560 315 560 315 561 c 0
 315 577 325 583 339 592 c 0
 344 595 351 597 358 597 c 0
 369 597 381 593 383 585 c 0
 388 577 399 577 399 563 c 0
 399 561 398 559 398 557 c 0
 397 545 396 542 370 503 c 0
 315 421 289 375 255 317 c 0
 255 313 261 304 279 273 c 0
 310 221 328 196 359 155 c 0
 389 116 399 97 418 66 c 0
 424 56 426 41 431 30 c 0
 431 28 429 25 427 20 c 0
 420 6 418 14 402 4 c 0
 396 0 390 -2 384 -2 c 0
 373 -2 362 5 357 14 c 0
 325 86 262 149 225 216 c 0
 217 229 211 240 210 240 c 0
 196 222 117 79 93 40 c 0
 84 26 80 21 78 21 c 2
 77 22 l 2
EndSplineSet
Comment: "char_L4_P23_x8099_y2616_x8319_y2938_WA+AD0APQAA.svg"
EndChar

StartChar: Y
Encoding: 89 89 58
Width: 521
VWidth: 171
Flags: HW
AnchorPoint: "lowerrightend" 248.128 -4.03462 basechar 0
AnchorPoint: "upperright" 481 566 basechar 0
AnchorPoint: "bottom" 250.5 3 basechar 0
AnchorPoint: "top" 250.5 566 basechar 0
LayerCount: 2
Fore
SplineSet
404 536 m 0
 404 537 404 537 404 538 c 0
 404 567 433 563 455 566 c 0
 465 566 470 561 476 548 c 0
 480 540 481 537 481 533 c 0
 481 531 481 528 480 524 c 0
 473 495 467 483 449 459 c 0
 429 431 398 391 370 352 c 0
 341 311 327 297 297 246 c 0
 288 231 288 229 285 208 c 0
 279 150 273 121 271 43 c 0
 271 22 268 13 261 10 c 0
 257 9 222 3 215 3 c 0
 208 3 200 11 199 19 c 0
 195 47 193 58 193 71 c 0
 193 80 194 90 196 109 c 0
 202 156 202 186 210 229 c 0
 210 232 208 233 203 238 c 0
 194 246 179 268 170 283 c 0
 149 320 71 434 65 438 c 0
 57 446 20 507 20 525 c 0
 20 534 23 543 30 549 c 0
 32 551 41 554 50 557 c 2
 65 562 l 1
 73 558 l 1
 87 554 102 517 113 501 c 0
 167 426 170 426 234 322 c 0
 241 311 246 305 246 305 c 1
 282 365 311 397 356 460 c 0
 398 517 404 526 404 536 c 0
EndSplineSet
Comment: "char_L4_P24_x8417_y2633_x8666_y2935_WQ+AD0APQAA.svg"
EndChar

StartChar: Z
Encoding: 90 90 59
Width: 509
VWidth: 193
Flags: HW
AnchorPoint: "lowerrightend" 436.812 24.1461 basechar 0
AnchorPoint: "upperright" 469 583 basechar 0
AnchorPoint: "bottom" 244.5 27 basechar 0
AnchorPoint: "top" 244.5 583 basechar 0
LayerCount: 2
Fore
SplineSet
398 32 m 0
 396 32 395 32 393 32 c 0
 372 32 330 37 301 37 c 0
 300 37 299 37 298 37 c 0
 245 37 195 31 139 30 c 0
 122 30 97 27 75 27 c 0
 57 27 42 28 37 34 c 0
 25 48 20 55 20 64 c 0
 20 71 23 78 28 91 c 0
 54 157 117 227 160 281 c 0
 193 322 307 438 356 489 c 0
 366 499 369 503 369 505 c 0
 369 506 369 506 368 506 c 0
 367 506 367 506 366 506 c 0
 365 506 l 0
 314 506 207 484 158 480 c 0
 136 478 118 475 97 472 c 0
 89 469 81 468 72 468 c 0
 56 468 55 469 44 491 c 0
 39 500 37 507 37 513 c 0
 37 525 47 531 66 539 c 0
 82 547 90 549 97 550 c 0
 124 552 186 560 261 571 c 0
 300 577 318 579 332 579 c 0
 347 580 344 583 366 583 c 0
 374 583 382 583 390 583 c 0
 402 582 433 574 435 572 c 0
 437 569 451 567 452 564 c 0
 452 563 453 562 455 561 c 0
 466 556 464 546 468 534 c 0
 469 531 469 527 469 524 c 0
 469 515 467 507 462 502 c 0
 455 492 458 491 447 476 c 0
 436 460 418 440 339 360 c 0
 270 290 235 251 190 198 c 0
 170 176 121 109 121 105 c 0
 121 104 124 104 130 104 c 0
 178 105 218 111 277 111 c 0
 283 111 289 111 295 111 c 0
 296 111 l 0
 320 111 455 110 455 105 c 0
 460 100 466 76 466 61 c 0
 466 60 466 59 466 58 c 0
 460 35 425 33 398 32 c 0
EndSplineSet
Comment: "char_L4_P25_x8746_y2624_x8987_y2922_Wg+AD0APQAA.svg"
EndChar

StartChar: I_hyphen_p_r_o_n_o_u_n
Encoding: 1114117 -1 60
Width: 449
VWidth: 189
Flags: HW
LayerCount: 2
Fore
SplineSet
273 25 m 0
 241 20 173 16 137 13 c 0
 136 13 l 0
 134 13 136 15 134 15 c 0
 133 15 l 0
 126 15 116 12 109 12 c 0
 108 12 108 12 107 12 c 0
 84 12 49 15 39 21 c 0
 27 28 20 26 20 46 c 2
 20 56 l 1
 21 75 22 76 26 81 c 0
 33 88 44 85 54 89 c 0
 60 90 66 91 72 91 c 0
 87 91 104 88 119 88 c 0
 124 88 128 88 132 89 c 0
 157 91 158 92 159 103 c 0
 168 178 168 248 173 325 c 0
 178 389 181 417 181 453 c 0
 181 464 181 476 180 490 c 1
 178 507 l 1
 140 507 l 2
 66 508 55 513 54 554 c 0
 54 565 57 568 70 577 c 2
 78 583 l 1
 120 583 l 2
 176 583 272 589 274 592 c 0
 274 593 282 593 290 593 c 0
 292 593 294 593 296 593 c 0
 297 593 297 593 298 593 c 0
 299 593 l 0
 333 593 348 607 376 611 c 0
 381 611 383 608 388 607 c 0
 392 603 408 578 410 571 c 0
 410 564 404 548 400 546 c 0
 388 537 389 531 364 526 c 0
 332 518 301 515 269 514 c 1
 258 513 l 1
 258 475 l 1
 256 364 245 267 242 155 c 0
 241 127 240 117 238 115 c 0
 236 114 235 109 235 105 c 0
 235 102 236 99 239 99 c 0
 246 103 269 104 291 104 c 0
 310 104 329 103 337 101 c 0
 341 99 344 99 347 99 c 0
 348 99 349 99 350 99 c 0
 353 99 355 99 359 97 c 0
 367 91 374 90 379 80 c 0
 386 68 390 70 391 48 c 0
 391 39 386 34 384 26 c 0
 383 22 382 22 381 22 c 0
 381 22 l 0
 380 22 379 22 377 20 c 0
 372 15 360 9 350 9 c 0
 345 9 339 11 336 15 c 0
 324 27 320 27 295 27 c 0
 284 27 274 26 273 25 c 0
EndSplineSet
Ligature2: "liga" I hyphen p r o n o u n
Comment: "char_L4_P26_x9173_y2609_x9382_y2932_SS1wcm9ub3Vu.svg"
EndChar

StartChar: C
Encoding: 67 67 61
Width: 428
VWidth: 188
Flags: HW
AnchorPoint: "lowerrightend" 341.892 34.466 basechar 0
AnchorPoint: "upperright" 388 619 basechar 0
AnchorPoint: "bottom" 204 5 basechar 0
AnchorPoint: "top" 204 619 basechar 0
LayerCount: 2
Fore
SplineSet
262 14 m 0
 248 11 230 5 209 5 c 0
 208 5 206 5 205 5 c 0
 182 5 157 8 140 14 c 0
 93 31 55 71 37 125 c 0
 35 131 32 137 31 138 c 0
 29 141 21 172 20 181 c 1
 20 225 l 1
 20 229 20 232 20 236 c 0
 20 278 33 336 43 365 c 0
 44 367 45 370 45 372 c 0
 45 377 54 402 58 407 c 0
 60 409 62 415 63 418 c 0
 65 427 85 465 101 492 c 0
 133 545 171 588 197 601 c 0
 217 610 233 619 254 619 c 0
 255 619 l 0
 271 619 289 615 295 611 c 0
 298 609 303 608 306 607 c 0
 311 606 334 592 344 585 c 0
 353 578 370 560 373 554 c 0
 379 545 391 526 391 512 c 0
 391 511 l 0
 390 502 388 500 377 493 c 0
 371 489 364 485 362 484 c 0
 361 484 361 484 360 484 c 0
 355 484 348 486 348 488 c 0
 348 489 347 490 345 490 c 0
 344 490 340 492 337 495 c 0
 329 503 297 527 284 534 c 0
 276 539 267 542 257 542 c 0
 250 542 243 541 237 537 c 0
 224 530 195 499 181 478 c 0
 159 441 138 413 124 366 c 0
 110 319 111 338 102 283 c 0
 99 266 97 243 97 221 c 0
 97 197 99 174 105 159 c 0
 115 125 132 104 159 88 c 0
 168 83 181 81 195 81 c 0
 218 81 243 86 258 92 c 0
 285 103 328 128 347 146 c 0
 368 164 369 166 383 170 c 0
 387 172 389 173 392 173 c 0
 398 173 403 169 410 164 c 0
 428 149 427 153 428 138 c 0
 428 115 386 78 374 70 c 0
 371 70 348 56 343 51 c 0
 334 44 270 14 262 14 c 0
EndSplineSet
Comment: "char_L4_P2_x828_y2605_x1048_y2934_Qw+AD0APQAA.svg"
EndChar

StartChar: D
Encoding: 68 68 62
Width: 500
VWidth: 376
Flags: HW
AnchorPoint: "lowerrightend" 297.155 73.7615 basechar 0
AnchorPoint: "upperright" 460 596 basechar 0
AnchorPoint: "bottom" 240 23 basechar 0
AnchorPoint: "top" 240 596 basechar 0
LayerCount: 2
Fore
SplineSet
130 27 m 0
 120 25 104 23 89 23 c 0
 80 23 72 24 65 26 c 0
 53 30 34 32 31 42 c 0
 30 45 29 48 28 48 c 0
 19 59 21 60 20 95 c 0
 20 144 24 131 25 181 c 0
 29 276 35 383 35 488 c 0
 35 499 35 511 35 522 c 0
 35 534 39 541 56 565 c 0
 70 587 70 577 88 585 c 0
 106 593 129 596 153 596 c 0
 197 596 246 585 272 572 c 0
 290 564 299 562 320 549 c 0
 331 542 341 537 342 537 c 0
 344 537 363 520 365 520 c 0
 367 520 383 503 386 503 c 0
 393 499 395 491 404 482 c 0
 421 463 421 462 433 438 c 0
 453 399 447 410 454 389 c 0
 456 388 458 357 460 356 c 0
 461 356 461 355 461 354 c 0
 461 352 460 351 460 350 c 0
 456 325 458 297 447 273 c 0
 442 259 438 245 437 242 c 0
 429 222 410 197 403 182 c 0
 403 179 367 143 350 128 c 0
 322 104 301 90 270 75 c 0
 259 69 249 63 248 62 c 0
 241 53 153 27 130 27 c 0
103 516 m 0
 110 492 111 459 111 423 c 0
 111 420 111 417 111 414 c 0
 111 329 105 176 98 115 c 0
 97 112 96 109 96 107 c 0
 96 104 98 101 103 101 c 0
 170 109 221 132 271 163 c 0
 280 169 301 189 318 205 c 0
 333 220 355 251 362 266 c 0
 369 289 380 320 380 349 c 0
 380 361 378 372 374 383 c 0
 373 385 369 392 367 398 c 0
 362 410 342 435 328 446 c 0
 315 458 277 490 264 495 c 0
 247 502 213 519 188 522 c 0
 170 526 155 527 143 527 c 0
 142 527 140 527 138 527 c 0
 125 527 103 522 103 517 c 0
 103 516 l 0
EndSplineSet
Comment: "char_L6_P5_x940_y3519_x1171_y3820_RA+AD0APQAA.svg"
EndChar

StartChar: E
Encoding: 69 69 63
Width: 474
VWidth: 541
Flags: HW
AnchorPoint: "lowerrightend" 398.805 22.1388 basechar 0
AnchorPoint: "upperright" 434 573 basechar 0
AnchorPoint: "bottom" 227 -26 basechar 0
AnchorPoint: "top" 227 573 basechar 0
LayerCount: 2
Fore
SplineSet
309 333 m 1
 312 331 313 327 313 321 c 0
 313 312 310 302 308 299 c 0
 304 294 279 282 274 282 c 0
 272 282 267 284 262 286 c 0
 254 294 206 294 172 294 c 2
 122 294 l 1
 121 262 l 1
 118 208 114 195 112 130 c 0
 112 128 112 125 112 123 c 0
 112 101 110 91 110 81 c 0
 110 73 111 66 116 55 c 1
 150 55 244 84 284 91 c 0
 314 99 341 104 380 105 c 0
 381 105 381 105 382 105 c 0
 394 105 388 102 398 102 c 0
 407 102 415 98 422 91 c 0
 428 85 428 84 428 69 c 0
 428 56 427 53 424 48 c 0
 418 39 404 32 384 32 c 0
 354 32 230 1 197 -9 c 0
 186 -14 123 -26 106 -26 c 0
 89 -26 50 -20 43 -16 c 0
 41 -15 38 -14 37 -14 c 0
 33 -12 20 2 20 12 c 0
 20 16 20 21 21 26 c 0
 23 39 24 41 29 46 c 0
 34 50 35 52 35 56 c 0
 35 58 34 61 34 65 c 0
 33 80 32 93 32 104 c 0
 32 136 37 163 42 246 c 0
 45 285 46 316 46 375 c 2
 46 453 l 1
 41 465 l 2
 38 472 36 479 36 482 c 0
 36 487 47 508 51 513 c 0
 66 525 82 520 104 528 c 0
 120 534 156 542 177 549 c 0
 206 561 252 562 284 570 c 0
 294 572 311 573 330 573 c 0
 365 573 405 570 411 563 c 1
 421 559 431 554 431 540 c 0
 431 539 431 538 431 537 c 0
 431 536 l 0
 431 530 434 525 435 520 c 0
 435 514 431 507 424 503 c 0
 420 501 416 497 415 495 c 0
 412 489 404 487 394 487 c 0
 393 487 l 0
 384 487 376 491 365 491 c 0
 364 491 362 491 360 491 c 0
 351 492 349 496 338 496 c 0
 337 496 335 496 334 496 c 0
 259 493 191 476 130 454 c 0
 125 453 124 452 124 444 c 0
 124 439 125 418 125 398 c 2
 125 361 l 1
 146 365 185 369 219 369 c 0
 229 369 239 369 247 368 c 0
 255 367 296 356 296 350 c 0
 300 343 309 343 309 333 c 1
EndSplineSet
Comment: "char_L7_P7_x1595_y3976_x1815_y4293_RQ+AD0APQAA.svg"
EndChar

StartChar: F
Encoding: 70 70 64
Width: 453
VWidth: 388
Flags: HW
AnchorPoint: "lowerrightend" 73.0982 20.5426 basechar 0
AnchorPoint: "upperright" 413 580 basechar 0
AnchorPoint: "bottom" 216.5 30 basechar 0
AnchorPoint: "top" 216.5 580 basechar 0
LayerCount: 2
Fore
SplineSet
158 579 m 0
 164 580 171 580 179 580 c 0
 213 580 259 574 277 570 c 0
 283 568 286 568 335 564 c 0
 410 558 432 557 436 554 c 0
 438 553 440 551 442 551 c 0
 445 551 453 538 453 527 c 0
 453 526 l 0
 453 510 440 485 430 483 c 0
 393 484 320 485 289 491 c 0
 263 494 203 503 185 503 c 0
 184 503 l 0
 169 503 168 499 162 489 c 0
 153 472 155 468 149 446 c 0
 140 408 130 347 128 317 c 2
 127 297 l 1
 136 298 l 2
 168 301 230 307 261 309 c 0
 265 308 302 307 304 304 c 0
 309 300 319 282 319 271 c 0
 319 270 l 0
 314 257 308 259 300 251 c 0
 287 234 251 232 222 228 c 0
 213 227 186 225 162 223 c 2
 119 220 l 1
 116 188 l 1
 110 136 106 104 94 59 c 0
 93 51 89 48 87 41 c 0
 86 36 75 30 68 30 c 0
 65 30 61 31 55 32 c 0
 26 36 25 39 20 58 c 1
 21 98 37 173 38 201 c 0
 49 320 47 337 64 429 c 0
 74 481 79 486 92 522 c 0
 94 529 99 535 102 542 c 0
 108 556 137 575 158 579 c 0
EndSplineSet
Comment: "char_L6_P2_x472_y3527_x701_y3816_Rg+AD0APQAA.svg"
EndChar

StartChar: G
Encoding: 71 71 65
Width: 482
VWidth: 187
Flags: HW
AnchorPoint: "lowerrightend" 302.612 20.7802 basechar 0
AnchorPoint: "upperright" 442 581 basechar 0
AnchorPoint: "bottom" 231 20 basechar 0
AnchorPoint: "top" 231 581 basechar 0
LayerCount: 2
Fore
SplineSet
220 311 m 0
 220 312 l 0
 220 319 227 329 232 329 c 0
 234 329 235 330 235 331 c 0
 240 335 294 343 336 343 c 0
 355 343 371 341 380 337 c 0
 392 333 407 325 419 320 c 0
 425 318 431 309 431 303 c 0
 431 302 433 301 434 300 c 0
 439 299 441 273 443 258 c 0
 443 233 428 174 420 163 c 0
 415 156 405 135 399 128 c 0
 395 123 392 118 392 117 c 0
 390 108 341 55 320 45 c 1
 315 45 299 32 293 31 c 0
 279 23 259 20 239 20 c 0
 218 20 197 24 181 30 c 0
 158 37 162 38 148 43 c 0
 138 46 131 53 122 57 c 0
 111 63 74 100 69 110 c 0
 65 113 57 135 51 141 c 0
 44 147 32 198 28 217 c 0
 25 233 20 264 20 291 c 0
 20 298 20 304 21 310 c 0
 23 331 26 378 33 387 c 0
 35 392 41 413 43 420 c 0
 46 438 92 517 109 533 c 0
 125 548 169 575 177 575 c 0
 184 577 186 581 197 581 c 0
 203 581 209 581 215 581 c 0
 276 581 317 562 364 545 c 0
 388 536 386 536 402 528 c 0
 415 522 421 515 421 504 c 0
 421 497 419 490 414 481 c 0
 409 471 404 462 402 461 c 0
 397 460 393 460 390 460 c 0
 378 460 374 465 353 470 c 0
 281 491 304 489 243 504 c 0
 238 506 233 507 227 507 c 0
 210 507 191 501 183 497 c 0
 174 492 150 470 150 467 c 0
 145 457 125 427 124 420 c 0
 120 410 103 373 103 359 c 0
 101 342 96 325 96 306 c 0
 96 299 97 293 98 286 c 0
 100 255 105 230 109 206 c 0
 110 197 114 187 122 171 c 0
 133 149 135 147 152 132 c 0
 162 123 172 115 176 113 c 0
 194 106 216 96 238 96 c 0
 244 96 251 97 257 99 c 0
 293 107 343 171 355 208 c 0
 358 216 366 254 366 260 c 0
 366 262 346 267 332 267 c 0
 331 267 329 267 328 267 c 0
 309 267 270 262 250 262 c 0
 244 262 239 263 238 264 c 0
 227 272 223 277 221 301 c 0
 221 305 220 309 220 311 c 0
EndSplineSet
Comment: "char_L4_P6_x2155_y2625_x2381_y2926_Rw+AD0APQAA.svg"
EndChar

StartChar: H
Encoding: 72 72 66
Width: 432
VWidth: 486
Flags: HW
AnchorPoint: "lowerrightend" 348.907 -4.50196 basechar 0
AnchorPoint: "upperright" 392 548 basechar 0
AnchorPoint: "bottom" 206 5 basechar 0
AnchorPoint: "top" 206 548 basechar 0
LayerCount: 2
Fore
SplineSet
124 315 m 1
 181 322 234 335 268 335 c 0
 274 335 278 335 283 334 c 1
 306 333 l 1
 306 355 313 435 313 460 c 0
 316 520 316 535 333 547 c 1
 355 545 l 2
 375 543 378 542 383 537 c 0
 391 530 391 522 391 510 c 2
 391 500 l 2
 391 493 391 485 392 474 c 0
 392 468 392 462 392 456 c 0
 391 351 377 219 377 122 c 0
 377 83 379 57 383 43 c 0
 384 41 384 39 384 37 c 0
 384 29 378 24 372 20 c 0
 347 8 352 7 335 5 c 0
 329 5 323 7 319 11 c 0
 303 27 302 31 298 63 c 0
 297 80 296 109 296 138 c 0
 296 168 297 198 298 218 c 2
 300 253 l 1
 292 254 285 254 278 254 c 0
 251 254 228 249 174 241 c 0
 148 235 135 239 116 231 c 1
 114 204 l 2
 109 149 107 80 99 29 c 0
 97 22 92 15 88 15 c 0
 84 11 79 10 73 10 c 0
 68 10 63 11 56 11 c 0
 43 12 33 13 33 14 c 0
 28 21 20 31 20 46 c 0
 20 47 20 47 20 48 c 0
 20 73 28 109 28 129 c 0
 28 130 l 0
 32 246 43 271 48 434 c 0
 52 517 54 530 58 536 c 0
 67 546 72 548 95 548 c 0
 98 548 101 548 103 548 c 0
 123 548 119 540 124 528 c 0
 127 528 129 496 129 456 c 0
 129 409 127 351 124 315 c 1
EndSplineSet
Comment: "char_L9_P27_x8646_y5354_x8835_y5629_SA+AD0APQAA.svg"
EndChar

StartChar: I
Encoding: 73 73 67
Width: 156
VWidth: 171
Flags: HW
AnchorPoint: "lowerrightend" 91.7522 -4.9978 basechar 0
AnchorPoint: "upperright" 116 565 basechar 0
AnchorPoint: "bottom" 68 5 basechar 0
AnchorPoint: "top" 68 565 basechar 0
LayerCount: 2
Fore
SplineSet
117 40 m 0
 117 14 109 5 81 5 c 0
 79 5 76 5 73 5 c 0
 58 5 55 7 46 21 c 0
 42 28 40 34 37 52 c 0
 31 88 30 109 27 219 c 0
 23 341 20 378 20 499 c 0
 22 540 30 561 43 563 c 0
 46 563 58 565 67 565 c 0
 68 565 68 565 69 565 c 0
 89 565 92 562 95 551 c 0
 98 535 98 347 100 325 c 0
 102 260 104 78 114 58 c 0
 116 55 117 47 117 40 c 0
EndSplineSet
Comment: "char_L4_P8_x2852_y2634_x2905_y2934_SQ+AD0APQAA.svg"
EndChar

StartChar: J
Encoding: 74 74 68
Width: 511
VWidth: 191
Flags: HW
AnchorPoint: "lowerrightend" 213.278 26.1881 basechar 0
AnchorPoint: "upperright" 471 589 basechar 0
AnchorPoint: "bottom" 245.5 22 basechar 0
AnchorPoint: "top" 245.5 589 basechar 0
LayerCount: 2
Fore
SplineSet
250 485 m 0
 249 485 l 0
 241 485 202 473 179 473 c 0
 178 473 178 473 177 473 c 0
 158 473 135 477 125 484 c 0
 118 488 115 494 115 501 c 0
 115 505 116 510 117 515 c 0
 119 531 119 532 125 538 c 0
 133 545 143 548 172 550 c 0
 268 555 345 589 441 589 c 2
 460 589 l 1
 501 588 505 587 510 577 c 0
 511 572 512 569 512 565 c 0
 512 559 511 552 510 541 c 0
 508 523 508 523 501 519 c 0
 496 516 494 514 483 514 c 2
 469 514 l 1
 464 514 459 515 453 515 c 0
 415 515 358 506 352 504 c 0
 351 502 328 500 328 497 c 0
 335 466 349 407 349 378 c 0
 349 377 349 377 349 376 c 0
 349 352 352 357 352 337 c 0
 352 334 352 331 352 328 c 0
 352 324 352 320 352 316 c 0
 352 267 343 237 334 198 c 0
 334 187 313 142 299 122 c 0
 292 112 297 115 292 109 c 0
 290 107 289 107 289 105 c 0
 289 104 l 0
 289 102 255 67 248 62 c 0
 244 60 241 57 240 56 c 0
 236 51 206 36 189 31 c 0
 170 27 155 22 140 22 c 0
 132 22 124 23 116 27 c 0
 97 32 79 42 63 51 c 0
 61 51 35 79 32 85 c 0
 24 102 20 109 20 120 c 0
 20 123 20 128 21 132 c 0
 23 147 26 150 47 155 c 0
 57 157 61 158 67 158 c 0
 68 158 68 158 69 158 c 0
 74 156 85 146 89 139 c 0
 97 125 109 113 124 105 c 2
 139 97 l 1
 157 102 l 1
 184 108 190 110 212 133 c 0
 229 151 234 156 244 176 c 0
 259 201 274 263 275 316 c 0
 274 391 271 404 257 465 c 0
 254 480 252 485 250 485 c 0
EndSplineSet
Comment: "char_L4_P9_x3038_y2621_x3302_y2925_Sg+AD0APQAA.svg"
EndChar

StartChar: E_A
Encoding: 1114118 -1 69
Width: 920
VWidth: 12
Flags: HW
LayerCount: 2
Fore
SplineSet
28 486 m 0
 21 496 20 496 20 503 c 0
 20 504 20 506 20 507 c 0
 20 521 30 528 36 536 c 0
 41 541 48 543 56 550 c 0
 65 557 83 568 88 568 c 0
 111 577 141 588 166 594 c 0
 167 594 l 0
 168 594 168 594 168 594 c 0
 169 594 170 594 171 595 c 0
 177 600 227 611 263 615 c 1
 277 615 l 2
 300 615 339 613 351 612 c 0
 375 609 367 609 377 604 c 0
 381 603 382 596 385 595 c 0
 388 592 387 578 390 575 c 0
 391 574 392 572 392 571 c 0
 392 568 389 565 389 561 c 0
 389 559 380 555 380 552 c 0
 380 548 371 546 369 543 c 0
 366 540 355 537 346 537 c 0
 343 537 341 537 339 538 c 0
 326 540 313 541 300 541 c 0
 266 541 231 535 196 526 c 0
 177 521 113 496 109 492 c 1
 115 460 121 441 124 401 c 0
 127 362 126 362 133 362 c 0
 161 366 191 371 217 371 c 0
 242 371 264 366 279 350 c 0
 285 347 288 339 288 331 c 0
 288 330 288 330 288 329 c 0
 288 323 284 318 284 311 c 0
 284 311 284 311 284 310 c 0
 284 306 279 298 275 298 c 0
 271 297 265 287 258 287 c 0
 257 287 l 2
 247 287 l 2
 233 287 234 292 225 296 c 1
 224 296 223 296 222 296 c 0
 202 296 164 291 140 288 c 0
 137 288 135 289 132 290 c 1
 132 266 l 1
 134 245 133 118 140 104 c 1
 150 108 l 2
 155 110 161 112 163 113 c 0
 172 118 237 134 256 136 c 0
 262 137 268 138 269 139 c 0
 273 142 324 149 352 149 c 0
 373 149 413 142 419 136 c 0
 421 136 422 143 426 179 c 0
 433 250 448 310 463 373 c 0
 480 433 512 507 539 545 c 0
 551 562 575 588 579 588 c 0
 592 594 602 604 617 607 c 0
 621 607 624 607 626 608 c 0
 627 608 628 608 629 608 c 0
 666 608 687 591 714 574 c 0
 715 574 744 545 755 534 c 0
 783 504 818 446 838 398 c 0
 852 363 867 314 867 301 c 0
 867 297 868 292 869 289 c 0
 876 270 880 232 880 164 c 2
 880 147 l 2
 880 109 879 77 879 75 c 0
 878 70 861 55 855 54 c 0
 848 52 846 48 838 48 c 0
 833 48 827 50 824 53 c 0
 814 60 812 55 805 72 c 0
 802 78 801 83 801 89 c 0
 803 101 804 131 804 161 c 0
 804 192 803 223 801 234 c 0
 799 250 791 288 789 303 c 0
 788 313 786 326 785 326 c 0
 767 312 777 309 733 309 c 0
 694 308 609 301 601 299 c 0
 591 296 564 291 556 286 c 0
 543 280 544 283 529 278 c 0
 516 274 517 275 514 252 c 0
 508 210 501 174 498 134 c 0
 494 91 491 79 480 73 c 0
 478 72 474 71 470 71 c 0
 458 71 440 75 431 75 c 0
 430 75 429 75 429 75 c 0
 428 75 l 0
 418 75 416 70 405 70 c 0
 404 70 403 70 402 70 c 0
 401 70 399 70 398 70 c 0
 385 70 366 73 354 73 c 0
 272 72 200 44 131 27 c 0
 121 24 113 23 106 23 c 0
 87 23 82 34 77 52 c 0
 76 56 65 68 65 73 c 0
 59 91 59 216 57 252 c 0
 53 318 51 394 40 450 c 0
 33 470 42 470 28 486 c 0
652 526 m 0
 647 529 642 531 637 531 c 0
 633 531 628 530 624 527 c 0
 617 522 599 501 592 489 c 0
 582 472 566 437 565 432 c 0
 564 425 553 397 549 395 c 0
 549 393 548 386 545 379 c 2
 539 363 l 1
 574 369 607 377 648 379 c 0
 680 381 677 384 711 384 c 0
 714 384 716 384 719 384 c 0
 743 384 762 384 762 385 c 0
 754 404 725 453 710 471 c 0
 700 484 665 517 652 526 c 0
EndSplineSet
Ligature2: "liga" E A
Comment: "char_L5_P20_x4474_y3054_x4938_y3374_RUE+AD0A.svg"
EndChar

StartChar: C_O
Encoding: 1114119 -1 70
Width: 776
VWidth: 91
Flags: HW
LayerCount: 2
Fore
SplineSet
362 128 m 0
 363 128 363 128 364 128 c 0
 370 128 378 119 382 119 c 0
 382 120 381 121 379 123 c 0
 375 126 359 160 355 172 c 0
 349 200 340 222 340 254 c 0
 340 257 340 259 340 262 c 0
 340 285 341 313 343 323 c 0
 346 343 350 372 358 392 c 0
 366 418 367 432 379 452 c 0
 391 469 401 492 409 503 c 0
 419 519 444 547 447 547 c 0
 448 547 451 549 453 551 c 0
 467 565 495 580 522 580 c 0
 526 580 530 580 533 579 c 0
 554 574 559 571 575 555 c 0
 592 536 599 540 615 529 c 0
 617 529 635 516 637 516 c 0
 657 505 710 430 714 413 c 0
 733 368 736 335 736 279 c 0
 736 278 736 278 736 277 c 0
 735 262 731 262 729 250 c 0
 726 232 713 200 706 193 c 0
 703 190 700 187 700 185 c 0
 700 184 700 182 699 182 c 0
 698 182 693 177 688 170 c 0
 673 148 632 110 613 99 c 0
 598 90 555 65 539 64 c 0
 528 62 508 58 491 58 c 0
 490 58 488 58 487 58 c 0
 477 60 453 62 449 67 c 0
 449 68 416 84 415 85 c 0
 413 88 393 104 392 104 c 0
 391 100 384 90 383 85 c 0
 381 71 379 67 371 59 c 0
 362 50 342 39 327 34 c 0
 323 33 319 31 318 30 c 0
 314 27 278 19 262 18 c 1
 249 18 l 2
 215 18 164 24 156 30 c 0
 155 31 151 32 146 34 c 0
 126 41 83 76 70 96 c 0
 70 97 68 101 65 105 c 0
 53 121 33 163 33 173 c 0
 33 176 32 183 30 187 c 0
 23 200 20 241 20 277 c 0
 20 297 21 315 22 328 c 0
 38 420 48 447 100 532 c 0
 110 548 146 581 154 581 c 0
 155 581 157 581 158 582 c 0
 165 585 190 595 203 595 c 0
 204 595 l 0
 216 595 230 593 241 589 c 0
 260 584 271 571 287 559 c 0
 292 555 298 548 301 544 c 0
 306 536 320 497 320 491 c 1
 320 487 303 466 290 464 c 0
 286 462 283 461 280 461 c 0
 276 461 273 463 270 467 c 0
 269 470 244 496 243 499 c 0
 241 504 212 521 207 521 c 0
 200 521 182 511 172 500 c 0
 152 479 125 431 115 398 c 0
 107 364 96 333 96 286 c 2
 96 273 l 2
 96 231 98 219 108 190 c 0
 112 180 115 170 115 168 c 0
 117 159 130 141 148 124 c 0
 165 107 166 106 182 100 c 2
 199 94 l 1
 233 94 l 2
 265 94 269 94 287 99 c 0
 310 105 322 110 331 116 c 0
 337 122 344 119 349 124 c 0
 353 126 357 128 362 128 c 0
606 439 m 1
 606 439 585 430 579 430 c 0
 578 430 l 0
 573 430 571 433 569 438 c 0
 565 448 560 446 554 457 c 0
 551 463 548 467 547 467 c 0
 542 464 537 463 534 463 c 0
 527 463 522 469 513 479 c 0
 507 486 501 492 500 492 c 0
 498 492 476 467 470 458 c 0
 461 445 441 409 440 403 c 0
 429 372 415 319 415 283 c 0
 415 280 415 278 415 276 c 0
 415 259 417 242 420 224 c 0
 430 163 459 134 498 134 c 0
 517 134 538 140 560 153 c 0
 600 176 634 213 648 250 c 0
 654 264 659 263 660 282 c 1
 660 294 l 1
 659 349 644 395 620 423 c 0
 610 435 608 439 606 439 c 1
EndSplineSet
Ligature2: "liga" C O
Comment: "char_L5_P34_x7615_y3065_x8003_y3377_Q08+AD0A.svg"
EndChar

StartChar: C_R
Encoding: 1114120 -1 71
Width: 778
VWidth: 113
Flags: HW
LayerCount: 2
Fore
SplineSet
255 427 m 0
 254 435 252 439 252 454 c 0
 252 455 252 455 252 456 c 0
 252 473 251 476 246 486 c 0
 240 495 239 496 234 496 c 0
 233 496 l 0
 214 495 190 479 168 453 c 0
 136 416 126 397 108 341 c 0
 101 320 97 292 97 260 c 0
 97 255 97 250 97 245 c 0
 98 212 101 203 112 177 c 0
 126 145 147 125 176 118 c 0
 183 116 191 115 200 115 c 0
 230 115 265 125 277 131 c 0
 289 137 285 132 293 138 c 0
 296 140 301 142 306 142 c 0
 307 142 l 0
 315 142 326 159 332 159 c 0
 334 159 341 155 346 150 c 2
 355 142 l 1
 357 173 l 2
 359 209 357 260 360 291 c 0
 360 326 358 400 356 408 c 0
 354 418 354 426 354 434 c 2
 354 450 l 2
 354 457 353 468 353 478 c 0
 353 495 354 511 360 515 c 0
 363 518 370 521 381 523 c 0
 396 526 398 527 402 533 c 0
 419 559 444 583 469 598 c 0
 487 609 491 611 494 611 c 0
 505 615 519 617 533 617 c 0
 561 617 592 610 606 600 c 0
 627 587 650 581 669 564 c 0
 682 553 684 557 690 549 c 0
 694 542 696 548 700 540 c 0
 705 532 705 536 709 527 c 0
 711 523 715 519 716 518 c 0
 723 512 733 487 734 477 c 0
 735 466 739 463 739 455 c 0
 739 455 739 454 739 453 c 0
 739 448 736 441 736 436 c 0
 736 435 736 433 737 432 c 0
 734 411 715 377 704 363 c 0
 702 361 700 359 700 358 c 0
 700 354 667 325 652 317 c 0
 630 305 626 299 599 291 c 0
 576 284 577 282 558 279 c 1
 565 273 l 2
 574 265 612 237 613 237 c 0
 617 237 666 191 670 183 c 0
 676 175 692 152 699 142 c 0
 713 117 722 79 726 46 c 0
 726 43 726 39 726 36 c 0
 726 32 725 29 720 24 c 0
 713 16 712 15 683 13 c 2
 669 12 l 1
 661 20 l 2
 648 33 657 35 648 61 c 0
 636 107 621 129 580 165 c 0
 554 188 490 237 470 249 c 0
 459 255 438 272 437 275 c 1
 436 258 432 176 432 130 c 1
 432 126 432 122 432 119 c 0
 432 98 436 96 438 76 c 0
 439 75 439 74 439 73 c 0
 439 70 436 66 432 60 c 0
 422 43 416 48 402 43 c 0
 398 42 395 41 392 41 c 0
 380 41 370 50 361 63 c 0
 357 70 357 74 356 103 c 0
 355 126 355 133 354 133 c 0
 349 129 342 106 341 101 c 0
 341 96 323 75 317 72 c 0
 314 71 309 67 306 65 c 0
 277 46 246 40 200 39 c 0
 199 39 199 39 198 39 c 0
 183 39 171 43 159 44 c 0
 152 44 121 56 121 59 c 0
 121 60 115 63 108 68 c 0
 86 82 63 107 49 134 c 0
 36 162 20 212 20 255 c 0
 20 261 20 266 21 271 c 0
 23 300 25 330 35 361 c 0
 52 416 63 439 99 488 c 0
 109 502 141 536 145 536 c 0
 148 536 169 552 172 553 c 0
 174 554 177 555 179 557 c 0
 191 566 213 572 235 572 c 0
 249 572 263 569 273 563 c 0
 281 557 301 546 302 537 c 0
 302 535 313 523 313 522 c 0
 315 513 317 503 318 488 c 1
 318 477 l 1
 318 476 318 475 318 474 c 0
 318 463 306 440 306 434 c 0
 306 430 300 430 300 427 c 0
 299 423 290 412 283 412 c 0
 282 412 282 412 281 412 c 0
 278 412 274 413 268 414 c 0
 258 416 255 419 255 427 c 0
433 454 m 0
 432 450 432 444 432 439 c 0
 432 422 435 404 436 391 c 0
 436 385 435 381 435 370 c 2
 435 358 l 1
 436 331 l 1
 448 343 448 344 485 346 c 0
 514 348 521 349 543 353 c 0
 578 364 598 371 608 377 c 0
 621 385 643 406 651 419 c 0
 656 427 660 445 660 457 c 0
 660 458 660 458 660 459 c 0
 656 489 588 535 547 541 c 0
 540 543 534 544 528 544 c 0
 522 544 515 543 509 539 c 0
 481 524 457 499 441 467 c 0
 438 461 434 455 433 454 c 0
EndSplineSet
Ligature2: "liga" C R
Comment: "char_L5_P40_x9038_y3053_x9427_y3380_Q1I+AD0A.svg"
EndChar

StartChar: O_C_H
Encoding: 1114121 -1 72
Width: 1224
VWidth: -222
Flags: HW
LayerCount: 2
Fore
SplineSet
48 98 m 0
 35 129 20 164 20 211 c 0
 20 214 20 217 20 220 c 0
 20 221 20 223 20 224 c 0
 20 293 35 357 55 402 c 0
 95 488 84 459 124 524 c 0
 125 528 153 556 155 556 c 0
 156 556 162 561 168 566 c 0
 189 582 205 590 230 590 c 0
 235 590 241 590 247 589 c 0
 255 588 262 580 272 564 c 0
 280 551 281 548 286 548 c 0
 289 548 293 549 300 549 c 0
 311 549 324 548 334 545 c 0
 396 526 445 471 462 400 c 0
 466 384 467 376 467 361 c 2
 467 335 l 2
 467 326 466 323 466 317 c 0
 466 316 466 315 466 314 c 1
 482 402 511 458 554 526 c 0
 554 531 600 580 605 580 c 0
 616 585 630 594 645 594 c 0
 646 594 l 0
 651 595 655 595 659 595 c 0
 666 595 672 594 682 590 c 0
 699 588 737 544 737 530 c 0
 737 529 740 523 744 516 c 0
 749 506 750 499 750 486 c 0
 750 485 750 484 750 482 c 0
 750 467 748 465 733 458 c 0
 728 455 724 454 721 454 c 0
 715 454 710 458 705 464 c 0
 696 471 694 480 686 485 c 0
 684 486 681 488 680 491 c 0
 675 502 665 516 655 521 c 1
 620 504 572 420 552 352 c 0
 546 324 537 296 537 258 c 0
 537 252 537 247 537 241 c 0
 537 201 540 188 551 156 c 0
 560 130 562 128 581 109 c 0
 604 87 608 81 647 81 c 0
 649 81 651 81 654 81 c 0
 699 81 739 101 773 114 c 0
 783 115 786 117 796 125 c 0
 806 132 807 134 816 134 c 0
 817 134 817 134 818 134 c 1
 819 177 l 2
 820 201 821 236 822 256 c 1
 822 282 l 2
 822 292 822 295 820 299 c 0
 817 303 816 314 816 324 c 0
 816 333 817 342 819 346 c 0
 822 351 823 364 823 380 c 0
 823 381 823 383 823 384 c 0
 823 425 820 433 820 470 c 0
 820 473 820 476 820 479 c 0
 820 510 821 546 825 549 c 0
 830 556 833 558 857 558 c 0
 859 558 860 558 862 558 c 0
 871 558 879 557 882 553 c 0
 888 548 886 543 889 536 c 0
 892 530 897 471 898 414 c 2
 899 362 l 1
 902 360 948 360 994 360 c 2
 1086 360 l 1
 1092 404 1104 489 1106 525 c 0
 1110 562 1113 574 1127 586 c 1
 1147 585 l 2
 1158 584 1167 583 1168 582 c 0
 1169 581 1171 580 1172 580 c 0
 1175 580 1181 573 1184 567 c 1
 1184 557 l 2
 1184 502 1156 329 1154 300 c 0
 1150 263 1142 201 1142 155 c 0
 1142 147 1142 139 1143 132 c 0
 1147 119 1147 81 1154 72 c 0
 1157 65 1160 60 1161 60 c 0
 1164 60 1171 52 1172 48 c 0
 1173 43 1174 37 1174 32 c 0
 1174 23 1172 15 1165 13 c 0
 1162 12 1158 9 1157 6 c 0
 1154 0 1146 -3 1137 -3 c 0
 1127 -3 1116 1 1112 6 c 0
 1077 35 1068 73 1068 145 c 0
 1068 147 1068 149 1068 151 c 0
 1068 208 1070 268 1075 282 c 0
 1075 284 1074 284 1072 285 c 0
 1070 286 1057 286 1040 286 c 0
 1012 286 973 285 945 285 c 0
 928 285 915 285 913 286 c 2
 899 288 l 1
 898 244 l 1
 898 242 898 239 898 237 c 0
 898 209 895 175 895 143 c 0
 895 122 896 103 901 87 c 1
 897 70 892 76 880 62 c 0
 870 52 868 51 861 51 c 0
 847 52 822 71 822 80 c 1
 820 88 l 1
 815 78 l 2
 808 66 804 56 793 49 c 0
 789 46 785 43 784 41 c 0
 781 37 748 23 743 23 c 0
 719 17 691 9 661 7 c 0
 657 7 653 7 649 7 c 0
 619 7 591 14 565 26 c 0
 552 33 526 53 524 57 c 0
 523 58 519 65 513 71 c 0
 481 113 461 164 461 236 c 0
 461 251 461 266 461 281 c 1
 456 267 l 2
 449 247 440 230 430 211 c 0
 424 203 406 175 399 166 c 0
 383 145 318 84 312 84 c 0
 311 84 309 82 307 80 c 0
 278 58 220 29 168 29 c 0
 163 29 159 30 154 30 c 0
 144 33 116 39 108 44 c 0
 98 50 87 55 79 63 c 0
 76 66 72 69 71 69 c 0
 68 70 48 95 48 98 c 0
302 476 m 0
 302 476 302 476 301 476 c 0
 293 476 272 467 266 465 c 0
 261 465 251 470 247 474 c 0
 235 488 234 502 222 514 c 0
 219 514 191 486 181 474 c 0
 132 409 97 324 96 222 c 0
 96 215 96 209 96 202 c 0
 96 177 109 155 114 138 c 0
 117 130 133 114 142 110 c 0
 149 107 159 106 169 106 c 0
 182 106 196 108 206 112 c 0
 231 120 243 127 266 143 c 0
 290 160 331 201 345 221 c 0
 351 230 358 238 360 240 c 0
 371 257 388 300 391 334 c 0
 391 337 391 340 391 343 c 0
 391 366 385 388 381 404 c 0
 369 436 340 470 302 476 c 0
461 287 m 1
 463 290 465 296 465 301 c 0
 465 303 465 305 464 307 c 1
 464 300 463 293 461 287 c 1
EndSplineSet
Ligature2: "liga" O C H
Comment: "char_L5_P41_x9424_y3065_x10054_y3388_T0NI.svg"
EndChar

StartChar: E_E
Encoding: 1114122 -1 73
Width: 901
VWidth: -1
Flags: HW
LayerCount: 2
Fore
SplineSet
503 82 m 0
 504 78 504 74 509 74 c 0
 548 81 554 87 608 94 c 0
 659 104 717 112 784 114 c 0
 801 114 818 113 830 109 c 0
 837 104 842 100 845 87 c 0
 847 79 848 74 848 70 c 0
 848 63 845 59 837 51 c 2
 825 39 l 1
 797 38 l 2
 717 36 644 21 572 8 c 0
 531 -1 514 -4 492 -4 c 0
 472 -4 471 -4 463 2 c 0
 452 11 438 9 430 19 c 0
 429 21 427 28 425 36 c 2
 422 50 l 1
 410 38 409 33 386 33 c 0
 380 33 375 33 369 33 c 0
 368 33 367 33 366 33 c 0
 350 33 332 35 315 35 c 0
 309 35 303 35 297 34 c 0
 261 29 205 24 175 15 c 0
 140 8 117 1 90 1 c 0
 80 1 70 2 58 4 c 0
 51 4 44 14 42 25 c 0
 41 35 36 43 25 55 c 0
 21 60 20 62 20 71 c 2
 20 81 l 2
 20 117 33 186 33 209 c 0
 33 210 l 0
 35 238 43 302 47 332 c 0
 48 333 48 379 49 434 c 0
 50 511 51 536 53 540 c 0
 55 545 65 551 71 551 c 0
 98 560 128 571 165 571 c 0
 167 571 168 571 170 571 c 0
 207 573 312 576 379 576 c 0
 407 576 427 576 434 574 c 0
 441 571 438 568 446 565 c 0
 451 562 458 554 458 549 c 0
 458 548 458 548 457 547 c 1
 457 546 l 0
 457 542 461 538 461 533 c 0
 461 531 459 528 459 527 c 0
 459 527 461 527 462 528 c 0
 465 531 496 535 498 539 c 0
 512 550 533 555 554 559 c 0
 618 577 726 588 824 588 c 0
 827 588 830 588 833 588 c 0
 838 588 844 579 848 578 c 0
 851 578 852 570 854 570 c 0
 856 567 856 557 859 553 c 0
 860 551 861 548 861 546 c 0
 861 538 854 529 851 524 c 0
 851 522 845 517 838 511 c 0
 835 510 823 509 812 509 c 0
 806 509 801 509 798 510 c 0
 744 510 666 503 619 495 c 0
 585 491 574 488 552 478 c 0
 540 472 535 471 535 467 c 0
 535 466 535 465 536 464 c 0
 539 448 541 427 541 408 c 0
 541 407 541 405 541 404 c 2
 540 383 l 1
 545 386 546 387 551 387 c 0
 567 385 578 383 600 383 c 0
 603 383 607 383 611 383 c 0
 615 383 619 383 623 383 c 0
 670 383 717 378 729 373 c 0
 738 370 742 370 750 363 c 0
 761 354 760 359 764 342 c 0
 764 335 760 319 754 315 c 0
 748 310 745 298 734 298 c 0
 733 298 732 298 731 298 c 0
 710 298 656 306 645 306 c 0
 606 308 549 320 539 330 c 1
 536 328 535 315 535 306 c 0
 535 301 535 298 536 297 c 0
 536 253 512 129 503 82 c 0
403 108 m 0
 408 104 424 104 424 94 c 0
 424 93 424 93 424 92 c 1
 425 92 428 103 432 127 c 0
 452 249 454 255 459 322 c 0
 460 336 461 363 461 389 c 0
 461 414 460 440 459 452 c 0
 456 465 457 506 455 519 c 0
 453 519 443 510 442 507 c 0
 441 503 428 497 419 497 c 0
 418 497 l 0
 398 500 382 501 366 501 c 0
 346 501 326 499 301 498 c 0
 252 498 160 493 148 491 c 0
 139 489 132 488 130 488 c 0
 128 488 127 476 127 435 c 2
 127 383 l 1
 132 382 137 381 145 381 c 0
 157 381 168 381 180 381 c 0
 204 381 217 384 238 384 c 0
 240 384 243 384 245 384 c 0
 267 384 290 383 292 380 c 0
 294 377 304 376 306 373 c 0
 315 366 318 364 321 363 c 0
 324 363 325 356 325 349 c 0
 325 342 324 334 324 332 c 0
 321 325 324 315 317 309 c 0
 311 302 310 302 296 302 c 0
 288 302 280 304 278 305 c 0
 275 307 260 307 224 307 c 2
 207 307 l 2
 167 307 154 312 125 315 c 0
 124 315 122 311 122 306 c 0
 118 252 109 192 103 138 c 2
 100 113 l 1
 105 102 l 2
 107 95 110 90 110 85 c 0
 110 84 l 0
 110 81 109 80 111 80 c 0
 112 80 l 0
 123 83 236 105 253 108 c 0
 260 109 298 110 334 110 c 0
 366 110 396 110 403 108 c 0
EndSplineSet
Ligature2: "liga" E E
Comment: "char_L6_P12_x3143_y3523_x3584_y3834_RUU+AD0A.svg"
EndChar

StartChar: T_T
Encoding: 1114123 -1 74
Width: 828
VWidth: 27
Flags: HW
LayerCount: 2
Fore
SplineSet
434 588 m 0
 467 590 620 596 653 601 c 0
 706 610 786 617 840 622 c 0
 860 622 859 604 866 589 c 0
 867 587 868 584 868 581 c 0
 868 569 856 554 853 554 c 0
 845 547 830 546 815 543 c 0
 779 537 734 534 698 531 c 0
 683 527 599 517 579 517 c 0
 578 517 578 494 578 465 c 0
 578 415 575 369 570 349 c 0
 563 268 547 161 536 74 c 0
 537 67 540 61 540 54 c 0
 540 53 l 0
 540 46 536 42 536 34 c 0
 536 33 536 32 536 30 c 0
 536 27 536 23 532 20 c 0
 524 11 522 2 506 2 c 0
 505 2 505 2 504 2 c 0
 495 2 476 6 474 6 c 0
 467 7 459 27 457 35 c 0
 457 38 457 41 457 44 c 0
 457 108 473 184 479 245 c 0
 487 314 501 424 501 484 c 0
 501 485 501 487 501 488 c 2
 501 513 l 1
 489 513 477 513 465 513 c 0
 441 513 426 516 407 516 c 0
 401 516 394 516 387 515 c 0
 340 513 315 507 279 503 c 0
 258 501 247 499 230 496 c 1
 231 446 l 1
 231 434 232 422 232 411 c 0
 232 319 221 235 218 150 c 0
 216 116 209 90 206 53 c 0
 202 40 198 23 181 23 c 0
 181 23 180 23 179 23 c 0
 163 23 136 28 131 34 c 0
 127 40 124 44 124 50 c 0
 124 53 125 56 126 60 c 0
 136 98 141 216 146 254 c 0
 150 285 153 368 153 429 c 0
 153 442 153 456 153 469 c 0
 153 475 155 480 156 485 c 1
 144 484 l 2
 130 483 112 481 96 481 c 0
 87 481 77 482 70 483 c 0
 65 485 43 488 39 491 c 0
 39 492 38 493 36 493 c 0
 35 493 31 496 27 500 c 0
 20 508 20 508 20 526 c 0
 20 543 20 543 25 548 c 0
 31 554 38 555 90 557 c 0
 133 559 149 561 221 573 c 0
 294 585 363 592 399 592 c 0
 400 592 402 592 403 592 c 0
 418 592 420 588 432 588 c 0
 432 588 433 588 434 588 c 0
EndSplineSet
Ligature2: "liga" T T
Comment: "char_L6_P16_x4373_y3505_x4818_y3831_VFQ+AD0A.svg"
EndChar

StartChar: L_B
Encoding: 1114124 -1 75
Width: 810
VWidth: 78
Flags: HW
LayerCount: 2
Fore
SplineSet
348 527 m 0
 348 528 l 0
 348 540 363 544 372 545 c 0
 375 545 377 546 379 552 c 0
 383 562 394 573 407 579 c 0
 448 599 450 599 489 604 c 0
 499 605 510 605 520 605 c 0
 539 605 558 604 580 603 c 0
 596 603 638 588 657 583 c 0
 661 583 677 574 682 574 c 0
 686 574 705 553 708 553 c 0
 712 551 714 540 718 537 c 0
 723 530 720 524 725 516 c 0
 728 513 729 508 729 504 c 0
 729 497 727 490 726 484 c 0
 723 457 722 464 712 443 c 0
 697 414 659 377 638 360 c 0
 638 358 647 358 656 354 c 0
 679 349 708 329 718 321 c 0
 719 319 721 318 722 318 c 0
 727 318 747 292 753 284 c 0
 758 279 758 271 763 263 c 0
 767 255 769 240 770 208 c 0
 770 184 754 138 735 104 c 0
 706 53 698 42 680 22 c 0
 645 -15 634 -24 598 -41 c 0
 580 -49 585 -52 568 -55 c 0
 555 -57 561 -59 549 -59 c 0
 547 -59 545 -59 543 -59 c 0
 540 -59 537 -59 534 -59 c 0
 495 -59 485 -55 459 -43 c 0
 455 -43 432 -17 426 -17 c 0
 425 -17 l 0
 422 -18 419 -18 416 -18 c 0
 399 -18 392 -4 381 7 c 0
 377 13 371 37 370 54 c 0
 369 71 368 81 366 81 c 0
 365 80 l 0
 361 73 351 69 326 66 c 0
 276 59 289 58 249 48 c 0
 207 38 218 36 168 30 c 0
 163 29 157 29 151 29 c 0
 130 29 106 33 101 38 c 0
 97 41 91 44 78 51 c 0
 70 55 47 79 47 83 c 0
 47 84 45 90 42 96 c 0
 34 113 24 153 22 171 c 0
 21 192 20 235 20 279 c 0
 20 328 21 379 24 401 c 0
 27 417 27 507 29 512 c 0
 30 512 31 521 32 535 c 0
 33 550 33 552 39 557 c 0
 45 563 49 563 69 565 c 0
 74 566 78 567 81 567 c 0
 88 567 93 564 98 557 c 0
 99 556 108 494 108 473 c 0
 108 472 108 472 108 471 c 1
 107 471 l 1
 106 469 106 466 106 463 c 0
 106 457 107 449 107 443 c 2
 107 426 l 2
 107 419 106 415 105 414 c 0
 101 410 98 333 98 263 c 0
 98 212 100 164 104 152 c 0
 114 119 120 107 148 107 c 0
 149 107 149 107 150 107 c 0
 170 107 204 114 252 128 c 0
 300 142 305 141 331 144 c 0
 349 144 362 140 365 135 c 1
 366 135 l 1
 367 140 367 165 367 195 c 0
 367 246 366 312 365 316 c 0
 358 380 354 463 348 527 c 0
423 493 m 0
 426 463 437 427 437 399 c 0
 437 398 437 397 437 396 c 0
 442 316 446 290 446 176 c 1
 447 83 l 1
 474 59 473 46 498 24 c 0
 499 21 512 20 525 20 c 0
 538 20 550 21 554 22 c 0
 568 27 591 43 608 60 c 0
 637 89 648 104 674 154 c 0
 683 174 691 196 691 217 c 0
 691 223 690 228 689 233 c 0
 684 251 663 268 634 278 c 0
 612 285 608 291 583 293 c 0
 572 293 553 294 535 294 c 0
 516 294 498 293 491 290 c 1
 481 290 474 300 470 307 c 0
 467 310 463 330 463 344 c 0
 463 347 463 351 464 353 c 0
 465 353 466 354 467 356 c 0
 468 361 483 369 504 375 c 0
 538 386 572 405 608 435 c 0
 629 452 649 484 649 496 c 0
 649 497 649 498 648 499 c 0
 635 519 562 535 512 535 c 0
 508 535 505 535 501 535 c 0
 499 535 496 535 494 535 c 0
 471 535 446 527 441 520 c 0
 434 513 423 508 423 493 c 0
EndSplineSet
Ligature2: "liga" L B
Comment: "char_L6_P21_x5690_y3514_x6085_y3863_TEI+AD0A.svg"
EndChar

StartChar: E_R
Encoding: 1114125 -1 76
Width: 890
VWidth: 112
Flags: HW
LayerCount: 2
Fore
SplineSet
161 298 m 0
 160 298 l 0
 148 298 139 301 129 301 c 0
 128 301 128 301 127 301 c 0
 120 301 121 296 120 276 c 0
 117 218 111 159 107 138 c 0
 105 116 107 120 101 78 c 1
 102 78 103 78 104 78 c 0
 161 78 302 109 368 109 c 0
 372 109 375 108 378 108 c 0
 380 108 383 108 386 109 c 0
 411 109 414 106 418 91 c 0
 420 84 421 81 422 81 c 0
 423 81 423 88 424 99 c 0
 430 178 443 236 447 327 c 0
 450 384 451 412 451 428 c 0
 451 430 451 431 451 432 c 0
 451 439 450 443 450 448 c 0
 450 449 450 451 450 452 c 0
 450 465 454 480 454 493 c 0
 454 494 l 0
 456 517 457 526 477 528 c 0
 485 529 489 530 491 533 c 0
 497 542 533 563 548 571 c 0
 562 577 591 587 608 589 c 0
 618 590 613 593 625 593 c 0
 626 593 626 593 627 593 c 0
 686 593 727 578 765 556 c 0
 771 552 777 549 779 549 c 0
 789 549 827 512 836 493 c 0
 840 486 844 479 845 478 c 0
 848 476 850 453 850 438 c 0
 850 436 850 434 850 433 c 0
 850 417 834 392 827 383 c 0
 824 380 821 376 821 375 c 0
 821 373 798 352 789 346 c 0
 784 343 779 340 778 338 c 0
 754 323 687 297 641 297 c 0
 640 297 638 297 637 297 c 1
 665 276 l 2
 718 237 747 214 766 195 c 0
 797 164 817 134 826 104 c 0
 828 96 831 90 832 89 c 0
 834 85 839 63 839 45 c 0
 839 37 838 30 835 26 c 0
 831 18 825 9 813 9 c 0
 811 9 808 9 805 10 c 0
 776 12 773 13 766 20 c 0
 760 26 760 28 760 39 c 0
 760 58 748 97 737 113 c 0
 696 162 615 219 558 261 c 0
 550 266 529 286 525 291 c 0
 524 291 523 286 522 274 c 0
 516 217 511 163 504 102 c 0
 498 47 499 49 492 42 c 0
 486 36 485 36 465 35 c 0
 460 35 453 34 448 34 c 0
 445 34 442 34 440 35 c 0
 432 37 425 48 424 60 c 2
 423 70 l 1
 419 63 416 55 407 53 c 0
 400 51 396 45 391 43 c 0
 390 43 387 42 385 40 c 0
 377 34 314 28 286 23 c 0
 258 18 267 22 240 17 c 0
 213 12 181 5 147 4 c 0
 121 2 109 -2 71 -4 c 0
 47 -2 29 7 29 31 c 0
 29 32 l 0
 29 33 l 0
 29 41 20 50 20 58 c 0
 20 59 l 0
 35 206 44 249 45 420 c 0
 45 454 47 487 48 494 c 0
 52 519 54 527 59 532 c 0
 70 543 109 570 124 576 c 0
 146 586 199 600 227 607 c 0
 247 613 319 626 375 626 c 0
 391 626 406 625 418 622 c 0
 422 620 440 617 440 612 c 0
 441 607 449 602 449 595 c 0
 450 589 454 579 454 571 c 0
 454 570 454 570 454 569 c 0
 454 563 447 560 445 557 c 0
 445 554 435 545 431 544 c 0
 426 539 418 536 403 536 c 0
 393 536 383 537 382 539 c 0
 373 545 374 549 362 549 c 0
 358 549 351 548 342 547 c 0
 291 545 160 513 140 500 c 0
 132 494 122 497 122 482 c 0
 121 477 121 471 121 465 c 0
 121 443 124 417 124 397 c 0
 124 395 124 393 124 391 c 2
 124 381 l 2
 124 375 125 375 128 374 c 0
 129 374 130 374 131 374 c 0
 154 374 184 377 206 377 c 0
 207 377 208 377 209 377 c 0
 245 377 270 372 277 366 c 0
 280 364 282 362 283 362 c 0
 288 362 300 346 300 334 c 0
 300 331 299 329 298 327 c 0
 297 327 297 325 297 323 c 0
 297 322 297 321 297 320 c 0
 297 319 l 0
 297 314 293 307 290 307 c 0
 289 307 287 306 285 304 c 0
 278 299 266 293 256 293 c 0
 253 293 250 294 247 295 c 0
 240 299 228 300 215 300 c 0
 197 300 177 298 163 298 c 0
 162 298 162 298 161 298 c 0
662 522 m 0
 654 524 646 524 639 524 c 0
 592 524 555 496 529 480 c 1
 521 474 l 1
 523 460 l 2
 527 434 527 438 527 395 c 0
 527 388 527 382 527 377 c 0
 527 375 527 372 527 370 c 0
 527 359 527 354 529 354 c 0
 530 355 l 0
 552 375 607 369 637 375 c 0
 674 379 689 382 712 392 c 0
 738 403 739 404 757 422 c 0
 767 434 771 435 771 440 c 0
 771 441 771 443 770 445 c 0
 768 457 764 465 748 479 c 0
 724 500 689 517 662 522 c 0
EndSplineSet
Ligature2: "liga" E R
Ligature2: "liga" E R
Comment: "char_L6_P6_x1165_y3503_x1601_y3834_RVI+AD0A.svg"
EndChar

StartChar: R_R
Encoding: 1114126 -1 77
Width: 860
VWidth: 26
Flags: HW
LayerCount: 2
Fore
SplineSet
113 230 m 0
 113 228 113 226 113 223 c 0
 113 186 117 94 122 88 c 0
 124 81 125 74 125 67 c 0
 125 47 117 31 103 23 c 0
 100 21 94 21 87 21 c 0
 77 21 65 22 61 24 c 0
 54 27 45 43 40 59 c 0
 37 68 35 91 35 112 c 0
 35 120 35 128 36 134 c 0
 37 140 37 145 37 150 c 0
 37 156 37 162 36 167 c 0
 34 186 32 448 28 448 c 0
 28 447 l 1
 26 449 26 474 24 476 c 0
 22 479 20 496 20 510 c 0
 20 518 21 525 22 528 c 0
 33 549 42 563 46 567 c 0
 52 573 51 567 57 574 c 0
 62 583 83 578 91 583 c 0
 99 587 111 586 121 588 c 0
 132 589 143 590 155 590 c 0
 194 590 236 584 264 578 c 0
 278 576 323 560 334 553 c 0
 350 543 343 552 357 540 c 0
 368 530 367 537 372 527 c 0
 377 517 377 522 381 511 c 0
 389 494 391 507 391 479 c 0
 391 476 391 473 391 470 c 0
 391 439 391 438 378 416 c 0
 351 370 301 333 233 307 c 0
 208 298 213 298 189 290 c 2
 172 285 l 1
 187 278 l 2
 226 259 289 230 314 210 c 0
 316 210 332 196 338 194 c 0
 341 194 372 160 380 148 c 0
 387 137 403 106 404 100 c 0
 405 100 406 208 406 320 c 2
 406 458 l 1
 405 514 l 1
 411 522 413 527 427 530 c 0
 437 533 441 535 446 541 c 0
 458 556 463 560 479 568 c 0
 506 581 530 586 579 588 c 0
 585 588 591 588 597 588 c 0
 642 588 692 578 716 571 c 0
 719 571 752 558 753 556 c 0
 754 555 755 554 757 554 c 0
 762 554 798 525 800 514 c 0
 800 512 801 510 802 510 c 0
 805 509 807 492 807 478 c 0
 807 469 806 461 805 457 c 0
 799 438 791 424 784 413 c 0
 769 391 737 363 708 349 c 0
 685 337 695 338 669 328 c 0
 639 317 612 312 583 300 c 0
 582 299 581 299 581 298 c 0
 581 296 584 294 594 286 c 0
 609 276 634 251 648 243 c 0
 685 215 768 120 803 70 c 0
 816 51 821 49 821 40 c 0
 821 37 821 34 820 30 c 0
 819 25 820 27 797 11 c 0
 781 1 779 -2 772 -2 c 0
 771 -2 l 0
 760 -1 758 1 748 16 c 0
 735 34 718 54 702 74 c 0
 699 75 666 115 666 117 c 0
 666 121 587 196 583 196 c 0
 559 212 556 220 528 240 c 0
 514 250 502 260 500 262 c 0
 494 267 488 271 485 271 c 0
 484 270 483 252 483 232 c 0
 483 230 483 228 483 226 c 0
 483 164 488 181 489 113 c 0
 491 103 495 96 495 83 c 0
 495 82 495 81 495 80 c 0
 495 65 494 62 482 53 c 0
 474 48 474 46 469 44 c 0
 466 44 462 38 457 38 c 0
 456 38 l 0
 447 38 436 43 429 45 c 0
 426 48 413 65 413 70 c 0
 411 70 411 69 411 68 c 0
 411 67 411 64 411 61 c 2
 411 50 l 2
 411 45 410 40 409 40 c 1
 408 40 407 38 407 37 c 0
 403 26 386 23 367 22 c 2
 351 21 l 1
 341 32 332 36 331 57 c 0
 328 81 326 89 319 99 c 0
 281 155 198 185 129 222 c 0
 121 227 114 230 113 230 c 0
96 513 m 0
 105 481 109 456 111 424 c 0
 110 415 109 391 109 371 c 0
 109 361 109 353 110 348 c 1
 146 358 188 371 221 386 c 0
 255 399 278 413 296 432 c 0
 315 452 320 459 320 469 c 0
 320 476 319 478 308 486 c 0
 291 499 297 493 276 502 c 0
 253 512 193 523 147 523 c 0
 145 523 144 523 142 523 c 0
 114 523 96 519 96 513 c 0
487 354 m 0
 490 354 511 364 517 364 c 0
 528 364 586 383 606 389 c 0
 620 391 661 408 679 420 c 0
 706 437 731 465 731 478 c 0
 731 484 727 488 711 495 c 0
 669 512 644 518 586 519 c 1
 564 519 l 2
 548 519 541 518 531 516 c 0
 515 512 493 502 493 498 c 0
 493 497 492 495 491 495 c 0
 487 494 485 481 485 465 c 2
 485 452 l 1
 487 437 488 423 488 409 c 0
 488 393 487 377 486 359 c 0
 486 356 486 354 487 354 c 0
EndSplineSet
Ligature2: "liga" R R
Comment: "char_L6_P34_x8716_y3522_x9138_y3833_UlI+AD0A.svg"
EndChar

StartChar: L_A
Encoding: 1114127 -1 78
Width: 843
VWidth: 40
Flags: HW
LayerCount: 2
Fore
SplineSet
555 589 m 0
 561 589 566 592 573 592 c 0
 574 592 574 592 575 592 c 0
 589 592 609 586 626 578 c 0
 636 573 668 549 668 546 c 0
 668 545 673 540 679 534 c 0
 768 433 804 266 804 73 c 0
 804 71 804 69 804 67 c 0
 804 50 804 32 804 15 c 0
 804 9 797 7 796 3 c 0
 796 -3 775 -17 761 -17 c 0
 760 -17 l 0
 755 -17 751 -11 746 -11 c 0
 745 -11 l 0
 739 -11 724 11 724 21 c 1
 725 23 726 33 726 48 c 0
 726 98 721 203 716 230 c 1
 713 242 l 1
 677 241 l 1
 674 241 670 241 666 241 c 0
 621 241 542 227 501 227 c 0
 500 227 498 227 497 227 c 0
 491 227 484 227 478 227 c 0
 477 227 l 0
 474 227 474 224 474 221 c 0
 474 221 474 221 474 220 c 0
 472 195 467 184 465 165 c 0
 463 145 454 93 452 73 c 0
 450 56 447 52 444 42 c 0
 438 32 425 -2 406 -2 c 0
 405 -2 405 -2 404 -2 c 0
 400 -2 396 0 384 8 c 0
 367 19 367 19 364 29 c 0
 362 35 360 41 360 45 c 0
 360 47 361 49 362 51 c 0
 364 52 370 81 370 88 c 0
 370 89 369 89 369 89 c 1
 363 89 324 78 313 73 c 0
 285 60 218 40 188 34 c 0
 178 32 166 31 153 31 c 0
 130 31 105 35 94 43 c 0
 86 49 72 54 66 62 c 0
 62 68 53 75 50 81 c 0
 50 83 48 87 45 91 c 0
 34 109 22 147 22 174 c 0
 22 175 22 176 22 177 c 0
 21 192 20 211 20 231 c 0
 20 305 28 399 34 441 c 0
 44 514 48 535 53 541 c 0
 54 543 59 546 64 548 c 2
 72 553 l 1
 91 550 l 2
 114 547 118 543 122 525 c 0
 122 524 l 0
 122 518 119 510 119 502 c 0
 119 500 119 498 120 496 c 0
 119 462 111 415 107 384 c 0
 106 382 104 338 99 249 c 1
 99 237 l 2
 99 211 102 166 105 149 c 0
 110 129 119 108 145 108 c 0
 146 108 148 108 149 108 c 0
 189 109 276 141 292 147 c 0
 298 150 335 164 362 164 c 0
 371 164 378 163 384 159 c 1
 393 213 l 2
 405 286 421 357 439 415 c 0
 448 442 464 476 476 504 c 0
 479 515 498 542 502 551 c 0
 511 560 524 577 537 582 c 0
 544 583 547 589 555 589 c 0
599 503 m 0
 590 508 586 512 581 512 c 0
 578 512 575 511 571 509 c 0
 565 506 561 500 543 464 c 0
 522 423 517 405 498 337 c 0
 495 324 492 313 492 308 c 0
 492 306 493 305 494 305 c 0
 549 310 612 316 670 318 c 1
 699 320 l 1
 699 337 678 379 670 405 c 0
 663 432 623 487 599 503 c 0
EndSplineSet
Ligature2: "liga" L A
Comment: "char_L6_P8_x2001_y3521_x2413_y3841_TEE+AD0A.svg"
EndChar

StartChar: L_L
Encoding: 1114128 -1 79
Width: 772
VWidth: 43
Flags: HW
LayerCount: 2
Fore
SplineSet
198 -2 m 0
 182 -4 171 -9 148 -9 c 0
 147 -9 145 -9 144 -9 c 0
 128 -9 112 -7 108 -5 c 0
 105 -3 101 -2 99 -2 c 0
 95 -2 81 7 79 7 c 0
 77 7 50 35 48 40 c 0
 43 47 32 79 30 87 c 0
 23 112 20 125 20 162 c 0
 20 174 20 187 20 199 c 0
 20 299 30 341 30 432 c 0
 30 445 30 458 30 471 c 0
 30 482 27 496 27 507 c 0
 27 513 28 518 30 523 c 0
 35 534 37 535 56 540 c 0
 66 542 73 544 79 544 c 0
 93 544 96 534 103 504 c 0
 110 477 111 464 111 425 c 0
 111 391 111 379 109 376 c 0
 103 361 100 256 98 222 c 0
 97 214 97 204 97 195 c 0
 97 165 100 131 104 113 c 0
 113 75 118 68 143 68 c 0
 145 68 146 68 148 68 c 0
 172 69 243 87 261 96 c 0
 277 102 304 113 328 113 c 0
 335 113 342 112 348 110 c 1
 349 111 l 1
 349 112 l 1
 340 138 339 149 339 180 c 0
 339 187 339 196 339 206 c 0
 339 214 339 221 339 228 c 0
 339 310 346 378 353 431 c 0
 359 493 359 476 363 508 c 0
 364 522 365 525 370 531 c 0
 376 538 375 537 391 538 c 0
 394 539 397 539 400 539 c 0
 408 539 414 536 421 531 c 0
 425 528 427 525 428 517 c 0
 429 505 429 492 429 480 c 0
 429 394 415 316 415 228 c 0
 415 205 416 181 418 157 c 0
 422 123 432 111 449 101 c 0
 454 96 469 94 484 94 c 0
 564 100 624 120 703 126 c 0
 709 126 711 125 717 121 c 0
 726 115 726 115 730 97 c 0
 731 90 732 84 732 79 c 0
 732 63 724 56 700 53 c 0
 634 40 554 23 486 17 c 0
 457 17 430 24 410 35 c 0
 395 43 389 45 377 59 c 0
 371 66 368 68 367 68 c 0
 366 68 366 67 366 66 c 0
 366 57 355 43 348 43 c 0
 343 43 298 29 295 27 c 0
 291 24 262 15 254 14 c 0
 250 14 244 12 241 10 c 0
 231 5 206 -2 198 -2 c 0
EndSplineSet
PairPos2: "sacc" uni0315 dx=0 dy=0 dh=0 dv=0 dx=-80 dy=0 dh=0 dv=0
Ligature2: "liga" L L
Comment: "char_L7_P10_x2191_y3991_x2569_y4284_TEw+AD0A.svg"
EndChar

StartChar: I.sc
Encoding: 1114129 -1 80
Width: 143
VWidth: 160
Flags: HW
LayerCount: 2
Fore
SplineSet
32 470 m 0
 37 473 65 477 73 477 c 0
 77 477 78 476 80 474 c 0
 86 468 89 461 92 439 c 0
 95 426 96 428 99 404 c 0
 101 387 102 371 102 307 c 0
 102 254 102 200 102 147 c 0
 102 100 102 65 103 61 c 0
 103 60 103 58 103 57 c 0
 103 48 97 41 92 37 c 0
 85 35 80 26 69 26 c 0
 68 26 67 26 66 26 c 0
 47 26 35 33 28 52 c 2
 24 63 l 1
 24 142 24 220 24 299 c 0
 24 391 25 388 20 424 c 0
 20 433 23 438 23 453 c 0
 23 454 l 0
 23 461 28 470 32 470 c 0
EndSplineSet
Comment: "char_L7_P21_x4664_y4016_x4709_y4255_SS5zYw+AD0APQAA.svg"
EndChar

StartChar: O_N
Encoding: 1114130 -1 81
Width: 855
VWidth: 42
Flags: HW
LayerCount: 2
Fore
SplineSet
493 397 m 1
 494 314 501 250 501 162 c 0
 501 158 501 153 501 149 c 0
 501 107 500 69 498 67 c 0
 497 66 497 62 497 58 c 0
 497 57 l 0
 497 51 492 46 491 42 c 0
 485 32 487 32 461 32 c 0
 449 32 438 32 438 33 c 0
 435 36 430 36 427 42 c 0
 424 47 423 53 423 112 c 0
 423 171 420 300 418 302 c 1
 417 288 412 261 406 247 c 0
 403 240 398 230 396 224 c 0
 380 182 359 149 333 123 c 0
 329 119 326 115 326 114 c 0
 326 112 285 75 282 74 c 0
 280 73 268 64 261 59 c 0
 240 45 190 25 156 25 c 0
 155 25 154 25 153 25 c 0
 130 27 112 32 99 39 c 0
 89 47 81 49 69 62 c 0
 49 82 34 115 25 153 c 0
 22 155 20 206 20 247 c 0
 20 250 20 253 20 256 c 0
 20 292 25 305 29 327 c 0
 29 338 46 408 50 413 c 0
 61 438 79 482 92 503 c 0
 112 538 142 566 158 568 c 0
 166 568 171 572 177 572 c 0
 179 572 180 572 182 571 c 0
 184 571 186 570 187 570 c 0
 188 570 188 570 189 571 c 1
 190 569 194 567 201 563 c 0
 213 560 218 546 226 541 c 0
 230 541 267 526 281 519 c 0
 293 513 310 500 331 483 c 0
 343 473 377 438 377 436 c 0
 390 414 412 374 412 353 c 0
 412 352 l 0
 413 343 413 339 414 339 c 0
 415 339 416 365 416 425 c 0
 416 553 417 558 430 584 c 0
 433 591 451 598 463 598 c 0
 475 598 483 589 491 584 c 1
 509 553 524 509 551 454 c 0
 592 376 615 330 665 249 c 0
 686 217 713 184 735 154 c 1
 734 185 l 2
 732 240 726 338 726 423 c 0
 726 460 727 495 730 523 c 0
 734 561 737 572 741 579 c 0
 748 589 757 599 768 601 c 0
 772 601 777 598 791 592 c 0
 812 581 812 583 816 569 c 1
 807 534 803 442 803 418 c 0
 803 386 806 362 808 315 c 0
 809 268 814 170 816 111 c 0
 815 80 816 66 809 57 c 1
 810 56 l 1
 806 46 795 37 786 32 c 0
 781 31 776 31 771 31 c 0
 759 31 747 33 742 39 c 0
 738 43 723 52 720 56 c 0
 687 92 684 93 633 164 c 0
 592 221 586 233 560 278 c 0
 545 301 517 355 493 397 c 1
194 458 m 0
 191 472 192 468 175 470 c 2
 161 471 l 1
 154 460 149 450 137 426 c 0
 118 386 115 372 102 295 c 0
 101 291 100 287 99 286 c 0
 98 285 97 269 97 244 c 0
 97 223 97 203 97 182 c 1
 104 159 l 2
 112 129 128 101 153 101 c 0
 155 101 157 102 159 102 c 0
 170 102 176 103 188 107 c 0
 211 115 223 125 268 165 c 0
 281 177 305 208 313 226 c 0
 320 240 329 269 335 282 c 0
 338 289 339 297 339 306 c 0
 339 317 337 329 335 340 c 0
 328 374 320 388 292 415 c 0
 271 435 264 442 247 451 c 0
 240 455 237 456 235 456 c 0
 234 456 233 455 233 454 c 0
 231 450 216 446 205 446 c 0
 204 446 203 446 202 446 c 0
 197 448 196 450 194 458 c 0
EndSplineSet
Ligature2: "liga" O N
Comment: "char_L7_P22_x4721_y3961_x5142_y4266_T04+AD0A.svg"
EndChar

StartChar: C_A
Encoding: 1114131 -1 82
Width: 790
VWidth: 102
Flags: HW
LayerCount: 2
Fore
SplineSet
555 555 m 1
 559 554 576 543 581 540 c 0
 585 540 617 507 628 492 c 0
 638 479 646 462 654 450 c 0
 668 433 684 376 692 359 c 0
 707 326 732 233 738 190 c 0
 739 182 741 170 743 163 c 0
 748 139 751 103 751 75 c 0
 751 53 750 35 746 31 c 0
 742 26 738 21 734 15 c 1
 734 14 l 0
 734 10 723 9 709 7 c 0
 702 7 684 12 682 14 c 0
 679 18 672 33 672 35 c 0
 671 40 667 40 667 46 c 0
 667 47 667 48 667 49 c 0
 667 50 667 51 667 52 c 0
 667 62 674 63 674 74 c 0
 674 75 l 0
 672 101 668 138 661 184 c 0
 655 218 656 225 645 225 c 0
 643 225 640 224 636 224 c 0
 635 224 634 225 633 225 c 0
 600 227 580 228 562 228 c 0
 540 228 520 226 476 222 c 1
 443 218 l 1
 444 205 l 1
 444 204 l 0
 444 187 436 141 435 128 c 0
 433 98 426 65 413 33 c 0
 405 15 398 5 385 5 c 0
 384 5 384 5 383 5 c 0
 359 10 347 14 346 17 c 0
 345 21 343 23 341 23 c 0
 338 23 333 20 324 13 c 0
 299 -4 249 -30 232 -30 c 0
 231 -30 l 0
 230 -30 l 0
 222 -30 203 -33 189 -33 c 0
 185 -33 182 -33 179 -32 c 0
 172 -29 160 -31 153 -27 c 0
 135 -19 103 -3 103 -2 c 0
 103 -1 101 2 98 3 c 0
 83 9 50 61 43 86 c 0
 43 88 42 89 41 90 c 0
 37 92 26 136 23 155 c 0
 21 167 20 188 20 210 c 0
 20 238 21 268 23 289 c 0
 25 322 41 380 56 413 c 0
 78 464 105 517 151 561 c 0
 175 586 190 595 215 607 c 0
 227 611 248 616 267 616 c 0
 275 616 283 615 289 613 c 0
 291 611 294 610 296 610 c 0
 301 610 331 594 333 591 c 0
 334 589 340 584 345 580 c 0
 359 569 372 549 384 520 c 0
 385 516 385 513 385 510 c 0
 385 502 382 497 373 492 c 0
 365 486 360 483 356 483 c 0
 352 483 348 486 342 492 c 0
 306 527 300 532 283 540 c 0
 277 543 270 544 264 544 c 0
 257 544 251 542 243 539 c 0
 209 524 172 481 143 425 c 0
 117 374 100 305 96 229 c 1
 96 218 l 2
 96 180 104 134 116 106 c 0
 133 72 156 47 192 43 c 1
 221 46 253 57 276 70 c 0
 291 79 314 91 317 91 c 0
 321 91 337 111 342 111 c 0
 343 111 l 0
 344 111 346 111 347 111 c 0
 352 111 356 112 356 118 c 0
 356 119 356 120 356 121 c 0
 364 191 370 260 380 314 c 0
 388 375 401 420 421 472 c 0
 433 495 450 527 467 539 c 0
 473 543 476 549 483 551 c 0
 485 552 487 552 487 553 c 0
 489 557 507 560 524 560 c 0
 538 560 550 558 554 554 c 1
 555 555 l 1
632 300 m 1
 626 308 616 338 615 345 c 0
 615 350 597 392 587 413 c 0
 574 438 565 452 547 468 c 0
 535 479 531 482 526 482 c 0
 508 482 489 446 474 387 c 0
 467 356 457 306 457 300 c 0
 457 299 l 0
 457 298 458 297 459 297 c 0
 460 297 460 297 461 298 c 0
 492 301 529 304 566 304 c 0
 585 304 604 303 622 301 c 1
 632 300 l 1
EndSplineSet
Ligature2: "liga" C A
Comment: "char_L7_P37_x8007_y3953_x8395_y4297_Q0E+AD0A.svg"
EndChar

StartChar: P_S
Encoding: 1114132 -1 83
Width: 859
VWidth: 45
Flags: HW
LayerCount: 2
Fore
SplineSet
255 246 m 0
 239 242 218 241 197 241 c 0
 172 241 147 243 130 247 c 1
 129 247 l 1
 127 245 123 141 123 82 c 0
 123 69 123 55 123 42 c 1
 112 32 110 30 79 30 c 2
 59 30 l 1
 55 35 50 41 46 46 c 1
 47 119 l 1
 47 121 47 123 47 125 c 0
 47 188 49 217 51 262 c 0
 51 277 50 288 48 290 c 0
 46 292 45 296 45 301 c 0
 45 311 48 324 50 326 c 0
 54 332 55 355 55 391 c 2
 55 408 l 1
 54 446 l 1
 44 449 l 2
 31 452 26 457 23 470 c 0
 21 478 20 484 20 489 c 0
 20 495 21 501 24 511 c 0
 29 531 32 535 62 562 c 0
 89 582 134 603 179 605 c 0
 189 606 199 607 208 607 c 0
 258 607 294 589 336 570 c 0
 338 570 369 546 376 543 c 0
 386 535 429 489 431 470 c 0
 432 470 434 473 436 479 c 0
 440 490 445 495 448 503 c 0
 448 506 463 522 463 524 c 0
 463 526 496 553 498 553 c 0
 499 553 503 554 507 557 c 0
 527 570 561 586 573 588 c 0
 595 593 637 605 674 605 c 0
 685 605 696 604 706 601 c 0
 730 594 748 585 757 572 c 0
 758 568 759 562 759 556 c 0
 759 553 759 550 758 548 c 0
 758 546 753 539 748 533 c 0
 741 524 735 521 727 521 c 0
 726 521 726 521 725 521 c 0
 709 521 682 529 672 529 c 0
 671 529 670 529 670 529 c 0
 663 529 657 528 646 526 c 0
 596 516 558 505 526 476 c 0
 513 462 506 446 504 423 c 0
 503 407 501 403 501 396 c 0
 501 392 501 388 503 380 c 0
 507 359 507 359 518 354 c 1
 531 354 579 375 588 378 c 0
 593 379 619 393 624 393 c 0
 635 395 638 400 652 400 c 0
 653 400 654 400 655 400 c 0
 656 400 658 400 659 400 c 0
 673 400 683 396 691 392 c 0
 694 392 720 379 736 370 c 0
 756 359 768 346 782 331 c 0
 787 326 802 296 802 291 c 0
 806 282 820 235 820 205 c 0
 820 204 820 204 820 203 c 0
 820 166 810 135 794 103 c 0
 789 94 785 85 785 84 c 0
 785 80 754 50 747 47 c 0
 743 45 736 41 731 38 c 0
 708 24 664 6 647 3 c 0
 635 -1 621 -3 606 -3 c 0
 584 -3 562 1 548 10 c 0
 520 24 515 27 496 47 c 0
 478 65 476 69 464 92 c 2
 452 116 l 1
 451 138 l 2
 450 143 450 147 450 151 c 0
 450 158 451 163 455 170 c 0
 461 182 467 184 487 186 c 0
 491 186 494 187 497 187 c 0
 502 187 505 185 507 178 c 0
 508 173 511 175 511 169 c 0
 511 168 511 168 511 167 c 0
 511 161 515 159 516 154 c 0
 516 149 528 127 541 110 c 0
 560 84 578 75 611 75 c 0
 612 75 614 75 615 75 c 0
 629 75 632 76 653 85 c 0
 699 104 714 115 725 137 c 0
 731 152 742 180 743 195 c 0
 743 219 732 274 719 287 c 0
 707 298 675 321 660 321 c 0
 631 321 577 287 557 284 c 0
 551 284 553 280 547 280 c 0
 538 280 531 275 522 275 c 0
 514 275 499 281 492 281 c 0
 491 281 l 0
 469 285 443 313 434 334 c 0
 429 343 425 361 423 375 c 1
 417 363 l 2
 412 352 398 337 393 328 c 0
 393 326 361 296 353 291 c 0
 313 266 301 257 255 246 c 0
350 401 m 0
 351 405 359 423 359 432 c 0
 359 433 359 433 359 434 c 0
 359 440 357 446 354 452 c 0
 347 464 315 495 300 504 c 0
 271 519 244 535 200 535 c 0
 199 535 197 535 196 535 c 0
 174 535 152 532 140 527 c 2
 129 523 l 1
 130 513 l 2
 130 507 131 462 131 414 c 2
 132 326 l 1
 143 323 l 1
 147 320 177 318 203 318 c 0
 221 318 237 319 243 322 c 0
 268 328 302 346 321 364 c 0
 331 374 350 398 350 401 c 0
EndSplineSet
Ligature2: "liga" P S
Comment: "char_L7_P39_x8642_y3958_x9066_y4281_UFM+AD0A.svg"
EndChar

StartChar: T_O
Encoding: 1114133 -1 84
Width: 750
VWidth: 97
Flags: HW
LayerCount: 2
Fore
SplineSet
59 526 m 0
 72 534 92 541 105 541 c 0
 106 541 106 541 107 541 c 0
 111 541 117 542 122 544 c 0
 191 563 271 579 361 582 c 0
 371 582 381 582 390 581 c 0
 412 579 416 576 423 564 c 0
 426 559 428 555 428 550 c 0
 428 548 427 544 427 541 c 2
 425 526 l 1
 437 526 450 527 462 527 c 1
 466 523 469 518 473 514 c 1
 480 514 488 514 495 514 c 0
 521 514 541 509 568 497 c 0
 594 487 601 478 616 469 c 0
 618 469 655 432 660 425 c 0
 662 421 667 413 672 406 c 0
 699 365 710 333 710 289 c 0
 710 276 709 262 707 246 c 0
 703 225 692 186 687 181 c 0
 685 179 682 173 680 168 c 0
 671 147 637 97 619 78 c 0
 592 46 529 6 501 1 c 0
 481 -4 459 -9 447 -9 c 0
 446 -9 446 -9 446 -9 c 0
 441 -8 408 -6 405 -4 c 0
 401 -2 372 11 369 14 c 0
 325 52 309 97 297 167 c 0
 296 180 295 196 295 213 c 0
 295 258 300 308 307 332 c 0
 323 407 351 468 390 507 c 1
 389 507 387 507 386 507 c 0
 351 507 256 496 230 491 c 1
 227 411 229 180 222 111 c 0
 217 27 217 23 211 18 c 0
 208 14 204 13 199 13 c 0
 195 13 192 14 187 14 c 0
 156 16 149 19 143 31 c 0
 141 33 141 38 141 44 c 0
 141 56 143 71 143 75 c 0
 143 76 l 0
 148 170 152 277 152 381 c 0
 152 409 152 437 151 464 c 0
 151 470 149 472 146 472 c 0
 141 472 133 466 127 466 c 0
 114 462 111 458 90 455 c 0
 85 454 76 448 72 443 c 0
 71 441 68 441 65 441 c 0
 55 441 47 446 35 460 c 0
 23 476 20 479 20 487 c 0
 20 488 l 0
 20 499 51 519 59 526 c 0
460 420 m 0
 457 427 456 429 451 429 c 0
 451 429 451 429 450 429 c 0
 443 429 433 433 430 436 c 2
 430 437 l 1
 423 437 395 367 389 346 c 0
 381 319 373 255 373 224 c 0
 373 223 373 221 373 220 c 0
 376 163 383 83 427 72 c 0
 434 69 441 68 449 68 c 0
 460 68 471 70 481 74 c 0
 502 81 541 108 564 131 c 0
 585 156 611 194 622 233 c 0
 632 258 629 266 632 291 c 0
 632 318 617 344 608 363 c 0
 587 396 552 429 508 437 c 0
 508 437 508 437 508 436 c 0
 508 435 508 433 508 430 c 2
 508 413 l 2
 508 408 507 404 506 404 c 0
 503 402 489 396 479 396 c 0
 476 396 474 396 472 398 c 0
 463 403 465 410 460 420 c 0
EndSplineSet
Ligature2: "liga" T O
Comment: "char_L7_P40_x9024_y3971_x9390_y4284_VE8+AD0A.svg"
EndChar

StartChar: plus
Encoding: 43 43 85
Width: 503
VWidth: 167
Flags: HW
LayerCount: 2
Fore
SplineSet
290 161 m 0
 288 100 290 79 281 71 c 0
 281 69 267 62 267 60 c 0
 266 57 256 57 253 55 c 0
 251 54 248 53 246 53 c 0
 240 53 235 57 229 62 c 0
 219 74 215 68 208 82 c 0
 206 87 205 90 205 93 c 0
 205 95 205 96 206 98 c 0
 207 102 209 132 210 175 c 2
 211 246 l 1
 176 245 l 1
 176 245 l 0
 122 245 104 232 50 231 c 0
 39 231 34 235 29 246 c 0
 26 255 20 263 20 272 c 0
 20 276 21 279 24 283 c 0
 29 295 39 297 49 303 c 0
 54 307 83 311 88 314 c 0
 91 318 141 324 182 324 c 0
 199 324 213 324 214 325 c 0
 215 332 215 344 215 356 c 0
 215 384 213 418 212 427 c 0
 211 432 211 436 211 439 c 0
 211 444 212 447 215 454 c 0
 223 473 224 474 239 477 c 0
 246 478 254 479 261 479 c 0
 268 479 275 478 279 476 c 1
 290 457 296 412 296 369 c 0
 296 366 295 364 295 361 c 0
 295 361 l 2
 296 320 l 1
 313 317 357 314 405 312 c 0
 449 310 448 311 453 306 c 0
 460 298 459 283 462 270 c 0
 463 266 463 263 463 260 c 0
 459 237 448 233 410 232 c 2
 394 232 l 2
 358 233 305 237 296 239 c 0
 294 239 293 236 292 224 c 0
 291 216 290 188 290 161 c 0
EndSplineSet
Comment: "char_L8_P0_x0_y4470_x226_y4687_Kw+AD0APQAA.svg"
EndChar

StartChar: brokenbar
Encoding: 166 166 86
Width: 150
VWidth: 88
Flags: HW
LayerCount: 2
Fore
SplineSet
20 391 m 0
 20 395 20 398 20 402 c 0
 20 456 28 473 28 520 c 0
 28 523 28 525 28 528 c 0
 28 539 28 551 28 562 c 0
 28 585 28 608 28 631 c 0
 29 652 27 661 37 673 c 0
 43 680 44 680 62 682 c 0
 72 683 82 683 84 683 c 0
 89 682 101 671 101 662 c 0
 101 661 l 0
 101 657 102 652 104 650 c 1
 104 650 l 0
 107 650 110 575 110 550 c 0
 110 548 110 545 110 544 c 0
 110 543 110 542 110 540 c 0
 110 510 101 435 101 407 c 0
 101 406 101 405 101 404 c 0
 102 375 104 316 104 304 c 0
 104 284 102 282 99 275 c 0
 93 263 85 259 72 259 c 1
 83 257 96 243 102 234 c 1
 110 231 107 10 110 -22 c 0
 111 -30 111 -40 111 -49 c 0
 111 -83 107 -121 103 -143 c 0
 100 -152 101 -158 90 -162 c 0
 85 -164 82 -165 79 -165 c 0
 76 -165 71 -164 63 -163 c 0
 34 -158 27 -156 27 -127 c 0
 27 -126 27 -124 27 -123 c 0
 27 -103 30 -71 30 -53 c 0
 30 -52 30 -52 30 -51 c 0
 30 -32 28 -13 26 23 c 1
 26 72 l 2
 26 132 28 214 36 237 c 0
 37 238 38 240 38 242 c 0
 38 242 l 0
 38 250 48 259 56 259 c 0
 57 259 59 258 60 258 c 1
 64 258 l 1
 55 265 37 266 30 273 c 0
 26 278 23 284 23 292 c 0
 23 295 23 297 24 300 c 1
 24 311 l 2
 24 317 23 321 22 325 c 0
 20 330 20 361 20 391 c 0
EndSplineSet
Comment: "char_L8_P10_x2976_y4366_x3023_y4798_wqY+AD0A.svg"
EndChar

StartChar: ampersand
Encoding: 38 38 87
Width: 506
VWidth: 160
Flags: HW
LayerCount: 2
Fore
SplineSet
401 255 m 1
 402 249 403 242 403 235 c 0
 403 211 396 185 391 170 c 0
 391 167 393 164 401 157 c 0
 413 146 423 139 433 129 c 0
 442 121 440 125 449 112 c 0
 456 100 466 93 466 80 c 0
 466 77 465 73 464 69 c 0
 461 63 423 39 416 39 c 0
 406 39 399 43 389 57 c 0
 384 64 372 76 365 82 c 2
 352 93 l 1
 315 40 268 3 222 -8 c 0
 199 -14 208 -16 178 -16 c 0
 166 -16 155 -15 155 -14 c 0
 133 -5 129 -9 101 10 c 0
 61 33 41 60 30 104 c 0
 24 130 20 154 20 177 c 0
 20 203 25 228 37 251 c 0
 38 253 39 255 39 256 c 0
 39 261 66 291 76 296 c 0
 79 299 99 308 100 314 c 0
 100 316 98 319 94 324 c 0
 71 353 44 402 44 452 c 0
 44 457 44 463 45 468 c 0
 48 495 49 502 57 516 c 0
 64 529 84 554 87 554 c 0
 88 554 92 555 96 558 c 0
 105 565 135 571 161 571 c 0
 171 571 181 570 188 568 c 0
 219 563 255 541 282 510 c 0
 297 492 308 463 308 435 c 0
 308 425 307 415 304 406 c 0
 296 374 270 332 248 310 c 2
 238 300 l 1
 250 290 l 2
 269 275 292 255 312 238 c 2
 330 223 l 1
 336 236 336 246 345 256 c 0
 354 264 355 273 366 273 c 0
 370 273 376 271 384 269 c 2
 398 265 l 1
 401 255 l 1
210 470 m 0
 193 487 181 491 157 494 c 0
 154 494 146 492 138 491 c 0
 126 490 118 471 118 452 c 0
 118 447 119 441 120 436 c 0
 127 408 155 358 176 353 c 0
 179 353 181 356 188 363 c 0
 200 375 214 392 222 408 c 0
 227 417 227 421 227 432 c 0
 227 451 224 457 210 470 c 0
247 187 m 0
 229 202 205 226 184 242 c 2
 164 258 l 1
 154 252 l 2
 119 231 103 223 102 175 c 0
 102 174 l 0
 102 149 112 99 122 93 c 0
 134 81 159 68 180 65 c 1
 216 71 227 75 257 106 c 0
 269 118 283 132 286 137 c 2
 292 146 l 1
 274 163 l 2
 265 172 253 183 247 187 c 0
EndSplineSet
Comment: "char_L8_P11_x3201_y4423_x3428_y4722_Jg+AD0APQAA.svg"
EndChar

StartChar: asciicircum
Encoding: 94 94 88
Width: 423
VWidth: 356
Flags: HW
LayerCount: 2
Fore
SplineSet
367 423 m 0
 383 396 378 396 384 372 c 0
 384 363 376 358 356 350 c 0
 344 345 335 343 331 343 c 0
 321 346 313 353 305 368 c 1
 301 384 246 435 244 441 c 0
 242 444 239 447 238 447 c 0
 227 456 206 480 194 492 c 1
 180 508 l 1
 176 497 l 1
 166 474 147 435 137 413 c 0
 127 393 127 395 127 389 c 0
 127 388 l 0
 127 388 l 0
 127 385 113 370 113 367 c 0
 113 363 80 332 72 329 c 0
 66 327 62 326 59 326 c 0
 52 326 49 332 37 343 c 0
 21 360 20 358 20 370 c 0
 20 371 20 371 20 372 c 0
 20 380 25 381 26 387 c 0
 27 393 35 398 37 404 c 0
 39 407 43 414 47 418 c 0
 56 427 58 429 81 481 c 0
 109 543 118 562 133 582 c 0
 144 596 140 604 165 609 c 0
 168 610 174 611 179 611 c 0
 190 611 201 608 201 604 c 0
 201 604 l 0
 201 603 203 602 204 602 c 0
 207 602 231 577 231 574 c 0
 231 569 248 551 309 488 c 0
 355 440 360 435 367 423 c 0
EndSplineSet
Comment: "char_L8_P12_x3470_y4403_x3655_y4548_Xg+AD0APQAA.svg"
EndChar

StartChar: underscore
Encoding: 95 95 89
Width: 511
VWidth: -282
Flags: HW
LayerCount: 2
Fore
SplineSet
429 31 m 0
 432 32 434 33 437 33 c 0
 440 33 444 32 448 30 c 0
 454 27 456 24 463 7 c 2
 471 -13 l 1
 465 -26 l 2
 455 -46 451 -42 436 -49 c 0
 429 -53 424 -52 372 -53 c 0
 341 -53 316 -54 315 -55 c 0
 312 -57 227 -59 161 -59 c 0
 134 -59 110 -59 97 -58 c 0
 44 -57 35 -55 25 -41 c 0
 21 -36 20 -32 20 -27 c 0
 20 -21 21 -14 22 -5 c 0
 25 19 27 24 67 24 c 0
 101 23 132 22 162 22 c 0
 224 22 282 24 352 27 c 0
 392 28 426 30 429 31 c 0
EndSplineSet
Comment: "char_L8_P13_x3721_y4697_x3946_y4744_Xw+AD0APQAA.svg"
EndChar

StartChar: emdash
Encoding: 8212 8212 90
Width: 786
VWidth: -217
Flags: HW
LayerCount: 2
Fore
SplineSet
223 276 m 2
 249 276 l 2
 412 276 473 281 608 282 c 1
 675 282 l 1
 679 290 689 293 701 293 c 0
 702 293 702 293 703 293 c 0
 709 293 714 290 727 280 c 0
 738 270 738 275 744 264 c 0
 746 261 747 258 747 256 c 0
 747 252 745 248 744 241 c 0
 740 218 739 216 728 209 c 2
 719 203 l 1
 641 202 l 2
 549 201 442 198 414 195 c 1
 356 195 l 2
 305 195 252 196 198 196 c 0
 171 196 143 196 116 195 c 1
 77 195 l 2
 51 195 56 196 36 203 c 0
 25 206 20 212 20 223 c 0
 20 226 20 228 21 232 c 0
 23 260 28 273 38 273 c 0
 40 273 43 273 44 274 c 0
 45 275 126 276 223 276 c 2
EndSplineSet
Comment: "char_L8_P14_x4012_y4565_x4378_y4615_4oCU.svg"
EndChar

StartChar: endash
Encoding: 8211 8211 91
Width: 513
VWidth: -18
Flags: HW
LayerCount: 2
Fore
SplineSet
349 218 m 0
 261 212 179 206 98 206 c 0
 96 206 94 206 92 206 c 0
 74 207 47 208 37 215 c 0
 27 221 25 224 21 246 c 0
 20 250 20 253 20 255 c 0
 20 258 21 261 23 265 c 0
 29 275 36 278 64 284 c 0
 87 289 93 289 140 289 c 0
 241 290 324 297 450 300 c 0
 454 300 458 299 461 296 c 0
 465 292 466 288 469 270 c 0
 470 256 474 250 474 244 c 0
 474 241 473 237 469 232 c 0
 464 226 460 225 450 223 c 0
 426 219 393 215 374 215 c 0
 373 215 l 0
 361 215 362 218 352 218 c 0
 351 218 350 218 349 218 c 0
EndSplineSet
Comment: "char_L8_P15_x4497_y4561_x4723_y4609_4oCT.svg"
EndChar

StartChar: hyphen
Encoding: 45 45 92
Width: 373
VWidth: 84
Flags: HW
LayerCount: 2
Fore
SplineSet
73 238 m 0
 37 238 20 238 19 276 c 0
 19 281 18 286 18 290 c 0
 18 294 19 298 21 301 c 0
 24 313 49 309 61 314 c 0
 142 325 188 321 278 331 c 0
 294 333 303 334 310 334 c 0
 333 332 335 323 338 294 c 0
 338 291 338 288 338 285 c 0
 338 268 333 262 316 257 c 0
 296 251 263 248 185 244 c 0
 158 242 107 238 73 238 c 0
EndSplineSet
Comment: "char_L8_P16_x4812_y4544_x4991_y4593_LQ+AD0APQAA.svg"
EndChar

StartChar: parenleft
Encoding: 40 40 93
Width: 288
VWidth: 120
Flags: HW
LayerCount: 2
Fore
SplineSet
243 -52 m 0
 243 -53 243 -53 243 -54 c 0
 243 -64 234 -73 232 -79 c 0
 230 -85 214 -102 200 -102 c 0
 199 -102 l 0
 193 -102 189 -101 177 -91 c 0
 155 -73 131 -48 116 -27 c 0
 85 23 55 73 39 137 c 0
 28 178 20 197 20 248 c 2
 20 274 l 1
 21 310 22 332 24 343 c 0
 28 365 41 415 43 417 c 0
 57 463 104 552 126 574 c 0
 128 576 130 580 130 581 c 0
 130 584 148 608 158 618 c 0
 164 626 196 644 210 644 c 0
 211 644 l 0
 222 644 228 636 238 617 c 2
 248 597 l 1
 245 588 l 2
 241 577 233 576 228 567 c 0
 226 564 222 560 218 558 c 0
 196 548 129 438 120 395 c 0
 108 350 101 309 101 268 c 0
 101 229 107 190 121 148 c 0
 148 69 176 13 235 -36 c 0
 241 -39 243 -45 243 -52 c 0
EndSplineSet
Comment: "char_L8_P17_x5108_y4386_x5224_y4766_KA+AD0APQAA.svg"
EndChar

StartChar: parenright
Encoding: 41 41 94
Width: 279
VWidth: 120
Flags: HW
LayerCount: 2
Fore
SplineSet
231 181 m 0
 230 178 230 176 230 174 c 0
 230 173 230 172 230 171 c 0
 230 170 l 0
 230 160 216 103 213 99 c 0
 212 98 212 96 212 94 c 0
 190 32 161 -9 112 -66 c 0
 93 -87 106 -90 60 -99 c 0
 58 -100 56 -100 54 -100 c 0
 36 -100 20 -76 20 -68 c 0
 25 -51 26 -24 43 -19 c 1
 57 -10 65 5 79 20 c 0
 118 69 140 110 149 178 c 0
 153 212 160 230 160 259 c 0
 160 265 160 272 159 280 c 0
 155 366 149 357 136 412 c 0
 130 434 108 481 96 502 c 0
 96 507 53 558 37 573 c 0
 30 581 23 586 22 596 c 0
 22 599 24 603 26 611 c 0
 34 636 33 636 52 640 c 0
 60 640 97 629 101 625 c 0
 107 621 107 623 112 614 c 0
 115 609 123 599 129 591 c 0
 153 562 185 511 193 488 c 0
 210 448 226 389 236 342 c 0
 238 329 239 308 239 285 c 0
 239 243 236 195 231 181 c 0
EndSplineSet
Comment: "char_L8_P18_x5402_y4388_x5514_y4765_KQ+AD0APQAA.svg"
EndChar

StartChar: bracketleft
Encoding: 91 91 95
Width: 326
VWidth: 123
Flags: HW
LayerCount: 2
Fore
SplineSet
29 281 m 0
 29 285 29 288 29 291 c 0
 29 331 23 357 23 401 c 0
 23 405 23 408 23 412 c 0
 23 416 23 419 23 423 c 0
 23 459 25 496 25 530 c 0
 25 547 24 563 23 577 c 1
 22 601 l 1
 35 612 34 623 52 631 c 0
 58 634 65 636 69 636 c 0
 69 636 l 0
 83 633 98 631 107 631 c 0
 112 631 115 632 115 633 c 0
 115 634 115 634 119 634 c 2
 132 634 l 1
 139 632 135 628 141 628 c 0
 155 630 171 630 203 630 c 0
 207 630 211 630 215 630 c 0
 272 630 275 629 283 620 c 0
 285 617 286 616 286 608 c 2
 286 592 l 1
 285 567 282 558 275 558 c 0
 273 558 270 558 270 557 c 0
 269 555 177 551 137 551 c 2
 122 551 l 1
 108 553 l 1
 106 512 l 2
 105 498 105 471 105 444 c 0
 105 410 106 375 108 366 c 0
 110 364 110 341 110 262 c 2
 110 242 l 2
 110 172 113 137 113 96 c 0
 113 74 112 51 110 19 c 1
 110 -10 l 1
 120 -10 130 -10 140 -10 c 0
 157 -10 155 -9 166 -9 c 0
 167 -9 168 -9 169 -9 c 0
 172 -9 175 -8 175 -7 c 0
 176 -5 185 -5 195 -5 c 0
 197 -5 199 -5 201 -5 c 0
 221 -5 227 -10 245 -11 c 0
 255 -11 256 -12 263 -19 c 0
 270 -26 270 -28 271 -45 c 0
 272 -55 273 -61 273 -66 c 0
 273 -67 273 -67 273 -68 c 0
 273 -83 261 -87 250 -89 c 1
 250 -89 l 0
 250 -90 249 -91 248 -91 c 0
 246 -91 243 -90 239 -90 c 0
 238 -90 238 -90 237 -90 c 2
 164 -90 l 1
 159 -90 155 -90 151 -90 c 0
 121 -90 106 -93 74 -94 c 0
 73 -94 72 -94 71 -94 c 0
 46 -94 31 -81 23 -67 c 0
 21 -61 20 -56 20 -50 c 0
 20 -43 21 -35 23 -25 c 0
 27 -10 27 47 30 61 c 0
 31 65 33 100 33 126 c 0
 33 129 33 132 33 134 c 0
 33 158 28 156 28 179 c 0
 28 182 28 184 28 187 c 1
 28 197 l 2
 28 226 29 254 29 281 c 0
EndSplineSet
Comment: "char_L8_P19_x5677_y4390_x5813_y4762_Ww+AD0APQAA.svg"
EndChar

StartChar: minus
Encoding: 8722 8722 96
Width: 482
VWidth: 24
Flags: HW
LayerCount: 2
Fore
SplineSet
250 316 m 0
 268 318 353 320 392 320 c 2
 407 320 l 1
 426 319 427 319 433 313 c 0
 439 306 440 303 442 278 c 1
 442 269 l 2
 442 257 439 252 431 246 c 0
 425 241 422 240 397 239 c 0
 306 236 223 231 129 229 c 0
 128 229 127 229 126 229 c 0
 104 229 85 224 66 224 c 0
 58 224 49 225 41 228 c 0
 33 232 31 235 24 252 c 0
 21 259 20 264 20 268 c 0
 20 272 21 275 23 279 c 0
 27 288 31 291 45 297 c 0
 51 299 56 302 56 303 c 0
 56 306 81 309 119 310 c 0
 205 312 234 314 250 316 c 0
EndSplineSet
Comment: "char_L8_P1_x340_y4551_x549_y4600_4oiS.svg"
EndChar

StartChar: bracketright
Encoding: 93 93 97
Width: 348
VWidth: 116
Flags: HW
LayerCount: 2
Fore
SplineSet
24 566 m 0
 21 573 20 580 20 587 c 0
 20 601 26 613 40 614 c 0
 42 614 45 615 46 617 c 0
 47 619 52 619 63 619 c 0
 70 619 76 619 83 619 c 0
 99 619 112 621 126 621 c 0
 153 620 148 616 182 616 c 0
 185 616 188 616 191 616 c 2
 241 616 l 2
 267 616 275 616 281 613 c 0
 291 608 286 608 294 600 c 0
 301 592 303 584 304 550 c 0
 306 500 308 389 308 298 c 0
 308 265 308 235 307 211 c 0
 305 201 303 -59 301 -70 c 0
 299 -86 294 -91 283 -91 c 0
 275 -92 273 -98 265 -98 c 0
 264 -98 264 -98 263 -98 c 0
 245 -95 232 -93 201 -93 c 0
 200 -93 198 -93 197 -93 c 0
 158 -93 114 -95 114 -97 c 0
 112 -98 103 -98 92 -98 c 0
 89 -98 86 -98 83 -98 c 0
 63 -98 56 -91 43 -87 c 0
 39 -86 41 -83 37 -79 c 0
 34 -76 33 -74 33 -70 c 0
 33 -60 42 -24 46 -24 c 0
 47 -24 l 1
 55 -22 60 -16 71 -16 c 0
 72 -16 72 -16 73 -16 c 0
 81 -17 90 -17 99 -17 c 0
 135 -17 176 -13 205 -12 c 2
 221 -12 l 1
 223 -1 l 1
 225 27 223 200 226 228 c 0
 227 250 228 283 228 318 c 0
 228 402 225 503 223 530 c 1
 221 538 l 1
 180 539 l 2
 149 539 135 540 122 542 c 0
 114 541 105 539 94 539 c 0
 90 539 85 539 80 540 c 0
 36 542 29 546 24 566 c 0
EndSplineSet
Comment: "char_L8_P20_x6017_y4398_x6164_y4764_XQ+AD0APQAA.svg"
EndChar

StartChar: braceleft
Encoding: 123 123 98
Width: 286
VWidth: 120
Flags: HW
LayerCount: 2
Fore
SplineSet
246 -70 m 0
 246 -83 236 -91 224 -91 c 0
 212 -94 197 -105 179 -105 c 0
 176 -105 172 -105 169 -104 c 0
 149 -103 131 -99 125 -93 c 0
 124 -92 122 -91 121 -91 c 0
 114 -90 98 -77 91 -72 c 0
 76 -63 55 -45 55 -41 c 0
 55 -40 54 -38 52 -36 c 0
 47 -29 38 9 38 30 c 0
 38 31 38 32 38 33 c 0
 44 71 46 75 57 94 c 0
 91 155 92 153 106 203 c 1
 109 219 l 1
 104 229 l 2
 99 239 95 241 88 241 c 0
 84 241 79 240 73 240 c 0
 68 240 62 241 50 245 c 0
 22 251 27 258 22 278 c 0
 21 281 20 286 20 290 c 0
 20 302 25 316 33 317 c 0
 38 317 40 323 45 323 c 0
 49 323 60 331 67 331 c 0
 68 331 l 0
 68 331 l 0
 73 331 94 344 94 349 c 0
 94 350 l 1
 93 368 81 382 76 397 c 0
 73 404 65 419 58 432 c 0
 39 464 36 483 32 531 c 0
 32 531 l 0
 32 538 34 539 35 548 c 0
 35 554 38 553 39 556 c 0
 39 558 46 572 53 585 c 0
 57 592 78 612 83 614 c 0
 86 615 91 618 95 621 c 0
 109 632 133 642 145 642 c 0
 145 642 l 0
 146 642 l 0
 158 642 162 648 175 648 c 0
 176 648 l 0
 187 648 208 645 217 643 c 0
 225 640 232 631 232 623 c 0
 232 607 227 585 223 580 c 0
 217 570 159 571 150 561 c 0
 131 549 124 542 119 533 c 2
 114 524 l 1
 118 506 l 2
 121 489 132 464 136 462 c 0
 145 452 158 410 168 400 c 0
 173 394 176 365 176 345 c 0
 176 336 176 329 174 327 c 0
 170 322 169 312 164 306 c 0
 161 302 160 299 160 296 c 0
 160 292 162 289 167 284 c 0
 178 273 173 276 181 259 c 0
 187 245 190 228 190 211 c 0
 190 205 190 200 189 194 c 0
 182 156 181 169 174 144 c 0
 164 113 145 88 134 60 c 0
 134 59 130 53 126 46 c 0
 119 35 118 32 118 21 c 0
 118 20 118 20 118 19 c 0
 118 6 122 -3 136 -15 c 0
 141 -20 144 -22 148 -22 c 0
 150 -22 151 -22 154 -21 c 0
 165 -19 175 -21 184 -18 c 0
 190 -16 196 -15 201 -15 c 0
 208 -15 214 -17 221 -20 c 2
 233 -26 l 1
 240 -44 l 2
 244 -56 246 -64 246 -70 c 0
EndSplineSet
Comment: "char_L8_P21_x6382_y4384_x6497_y4767_ew+AD0APQAA.svg"
EndChar

StartChar: braceright
Encoding: 125 125 99
Width: 303
VWidth: 120
Flags: HW
LayerCount: 2
Fore
SplineSet
89 579 m 0
 68 583 55 606 55 631 c 1
 54 632 54 634 54 635 c 0
 54 645 67 653 73 655 c 0
 80 656 89 662 101 662 c 0
 102 662 103 662 104 662 c 0
 124 660 130 661 151 655 c 0
 178 648 184 645 194 633 c 0
 198 629 201 626 203 626 c 0
 204 626 206 626 206 625 c 2
 205 624 l 2
 205 622 209 617 214 611 c 0
 230 594 237 566 237 536 c 0
 237 514 233 492 227 473 c 0
 218 447 204 419 201 419 c 0
 200 419 198 418 198 417 c 0
 194 409 170 371 170 363 c 0
 170 362 171 362 171 362 c 1
 171 355 183 346 204 339 c 0
 220 332 228 332 236 328 c 0
 240 325 258 317 258 311 c 0
 260 307 264 302 264 296 c 0
 264 296 l 0
 264 288 260 279 258 273 c 0
 258 272 l 0
 258 261 239 259 234 254 c 0
 222 247 191 248 191 233 c 0
 191 232 191 231 191 230 c 1
 191 210 208 167 215 153 c 0
 220 145 226 106 227 78 c 1
 227 68 l 2
 227 29 219 -14 208 -35 c 0
 204 -45 199 -56 191 -61 c 0
 190 -61 188 -63 188 -64 c 0
 188 -74 165 -94 147 -100 c 0
 138 -102 119 -110 110 -110 c 0
 109 -109 97 -109 82 -108 c 0
 37 -105 20 -98 20 -74 c 0
 20 -73 20 -73 20 -72 c 0
 21 -59 32 -29 37 -26 c 0
 41 -24 46 -24 51 -24 c 0
 65 -24 80 -30 94 -30 c 0
 99 -30 104 -29 109 -27 c 1
 136 -22 146 44 146 83 c 0
 146 84 146 86 146 87 c 0
 143 111 139 129 134 138 c 0
 117 175 120 166 115 191 c 0
 111 208 108 220 108 232 c 0
 108 233 108 235 108 236 c 0
 108 260 119 273 126 288 c 0
 126 291 123 293 113 302 c 0
 92 319 90 335 90 372 c 0
 90 395 98 407 106 421 c 0
 121 447 156 490 156 533 c 0
 156 540 155 547 153 553 c 0
 151 566 134 573 123 579 c 0
 119 581 116 581 112 581 c 0
 105 581 97 579 90 579 c 0
 89 579 l 0
EndSplineSet
Comment: "char_L8_P22_x6665_y4377_x6790_y4770_fQ+AD0APQAA.svg"
EndChar

StartChar: slash
Encoding: 47 47 100
Width: 403
VWidth: 126
Flags: HW
LayerCount: 2
Fore
SplineSet
20 -35 m 0
 23 0 56 53 70 83 c 0
 79 103 95 132 104 155 c 1
 103 155 l 1
 109 173 122 197 127 220 c 0
 139 249 158 301 169 326 c 0
 187 367 215 430 238 469 c 0
 245 478 252 489 252 491 c 2
 251 492 l 1
 262 511 280 534 287 557 c 0
 289 572 298 579 310 579 c 0
 317 579 324 577 332 573 c 0
 350 566 353 568 362 553 c 1
 362 551 363 549 363 547 c 0
 363 520 334 473 327 464 c 0
 322 455 311 437 306 427 c 0
 306 425 288 396 288 392 c 0
 288 388 273 364 273 360 c 0
 265 339 248 313 241 291 c 0
 234 273 229 259 222 240 c 0
 196 180 200 175 169 107 c 0
 151 66 131 28 112 -10 c 0
 108 -17 98 -37 98 -46 c 0
 95 -53 77 -65 66 -67 c 0
 62 -67 59 -65 50 -61 c 0
 35 -53 34 -56 25 -49 c 0
 22 -46 20 -41 20 -35 c 0
EndSplineSet
Comment: "char_L8_P23_x6947_y4419_x7122_y4748_Lw+AD0APQAA.svg"
EndChar

StartChar: backslash
Encoding: 92 92 101
Width: 403
VWidth: 126
Flags: HW
LayerCount: 2
Fore
SplineSet
180 192 m 1
 181 192 l 1
 181 196 160 243 155 258 c 0
 144 288 133 316 118 343 c 0
 106 364 115 355 104 374 c 0
 93 392 97 393 85 412 c 0
 76 429 69 442 56 464 c 0
 47 474 20 524 20 546 c 0
 20 547 l 0
 20 556 25 561 34 567 c 1
 37 567 66 580 73 580 c 1
 74 579 l 1
 86 579 94 572 97 557 c 0
 105 534 120 511 132 492 c 1
 131 491 l 2
 131 487 151 462 152 458 c 0
 154 452 164 439 166 431 c 0
 178 403 204 352 215 326 c 0
 226 300 244 248 256 220 c 0
 282 139 315 82 351 8 c 0
 360 -11 363 -25 363 -35 c 0
 363 -41 361 -46 358 -49 c 0
 349 -56 348 -53 333 -61 c 0
 324 -65 322 -67 318 -67 c 0
 316 -67 313 -66 310 -65 c 0
 302 -62 287 -51 286 -46 c 0
 275 -9 253 23 238 56 c 1
 238 60 222 87 222 91 c 0
 207 124 192 158 180 192 c 1
EndSplineSet
Comment: "char_L8_P24_x7241_y4419_x7416_y4748_XA+AD0APQAA.svg"
EndChar

StartChar: less
Encoding: 60 60 102
Width: 398
VWidth: 147
Flags: HW
LayerCount: 2
Fore
SplineSet
298 549 m 0
 306 554 311 556 315 556 c 0
 321 556 326 551 337 539 c 0
 349 525 356 522 359 508 c 0
 359 499 343 484 269 409 c 0
 189 329 159 300 153 300 c 0
 151 300 122 278 121 275 c 0
 121 274 127 267 134 261 c 0
 149 248 198 194 213 181 c 0
 251 147 239 149 269 118 c 0
 294 92 287 95 313 69 c 0
 332 51 333 48 344 33 c 0
 348 27 350 23 350 19 c 0
 350 13 346 7 339 -3 c 0
 324 -25 325 -21 306 -26 c 0
 296 -26 287 -21 277 -12 c 0
 265 -2 263 8 253 16 c 0
 223 42 192 86 165 115 c 0
 156 121 132 145 126 154 c 0
 120 163 90 194 64 217 c 0
 37 244 21 255 20 275 c 0
 20 278 21 280 22 286 c 0
 24 302 29 308 43 314 c 0
 56 324 65 334 85 348 c 0
 111 367 150 402 186 438 c 0
 206 459 209 460 220 469 c 0
 239 493 288 544 298 549 c 0
EndSplineSet
Comment: "char_L8_P25_x7593_y4431_x7766_y4727_PA+AD0APQAA.svg"
EndChar

StartChar: greater
Encoding: 62 62 103
Width: 398
VWidth: 147
Flags: HW
LayerCount: 2
Fore
SplineSet
20 508 m 0
 23 522 30 525 42 539 c 0
 53 551 58 556 64 556 c 0
 68 556 73 554 81 549 c 0
 91 544 140 493 159 469 c 0
 170 459 173 460 193 438 c 0
 229 402 268 367 294 348 c 0
 314 333 323 324 336 314 c 1
 353 308 356 296 359 276 c 0
 359 275 359 271 358 268 c 0
 356 258 339 239 315 217 c 0
 289 194 259 163 253 154 c 0
 247 145 223 121 214 115 c 0
 199 103 186 82 171 65 c 0
 157 50 140 27 126 16 c 0
 116 9 114 -2 102 -12 c 0
 92 -20 84 -26 74 -26 c 0
 71 -26 68 -25 64 -24 c 0
 53 -21 53 -21 40 -3 c 0
 33 7 29 13 29 19 c 0
 29 23 31 27 35 33 c 0
 46 48 47 51 66 69 c 0
 92 95 85 92 110 118 c 0
 140 149 128 147 166 181 c 0
 181 194 230 248 245 261 c 0
 252 267 258 274 258 275 c 0
 257 278 228 300 226 300 c 0
 220 300 189 329 110 409 c 0
 35 484 20 499 20 508 c 0
EndSplineSet
Comment: "char_L8_P26_x7972_y4431_x8145_y4727_Pg+AD0APQAA.svg"
EndChar

StartChar: divide
Encoding: 247 247 104
Width: 512
VWidth: 184
Flags: HW
LayerCount: 2
Fore
SplineSet
299 475 m 0
 300 473 300 471 300 468 c 0
 300 451 283 424 280 422 c 0
 280 422 279 422 279 423 c 1
 278 423 271 417 268 411 c 0
 263 403 260 400 246 399 c 0
 240 398 235 398 231 398 c 0
 210 398 209 408 197 421 c 0
 192 426 190 432 190 439 c 0
 190 458 204 480 214 484 c 0
 220 486 216 488 222 490 c 0
 225 490 234 499 236 500 c 0
 239 500 248 505 253 505 c 0
 254 505 l 0
 262 505 275 499 276 495 c 0
 276 490 299 477 299 475 c 0
372 329 m 1
 402 329 l 2
 428 329 463 327 467 319 c 0
 472 313 472 312 472 294 c 0
 472 281 471 273 469 268 c 0
 466 261 456 250 452 250 c 0
 414 247 120 250 77 243 c 0
 71 242 67 242 64 242 c 0
 59 242 55 243 45 245 c 0
 27 247 22 257 21 286 c 1
 20 300 l 1
 28 307 l 2
 32 311 36 314 38 314 c 0
 39 314 41 314 41 315 c 0
 41 317 59 321 82 323 c 0
 86 326 364 328 372 329 c 1
296 106 m 0
 296 105 296 105 296 104 c 0
 296 97 285 89 283 85 c 0
 283 82 269 61 267 61 c 0
 266 61 262 59 259 56 c 0
 254 52 243 49 234 49 c 0
 233 49 l 0
 230 49 211 59 208 59 c 0
 205 60 207 63 203 64 c 0
 194 69 194 78 189 91 c 0
 187 95 186 99 186 102 c 0
 186 108 188 113 189 120 c 0
 189 127 202 153 207 156 c 0
 211 158 236 165 245 165 c 0
 246 165 l 0
 253 165 259 162 265 159 c 0
 274 153 275 153 287 130 c 0
 293 119 296 112 296 106 c 0
EndSplineSet
Comment: "char_L8_P27_x8250_y4457_x8480_y4689_w7c+AD0A.svg"
EndChar

StartChar: plusminus
Encoding: 177 177 105
Width: 510
VWidth: 224
Flags: HW
LayerCount: 2
Fore
SplineSet
330 433 m 0
 346 431 367 430 388 430 c 0
 409 430 429 431 443 434 c 0
 452 434 459 423 461 418 c 0
 463 401 467 388 467 378 c 0
 467 368 463 360 446 355 c 0
 433 352 402 350 373 350 c 0
 355 350 338 351 327 352 c 0
 313 354 298 356 291 357 c 2
 279 358 l 1
 277 325 l 1
 277 300 l 2
 277 279 278 266 282 257 c 0
 284 254 285 251 285 247 c 0
 285 240 282 233 278 231 c 0
 277 231 274 228 272 224 c 0
 266 212 256 215 246 210 c 0
 243 209 240 208 237 208 c 0
 227 208 216 214 213 219 c 0
 213 220 211 224 208 228 c 0
 199 238 197 260 197 301 c 0
 197 304 197 307 197 310 c 2
 197 360 l 1
 151 358 l 2
 128 357 115 356 101 356 c 0
 89 356 77 357 58 358 c 0
 40 359 30 364 24 371 c 0
 23 375 20 385 20 393 c 0
 20 399 21 403 25 405 c 0
 28 405 29 411 32 411 c 0
 34 411 37 412 40 414 c 0
 51 425 129 430 130 434 c 0
 132 436 196 440 199 441 c 0
 200 449 200 459 200 469 c 0
 200 498 198 532 196 549 c 0
 198 566 198 564 216 576 c 0
 230 584 235 589 247 589 c 0
 250 589 254 589 258 588 c 1
 258 588 264 578 271 566 c 2
 285 544 l 1
 284 513 l 2
 284 485 282 468 282 447 c 0
 282 446 l 0
 283 437 278 438 330 433 c 0
471 149 m 0
 470 124 472 100 452 95 c 0
 448 95 444 95 440 95 c 0
 392 95 337 99 285 99 c 0
 271 99 257 99 243 98 c 0
 242 98 240 98 239 98 c 0
 195 98 113 80 70 71 c 0
 65 71 60 72 50 77 c 0
 44 81 43 83 38 98 c 0
 35 111 32 114 32 118 c 0
 32 121 33 124 36 130 c 0
 41 141 45 142 66 149 c 0
 126 166 189 176 271 179 c 0
 311 179 390 178 423 176 c 0
 463 174 464 173 469 164 c 0
 470 162 471 157 471 149 c 0
EndSplineSet
Comment: "char_L8_P28_x8621_y4414_x8850_y4678_wrE+AD0A.svg"
EndChar

StartChar: radical
Encoding: 8730 8730 106
Width: 573
VWidth: 128
Flags: HW
LayerCount: 2
Fore
SplineSet
488 538 m 0
 474 543 458 544 440 544 c 0
 415 544 388 541 363 541 c 0
 346 541 329 543 316 547 c 1
 306 550 l 1
 304 518 l 2
 301 479 301 436 295 408 c 0
 280 305 267 188 248 90 c 0
 230 -23 224 -51 216 -68 c 0
 211 -77 206 -83 198 -83 c 0
 197 -83 197 -83 196 -83 c 0
 195 -83 l 0
 189 -83 186 -88 180 -88 c 0
 179 -88 179 -88 178 -88 c 0
 169 -88 158 -85 153 -79 c 0
 140 -61 118 -19 112 -12 c 0
 95 16 77 54 64 90 c 0
 53 117 44 139 39 143 c 0
 33 153 20 167 20 181 c 0
 20 186 22 192 27 197 c 0
 40 214 46 224 55 224 c 0
 59 224 63 222 69 219 c 0
 90 205 116 180 116 174 c 0
 126 146 140 117 152 90 c 0
 157 78 160 72 161 72 c 2
 162 73 l 1
 188 208 209 365 223 514 c 0
 232 600 226 580 243 605 c 0
 248 611 274 636 276 636 c 1
 278 636 282 638 285 638 c 0
 286 638 l 0
 319 625 338 622 404 622 c 2
 432 622 l 2
 450 622 463 623 472 623 c 0
 499 623 495 622 513 616 c 0
 524 611 523 597 529 585 c 0
 532 581 533 577 533 574 c 0
 533 562 518 553 509 546 c 0
 506 544 496 538 488 538 c 0
EndSplineSet
Comment: "char_L8_P29_x9052_y4389_x9313_y4759_4oia.svg"
EndChar

StartChar: multiply
Encoding: 215 215 107
Width: 511
VWidth: 159
Flags: HW
LayerCount: 2
Fore
SplineSet
468 67 m 0
 464 61 459 45 449 45 c 0
 448 45 l 0
 444 45 433 35 429 35 c 0
 424 36 412 36 409 41 c 0
 407 43 404 45 402 46 c 0
 397 46 355 125 351 128 c 0
 332 154 288 198 272 208 c 0
 269 210 264 214 261 217 c 0
 259 219 258 220 256 220 c 0
 251 220 246 212 243 210 c 0
 240 205 187 144 182 140 c 0
 164 118 133 80 108 51 c 0
 89 27 79 18 68 18 c 0
 62 18 55 21 48 26 c 0
 30 41 20 46 20 56 c 0
 20 60 22 64 25 71 c 0
 46 109 63 118 93 159 c 0
 102 172 130 201 139 212 c 0
 143 218 175 254 178 256 c 0
 179 257 184 261 188 266 c 2
 195 274 l 1
 186 284 l 2
 181 290 175 294 174 294 c 0
 167 299 89 372 74 396 c 0
 73 402 60 416 60 426 c 0
 60 427 l 0
 60 435 61 437 75 451 c 0
 88 463 90 465 96 465 c 0
 97 465 l 0
 105 464 106 464 117 455 c 0
 130 445 127 451 141 437 c 0
 169 408 243 340 246 340 c 0
 251 343 312 422 332 446 c 0
 343 455 338 466 348 474 c 0
 357 479 359 495 373 495 c 0
 374 495 374 495 375 495 c 0
 385 495 400 492 400 488 c 0
 400 487 403 483 408 480 c 0
 423 470 428 463 429 450 c 0
 429 438 400 403 393 395 c 0
 390 392 307 287 307 283 c 0
 307 283 l 0
 308 283 l 1
 308 282 308 282 309 281 c 0
 328 261 343 258 366 233 c 0
 397 202 423 166 450 117 c 0
 460 96 469 95 471 78 c 0
 471 74 470 70 468 67 c 0
EndSplineSet
Comment: "char_L8_P2_x664_y4462_x894_y4705_w5c+AD0A.svg"
EndChar

StartChar: Sigma
Encoding: 931 931 108
Width: 547
VWidth: 153
Flags: HW
LayerCount: 2
Fore
SplineSet
96 634 m 0
 104 638 122 642 139 642 c 0
 146 642 152 641 157 640 c 0
 160 637 219 638 220 634 c 0
 223 633 233 632 245 632 c 0
 261 632 279 633 282 635 c 0
 287 636 315 638 337 638 c 0
 347 638 355 638 360 637 c 0
 369 634 389 632 405 632 c 0
 426 635 436 638 463 638 c 0
 464 638 l 0
 488 638 485 623 494 613 c 0
 499 608 500 603 504 583 c 2
 508 559 l 1
 504 548 l 2
 500 535 496 541 496 527 c 0
 496 527 l 0
 496 515 489 509 476 509 c 0
 475 509 475 509 474 509 c 0
 461 509 436 512 435 514 c 0
 425 518 418 528 418 542 c 0
 418 545 418 549 419 552 c 1
 400 552 l 2
 368 552 362 558 333 558 c 0
 290 557 264 552 235 552 c 0
 220 552 204 554 185 558 c 0
 184 558 184 557 184 556 c 0
 190 540 232 488 238 485 c 0
 246 478 271 443 279 434 c 0
 289 421 288 421 293 410 c 0
 301 396 329 350 330 320 c 0
 330 320 l 0
 330 307 327 284 316 284 c 0
 315 284 315 283 315 281 c 0
 315 279 308 273 304 273 c 0
 303 273 302 273 302 274 c 1
 301 268 299 265 291 257 c 0
 276 241 262 223 262 220 c 0
 262 218 253 207 241 194 c 0
 203 156 177 104 143 59 c 0
 136 52 123 32 123 29 c 2
 123 29 123 28 124 28 c 0
 128 31 139 32 151 32 c 0
 166 32 182 31 187 29 c 1
 214 31 262 31 284 36 c 0
 291 36 296 33 304 33 c 0
 317 35 335 36 363 36 c 0
 400 36 401 37 402 41 c 0
 403 46 414 58 418 58 c 0
 423 59 435 71 443 71 c 0
 444 71 l 0
 447 72 450 72 452 72 c 0
 460 72 463 68 473 59 c 2
 486 47 l 1
 487 32 l 2
 487 25 488 19 488 12 c 0
 488 -3 486 -16 478 -25 c 0
 469 -40 467 -37 452 -42 c 0
 442 -46 430 -47 417 -47 c 0
 399 -47 379 -44 363 -44 c 0
 355 -44 331 -47 312 -47 c 0
 306 -47 301 -47 297 -46 c 0
 278 -46 261 -50 235 -50 c 0
 233 -50 231 -50 229 -50 c 0
 208 -50 195 -52 181 -52 c 0
 173 -52 165 -51 155 -50 c 0
 143 -50 129 -53 116 -53 c 0
 112 -53 108 -53 104 -52 c 0
 68 -47 72 -47 52 -37 c 0
 42 -32 35 -26 34 -21 c 0
 30 -13 20 -5 20 5 c 0
 20 6 l 0
 20 21 40 57 62 84 c 0
 79 105 111 150 127 177 c 0
 139 197 160 225 168 231 c 0
 171 233 173 237 173 238 c 0
 173 242 206 277 206 282 c 0
 206 288 244 324 244 331 c 0
 244 331 l 0
 244 337 222 376 215 384 c 0
 203 397 193 415 179 429 c 0
 151 459 139 474 132 487 c 0
 121 507 117 509 104 531 c 0
 92 556 72 562 72 593 c 0
 72 594 72 595 72 596 c 0
 72 607 74 613 77 613 c 0
 78 613 78 614 78 614 c 0
 78 615 77 615 77 616 c 0
 77 616 77 617 78 617 c 0
 82 618 90 634 96 634 c 0
EndSplineSet
Comment: "char_L8_P30_x9444_y4387_x9692_y4741_zqM+AD0A.svg"
EndChar

StartChar: asterisk
Encoding: 42 42 109
Width: 514
VWidth: 156
Flags: HW
LayerCount: 2
Fore
SplineSet
255 1 m 0
 209 3 213 13 211 54 c 0
 211 87 214 135 218 153 c 0
 218 154 l 0
 218 155 218 155 218 156 c 0
 218 157 218 159 217 159 c 0
 217 159 l 0
 216 159 214 158 212 155 c 0
 209 150 154 99 152 99 c 0
 151 99 148 96 144 92 c 0
 135 83 128 79 120 79 c 0
 114 79 108 81 100 86 c 0
 79 101 77 102 77 116 c 0
 77 117 77 117 77 118 c 0
 77 128 85 136 87 142 c 0
 87 143 87 145 88 145 c 0
 89 145 107 163 127 184 c 2
 164 222 l 1
 149 222 135 222 120 222 c 0
 103 222 82 223 68 223 c 0
 41 224 37 224 32 228 c 0
 22 235 20 242 20 259 c 0
 20 276 22 279 31 284 c 0
 43 289 116 302 145 302 c 0
 146 302 l 0
 161 303 174 304 175 304 c 1
 175 305 170 310 164 316 c 0
 127 352 96 373 85 418 c 0
 85 418 l 0
 85 423 104 442 112 442 c 0
 113 442 l 0
 118 442 123 440 131 434 c 0
 148 421 159 415 177 400 c 0
 198 384 206 377 215 373 c 0
 216 373 216 374 216 375 c 0
 216 376 215 378 215 380 c 0
 215 380 l 0
 215 384 214 407 213 430 c 1
 213 457 l 2
 213 478 216 512 226 518 c 0
 230 521 234 524 235 524 c 0
 241 524 271 517 275 515 c 0
 281 511 288 488 288 473 c 0
 288 472 288 470 288 469 c 0
 288 453 292 449 293 425 c 0
 294 411 295 393 296 385 c 2
 298 370 l 1
 312 386 352 436 373 447 c 0
 381 450 386 451 390 451 c 0
 400 451 405 444 416 429 c 0
 424 416 429 410 429 402 c 0
 429 399 428 396 427 392 c 0
 426 390 413 377 400 363 c 0
 372 335 351 309 351 304 c 0
 351 303 352 303 352 303 c 1
 354 303 400 299 417 299 c 0
 419 299 420 299 421 299 c 0
 422 299 422 299 423 299 c 0
 433 299 437 302 446 302 c 0
 462 302 463 285 471 272 c 0
 474 268 475 263 475 258 c 0
 475 245 468 230 460 230 c 0
 460 230 l 0
 458 230 456 229 456 228 c 0
 456 223 429 221 407 221 c 0
 397 221 388 221 382 222 c 2
 363 224 l 1
 382 200 404 175 414 168 c 0
 423 161 428 156 428 150 c 0
 428 147 427 145 425 141 c 0
 420 131 408 109 404 107 c 0
 399 105 390 101 381 101 c 0
 379 101 376 101 374 102 c 0
 356 107 315 158 300 175 c 1
 298 162 l 2
 296 155 292 46 287 13 c 0
 283 9 280 0 270 -0 c 0
 269 0 269 -0 268 -0 c 0
 265 0 261 1 255 1 c 0
EndSplineSet
Comment: "char_L8_P3_x976_y4447_x1208_y4714_Kg+AD0APQAA.svg"
EndChar

StartChar: exclam
Encoding: 33 33 110
Width: 186
VWidth: 141
Flags: HW
LayerCount: 2
Fore
SplineSet
74 584 m 0
 84 586 88 589 93 589 c 0
 95 589 98 588 101 587 c 0
 109 583 114 576 120 556 c 0
 132 519 133 516 133 463 c 0
 133 383 133 304 133 224 c 0
 133 206 131 201 121 196 c 0
 119 195 116 193 116 191 c 0
 112 184 106 181 99 181 c 0
 84 181 65 194 57 200 c 1
 52 207 51 226 51 248 c 0
 51 268 52 290 52 307 c 0
 52 308 l 0
 52 344 53 379 53 411 c 0
 53 440 53 466 51 487 c 0
 48 495 47 527 44 536 c 0
 42 546 40 553 40 559 c 0
 40 572 48 577 74 584 c 0
60 85 m 0
 76 96 77 97 87 97 c 0
 88 97 89 97 90 97 c 0
 99 97 98 91 103 89 c 1
 104 90 l 1
 107 90 123 64 125 64 c 0
 130 60 144 49 144 39 c 0
 144 38 144 38 144 37 c 0
 146 29 147 23 147 17 c 0
 147 9 145 3 139 -5 c 0
 132 -13 109 -40 103 -40 c 0
 95 -42 91 -49 78 -49 c 0
 75 -49 72 -49 69 -49 c 0
 56 -49 49 -41 41 -38 c 1
 40 -38 l 0
 33 -38 20 -8 20 10 c 0
 20 11 20 13 20 14 c 0
 20 46 38 71 60 85 c 0
EndSplineSet
Comment: "char_L8_P4_x1342_y4414_x1407_y4739_IQ+AD0APQAA.svg"
EndChar

StartChar: question
Encoding: 63 63 111
Width: 428
VWidth: 161
Flags: HW
LayerCount: 2
Fore
SplineSet
82 419 m 0
 80 417 73 407 67 407 c 0
 66 407 l 0
 64 407 60 408 56 408 c 0
 35 410 27 415 20 427 c 1
 24 454 l 2
 26 472 28 482 31 487 c 0
 38 500 55 524 62 532 c 0
 66 536 70 540 70 541 c 0
 70 543 101 567 112 573 c 0
 124 579 119 582 131 586 c 0
 141 589 154 594 155 596 c 0
 162 601 221 611 250 611 c 0
 251 611 252 611 253 611 c 0
 266 611 301 602 307 597 c 0
 315 591 321 592 333 582 c 0
 339 578 346 573 349 572 c 0
 354 570 368 553 368 549 c 0
 368 548 370 546 372 544 c 0
 382 531 388 504 388 479 c 0
 388 466 386 454 383 443 c 0
 377 423 359 384 351 375 c 0
 349 373 348 371 347 369 c 0
 345 363 315 330 298 316 c 0
 274 296 230 266 207 255 c 0
 200 251 189 248 189 238 c 0
 189 236 189 234 190 232 c 0
 195 217 208 182 209 168 c 1
 203 151 206 152 179 143 c 0
 166 139 157 137 152 137 c 0
 152 137 l 0
 145 139 134 150 132 157 c 0
 122 184 109 212 108 247 c 0
 107 251 107 253 107 256 c 0
 107 264 110 268 119 286 c 0
 123 294 145 310 177 329 c 0
 218 354 239 369 254 383 c 0
 269 397 294 433 300 449 c 0
 302 457 307 473 307 483 c 0
 307 485 307 487 306 488 c 0
 305 488 303 492 302 498 c 0
 299 511 292 517 269 525 c 0
 258 529 248 530 238 530 c 0
 226 530 213 528 198 524 c 0
 168 517 152 508 127 483 c 0
 109 464 104 460 98 444 c 0
 96 438 86 427 82 419 c 0
171 90 m 1
 178 91 182 92 186 92 c 0
 193 92 197 89 209 78 c 0
 217 71 228 59 234 53 c 0
 243 42 244 41 244 31 c 2
 244 21 l 1
 225 -1 l 2
 201 -28 204 -25 175 -29 c 0
 174 -29 163 -20 151 -9 c 0
 129 13 129 7 126 28 c 0
 126 47 160 84 171 90 c 1
EndSplineSet
Comment: "char_L8_P5_x1485_y4403_x1672_y4729_Pw+AD0APQAA.svg"
EndChar

StartChar: numbersign
Encoding: 35 35 112
Width: 531
VWidth: 129
Flags: HW
LayerCount: 2
Fore
SplineSet
44 277 m 0
 43 277 l 0
 34 277 20 296 20 308 c 0
 20 309 20 310 20 311 c 0
 20 317 21 323 22 324 c 0
 23 326 66 356 73 356 c 1
 74 355 l 1
 88 356 128 369 137 369 c 0
 137 369 l 0
 144 371 141 373 154 374 c 0
 163 375 168 377 169 379 c 0
 173 382 174 435 177 448 c 0
 181 474 189 517 193 543 c 0
 193 549 201 560 205 561 c 0
 206 561 217 562 224 562 c 0
 225 562 226 562 227 562 c 0
 245 562 247 561 250 557 c 0
 254 552 256 538 257 502 c 0
 258 477 259 477 259 468 c 0
 258 449 254 401 252 388 c 0
 252 384 253 383 255 383 c 0
 257 383 259 384 262 385 c 0
 265 386 277 387 290 388 c 2
 314 390 l 1
 320 422 l 2
 329 463 333 473 345 512 c 0
 350 529 354 537 362 542 c 2
 370 547 l 1
 387 542 l 2
 405 537 412 534 412 513 c 0
 412 512 412 512 412 511 c 0
 412 490 398 407 395 389 c 1
 406 389 l 2
 406 389 407 389 408 389 c 0
 419 389 445 392 458 392 c 0
 458 392 l 0
 470 392 475 390 476 384 c 0
 477 381 477 379 478 379 c 0
 485 374 484 362 489 353 c 0
 491 349 492 344 492 341 c 0
 492 332 485 326 476 320 c 0
 463 313 451 312 417 311 c 0
 397 310 381 309 381 309 c 1
 380 307 369 230 369 222 c 0
 369 222 l 1
 385 223 409 226 433 226 c 0
 434 226 435 226 436 226 c 0
 439 226 442 226 445 226 c 0
 471 226 475 223 481 211 c 0
 483 207 485 193 485 181 c 0
 485 173 484 165 482 162 c 0
 476 151 473 149 441 147 c 0
 424 146 406 145 400 145 c 0
 387 145 379 141 367 141 c 0
 362 141 358 140 357 139 c 0
 354 134 351 76 351 48 c 0
 351 46 351 45 351 43 c 0
 351 34 354 31 354 25 c 0
 354 23 353 20 352 16 c 0
 349 8 332 3 326 -2 c 0
 323 -5 320 -6 316 -6 c 0
 312 -6 307 -5 302 -5 c 0
 291 -4 282 3 273 18 c 0
 270 22 270 25 270 38 c 0
 271 54 271 125 274 128 c 0
 274 129 274 129 273 129 c 2
 272 128 l 2
 270 127 258 126 245 124 c 0
 226 121 220 119 220 117 c 0
 220 108 213 34 213 15 c 0
 213 14 l 0
 213 2 210 -43 192 -46 c 0
 186 -50 183 -53 169 -53 c 0
 168 -53 166 -53 164 -53 c 0
 156 -53 152 -52 148 -50 c 0
 133 -40 141 -41 130 -30 c 0
 124 -24 123 -23 123 -16 c 0
 123 -16 123 -15 123 -14 c 0
 123 -9 124 -4 125 -3 c 0
 129 2 132 20 134 55 c 0
 136 81 136 94 138 105 c 1
 125 104 l 2
 109 103 89 100 70 100 c 0
 69 100 68 100 67 100 c 0
 41 101 30 114 30 141 c 0
 30 142 l 0
 30 146 31 148 35 153 c 0
 43 162 49 165 67 169 c 0
 89 175 82 177 110 181 c 0
 146 186 144 186 146 195 c 0
 150 217 155 270 157 289 c 0
 157 294 156 296 155 296 c 0
 143 296 83 284 65 282 c 0
 64 282 l 0
 58 282 52 277 46 277 c 0
 45 277 45 277 44 277 c 0
229 201 m 0
 242 205 273 207 284 211 c 1
 284 218 298 292 298 304 c 0
 298 305 298 305 298 305 c 0
 298 306 l 0
 298 308 298 308 296 308 c 0
 295 308 l 0
 293 308 280 306 266 305 c 2
 241 304 l 1
 238 281 l 2
 235 251 230 230 227 202 c 0
 227 201 227 201 229 201 c 0
EndSplineSet
Comment: "char_L8_P6_x1701_y4428_x1941_y4741_Iw+AD0APQAA.svg"
EndChar

StartChar: at
Encoding: 64 64 113
Width: 536
VWidth: 177
Flags: HW
LayerCount: 2
Fore
SplineSet
432 183 m 1
 423 183 409 172 397 172 c 0
 396 172 394 172 393 172 c 0
 392 172 390 172 389 172 c 0
 374 172 357 176 354 180 c 0
 353 181 351 183 348 185 c 0
 338 191 325 209 324 217 c 0
 323 223 321 225 320 225 c 0
 318 225 314 218 306 214 c 0
 271 185 257 181 213 177 c 0
 202 177 193 180 181 190 c 0
 163 204 165 203 157 221 c 0
 153 227 152 240 152 253 c 0
 152 273 155 296 159 303 c 0
 167 325 172 337 182 351 c 0
 194 368 214 391 217 391 c 0
 220 391 236 405 239 405 c 0
 240 405 241 406 241 407 c 0
 241 407 l 0
 241 408 267 421 283 421 c 0
 284 421 286 421 287 421 c 0
 305 421 328 417 336 411 c 0
 339 409 342 407 343 407 c 0
 346 407 362 392 362 390 c 0
 362 390 l 0
 362 387 375 375 375 369 c 0
 375 368 375 367 375 367 c 1
 375 365 375 364 375 363 c 0
 375 356 373 351 373 346 c 0
 373 343 374 340 376 338 c 0
 386 327 388 318 390 269 c 0
 390 261 392 254 393 253 c 2
 394 253 l 1
 404 258 419 285 419 309 c 0
 419 311 419 312 419 314 c 0
 419 316 419 317 419 319 c 0
 419 352 402 397 389 418 c 0
 380 431 352 460 344 464 c 0
 328 471 304 479 282 479 c 0
 273 479 265 478 257 475 c 0
 234 468 219 460 202 445 c 0
 170 417 124 345 106 297 c 0
 100 279 97 257 97 235 c 0
 97 206 102 176 113 155 c 0
 126 129 140 114 160 101 c 0
 171 96 196 92 221 92 c 2
 232 92 l 1
 264 94 324 107 366 122 c 0
 376 125 383 128 390 128 c 0
 396 128 400 126 405 120 c 0
 408 116 410 113 411 113 c 0
 412 113 413 112 413 111 c 0
 413 111 l 0
 413 107 423 99 423 93 c 0
 423 92 423 91 422 90 c 0
 421 83 416 82 414 75 c 0
 413 69 395 57 377 50 c 0
 327 31 269 16 211 16 c 0
 194 16 177 17 161 20 c 0
 146 24 123 33 107 44 c 0
 96 51 81 66 71 79 c 0
 67 84 64 88 63 88 c 0
 60 88 44 115 44 120 c 0
 44 122 43 125 42 126 c 0
 38 130 31 154 26 172 c 0
 21 192 20 200 20 241 c 0
 20 268 21 271 33 316 c 0
 42 354 89 433 127 480 c 0
 140 495 173 526 189 531 c 0
 221 548 254 558 295 558 c 0
 299 558 303 558 307 558 c 0
 340 557 368 540 392 527 c 0
 400 524 430 495 445 475 c 0
 456 461 470 432 474 421 c 0
 478 408 479 416 483 400 c 0
 485 393 487 385 488 383 c 0
 494 370 497 347 497 323 c 0
 497 305 495 286 492 273 c 0
 487 253 478 229 471 222 c 0
 467 218 439 182 433 182 c 1
 432 183 l 1
307 347 m 0
 306 350 302 350 298 350 c 0
 291 350 283 347 273 340 c 0
 255 329 255 328 241 305 c 0
 230 288 226 273 225 253 c 1
 225 253 l 0
 226 253 l 0
 229 253 231 253 234 255 c 0
 258 266 274 286 288 303 c 0
 295 312 294 323 302 335 c 0
 305 342 307 345 307 347 c 0
EndSplineSet
Comment: "char_L8_P7_x2027_y4430_x2270_y4706_QA+AD0APQAA.svg"
EndChar

StartChar: dollar
Encoding: 36 36 114
Width: 458
VWidth: 135
Flags: HW
LayerCount: 2
Fore
SplineSet
360 517 m 0
 360 517 l 0
 362 517 372 503 372 493 c 0
 372 489 370 486 365 475 c 0
 358 460 355 454 339 454 c 0
 330 454 317 455 298 458 c 2
 280 461 l 1
 281 451 l 1
 281 450 281 449 281 447 c 0
 281 431 279 408 277 402 c 1
 277 401 277 401 277 401 c 0
 277 399 277 399 282 399 c 0
 285 399 289 400 296 400 c 0
 300 400 304 400 308 400 c 0
 325 400 334 396 348 390 c 0
 381 375 413 333 417 294 c 0
 418 286 419 269 419 253 c 0
 419 233 418 212 417 202 c 0
 414 181 400 140 393 129 c 0
 390 125 388 121 388 120 c 0
 388 115 358 81 345 71 c 0
 336 62 285 41 284 41 c 0
 277 36 276 36 276 25 c 0
 276 16 276 6 276 -3 c 0
 276 -4 l 0
 276 -21 272 -20 272 -38 c 0
 272 -38 l 0
 272 -46 269 -49 263 -49 c 0
 262 -49 262 -49 261 -49 c 0
 252 -49 254 -32 248 -28 c 0
 242 -20 233 -4 231 7 c 0
 231 11 228 20 223 20 c 0
 222 20 l 0
 221 19 213 19 205 19 c 0
 202 19 200 19 198 19 c 0
 197 19 196 19 195 19 c 2
 172 19 l 1
 172 0 l 1
 170 -32 167 -47 158 -60 c 0
 157 -64 155 -65 152 -65 c 0
 150 -65 147 -64 144 -64 c 0
 132 -62 131 -62 131 -49 c 0
 131 -44 129 -39 128 -38 c 0
 126 -36 126 -25 125 -1 c 2
 124 34 l 1
 111 43 l 1
 87 57 55 95 44 117 c 0
 37 125 22 165 20 181 c 0
 20 186 21 190 23 201 c 0
 24 218 29 214 46 221 c 0
 54 223 59 224 62 224 c 0
 66 224 68 222 68 218 c 0
 71 205 82 194 89 180 c 0
 99 161 106 152 117 140 c 0
 123 133 126 131 127 131 c 0
 128 131 129 132 129 134 c 0
 132 174 140 215 142 258 c 0
 142 265 140 266 136 266 c 0
 136 266 135 266 134 266 c 0
 134 266 133 266 132 266 c 0
 126 266 112 275 109 275 c 0
 109 275 l 0
 106 275 86 288 86 290 c 0
 77 302 64 317 61 334 c 0
 59 344 56 366 56 384 c 0
 56 392 57 399 58 405 c 0
 61 412 64 433 67 442 c 0
 69 453 88 485 96 493 c 0
 104 501 101 505 112 511 c 0
 117 514 120 516 120 518 c 0
 120 518 l 1
 122 520 124 519 129 523 c 0
 135 527 159 536 165 536 c 0
 168 536 170 541 171 557 c 0
 172 576 177 596 181 602 c 0
 183 607 185 607 190 607 c 0
 191 607 193 607 194 607 c 0
 202 606 203 605 207 598 c 0
 210 592 211 585 211 564 c 2
 212 538 l 1
 217 538 221 538 226 538 c 0
 227 538 l 0
 231 538 234 537 236 537 c 0
 239 537 241 538 241 545 c 0
 243 559 245 555 249 572 c 0
 254 588 256 593 263 593 c 0
 277 591 287 589 287 573 c 0
 287 572 287 572 287 571 c 0
 287 570 l 0
 287 563 285 553 285 543 c 0
 285 542 285 541 285 540 c 0
 285 532 287 530 296 530 c 0
 308 530 352 522 355 519 c 0
 357 517 359 517 360 517 c 0
227 441 m 0
 227 452 228 459 230 463 c 0
 230 467 225 467 219 467 c 0
 216 467 213 467 210 467 c 1
 210 457 l 1
 209 435 206 424 205 395 c 1
 203 367 l 1
 212 372 l 2
 218 375 221 377 221 380 c 0
 221 404 227 418 227 441 c 0
134 375 m 1
 134 374 134 374 134 373 c 0
 134 360 143 346 149 346 c 0
 153 346 153 351 156 400 c 0
 158 426 160 441 161 456 c 1
 158 456 151 445 144 429 c 0
 136 411 135 408 134 388 c 1
 134 375 l 1
328 305 m 0
 318 318 315 320 303 320 c 0
 302 320 300 320 298 320 c 0
 272 316 270 314 270 300 c 2
 270 288 l 1
 268 259 267 237 267 212 c 0
 267 209 267 206 267 202 c 0
 267 174 267 146 267 118 c 1
 279 124 l 2
 287 128 296 135 307 146 c 0
 322 161 323 163 328 180 c 0
 335 198 337 224 337 250 c 0
 337 266 336 281 335 295 c 0
 335 296 332 300 328 305 c 0
215 101 m 0
 213 116 213 134 213 153 c 0
 213 182 214 213 214 242 c 0
 214 256 214 269 213 281 c 1
 189 272 196 287 188 217 c 0
 181 147 179 116 176 98 c 1
 184 98 192 97 200 97 c 0
 201 97 203 97 204 97 c 0
 212 97 215 98 215 101 c 0
EndSplineSet
Comment: "char_L8_P8_x2365_y4405_x2569_y4747_JA+AD0APQAA.svg"
EndChar

